<?xml version="1.0" encoding="UTF-8"?>
<svg width="225px" height="325px" viewBox="0 0 225 325" version="1.1" xmlns="http://www.w3.org/2000/svg" xmlns:xlink="http://www.w3.org/1999/xlink">
    <!-- Generator: Sketch 55 (78076) - https://sketchapp.com -->
    <title>7</title>
    <desc>Created with Sketch.</desc>
    <defs>
        <rect id="path-1" x="0" y="0" width="225" height="325" rx="12"></rect>
        <polygon id="path-3" points="0.0678461538 0.184897537 12.3307142 0.184897537 12.3307142 14.7434143 0.0678461538 14.7434143"></polygon>
        <polygon id="path-5" points="0.0752066929 0.184897537 13.1997047 0.184897537 13.1997047 14.7434143 0.0752066929 14.7434143"></polygon>
    </defs>
    <g id="Page-1" stroke="none" stroke-width="1" fill="none" fill-rule="evenodd">
        <g id="Airbnb" transform="translate(-355.000000, -416.000000)">
            <g id="7" transform="translate(355.000000, 416.000000)">
                <g id="Mask">
                    <g id="path-1-link" fill="#000000" fill-rule="nonzero">
                        <rect id="path-1" x="0" y="0" width="225" height="325" rx="12"></rect>
                    </g>
                    <g id="path-1-link" fill="#222222">
                        <rect id="path-1" x="0" y="0" width="225" height="325" rx="12"></rect>
                    </g>
                </g>
                <g id="deepr-Clipped">
                    <mask id="mask-2" fill="white">
                        <use xlink:href="#path-1"></use>
                    </mask>
                    <g id="path-1"></g>
                    <g id="deepr" mask="url(#mask-2)">
                        <g transform="translate(60.236220, 99.256757)" id="Group-41">
                            <g>
                                <g id="Group">
                                    <path d="M11.4790735,125.608108 L0.922308396,125.608108 C0.557822923,125.608108 0.31296741,125.548805 0.187741856,125.4302 C0.0625163014,125.311776 0,125.080221 0,124.735717 L0,112.426263 C0,112.081758 0.0625163014,111.850386 0.187741856,111.731598 C0.31296741,111.613357 0.557822923,111.554054 0.922308396,111.554054 L3.04053048,111.554054 C3.39343887,111.554054 3.63250583,111.613357 3.75792434,111.731598 C3.88314989,111.850386 3.94585914,112.081758 3.94585914,112.426263 L3.94585914,122.31251 L11.4790735,122.31251 C11.843366,122.31251 12.0882215,122.371995 12.21364,122.490236 C12.3388655,122.608842 12.4015748,122.835105 12.4015748,123.168843 L12.4015748,124.735717 C12.4015748,125.080221 12.3388655,125.311776 12.21364,125.4302 C12.0882215,125.548805 11.843366,125.608108 11.4790735,125.608108" id="Fill-1" fill="#FF8000" fill-rule="nonzero"></path>
                                    <g id="Group-5" transform="translate(13.287402, 111.554054)">
                                        <g id="Fill-3-Clipped">
                                            <mask id="mask-4" fill="white">
                                                <use xlink:href="#path-3"></use>
                                            </mask>
                                            <g id="path-4"></g>
                                            <path d="M5.74318837,9.08727353 C5.38258874,9.08727353 5.14352453,9.0262207 5.02523259,8.9031699 C4.90713143,8.78068611 4.84798546,8.5408221 4.84798546,8.18376685 L4.84798546,6.57730174 C4.84798546,6.22043551 4.90713143,5.9805715 5.02523259,5.85770972 C5.14352453,5.73522597 5.38258874,5.67360606 5.74318837,5.67360606 L10.9117832,5.67360606 C11.272192,5.67360606 11.5141181,5.73522597 11.6381339,5.85770972 C11.7619588,5.9805715 11.8239667,6.22043551 11.8239667,6.57730174 L11.8239667,8.18376685 C11.8239667,8.5408221 11.7619588,8.78068611 11.6381339,8.9031699 C11.5141181,9.0262207 11.272192,9.08727353 10.9117832,9.08727353 L5.74318837,9.08727353 Z M11.4185306,14.7434521 L0.979838885,14.7434521 C0.619430042,14.7434521 0.377313143,14.6820213 0.253678983,14.5591594 C0.129663235,14.4364866 0.0678461538,14.1966227 0.0678461538,13.8397564 L0.0678461538,1.08859323 C0.0678461538,0.731726993 0.129663235,0.491862984 0.253678983,0.369001198 C0.377313143,0.246517448 0.619430042,0.184897537 0.979838885,0.184897537 L11.4185306,0.184897537 C11.7787487,0.184897537 12.0208655,0.246517448 12.1448812,0.369001198 C12.2687063,0.491862984 12.3307142,0.731726993 12.3307142,1.08859323 L12.3307142,2.71188094 C12.3307142,3.05778413 12.2687063,3.29197759 12.1448812,3.41446134 C12.0208655,3.53751215 11.7787487,3.59875402 11.4185306,3.59875402 L3.96957238,3.59875402 L3.96957238,11.3295957 L11.4185306,11.3295957 C11.7787487,11.3295957 12.0208655,11.3910265 12.1448812,11.5136993 C12.2687063,11.6365611 12.3307142,11.8709436 12.3307142,12.2166577 L12.3307142,13.8397564 C12.3307142,14.1966227 12.2687063,14.4364866 12.1448812,14.5591594 C12.0208655,14.6820213 11.7787487,14.7434521 11.4185306,14.7434521 L11.4185306,14.7434521 Z" id="Fill-3" fill="#FF8000" fill-rule="nonzero" mask="url(#mask-4)"></path>
                                        </g>
                                    </g>
                                    <path d="M40.6814689,124.622768 C40.7801972,124.913443 40.7690414,125.150289 40.6483735,125.333673 C40.5275197,125.516325 40.3194651,125.608108 40.0230943,125.608108 L37.8008709,125.608108 C37.3070434,125.608108 36.9695823,125.516325 36.7884874,125.333673 C36.6073926,125.150289 36.467574,124.907787 36.3688457,124.606528 L35.7597423,122.667962 L33.702252,122.667962 C33.3837556,122.667962 33.1671483,122.563042 33.0520582,122.353201 C32.9367822,122.142995 32.9393853,121.882062 33.0602391,121.569673 L35.5293763,114.623206 C35.6169488,114.364828 35.7322248,114.16557 35.8750183,114.025616 C36.0174399,113.885661 36.2150825,113.815592 36.467574,113.815592 C36.7198797,113.815592 36.9173363,113.885661 37.0601298,114.025616 C37.2025514,114.16557 37.3178273,114.364828 37.4057717,114.623206 L40.6814689,124.622768 Z M31.0027488,112.555634 C31.0574119,112.404914 31.1150499,112.267513 31.1756628,112.143616 C31.2357178,112.020084 31.3180844,111.914981 31.4223906,111.828672 C31.5266967,111.742546 31.6583344,111.675214 31.8174897,111.626678 C31.976459,111.578323 32.1822824,111.554054 32.4347739,111.554054 L34.6075403,111.554054 C34.9037251,111.554054 35.1067597,111.645654 35.2164578,111.828672 C35.3261559,112.011873 35.3261559,112.248719 35.2164578,112.539394 L30.9203823,124.606528 C30.8653473,124.757248 30.8078952,124.894466 30.7476542,125.018546 C30.6872273,125.142261 30.6048607,125.247182 30.5007405,125.333673 C30.3962484,125.419616 30.2620077,125.486948 30.0974605,125.535485 C29.9327274,125.584022 29.7296929,125.608108 29.4883571,125.608108 L27.2663196,125.608108 C26.9699488,125.608108 26.7667283,125.516325 26.6572162,125.333673 C26.5473322,125.150289 26.5473322,124.913443 26.6572162,124.622768 L31.0027488,112.555634 Z" id="Fill-6" fill="#FF8000" fill-rule="nonzero"></path>
                                    <path d="M50.009742,118.548693 C50.4691747,118.548693 50.8283497,118.430451 51.0868778,118.193423 C51.345406,117.956576 51.47467,117.595649 51.47467,117.111009 L51.47467,116.254857 C51.47467,115.770216 51.345406,115.414763 51.0868778,115.188682 C50.8283497,114.962601 50.4691747,114.849652 50.009742,114.849652 L45.6149582,114.849652 L45.6149582,124.735717 C45.6149582,125.080404 45.5516888,125.311776 45.4253449,125.430382 C45.2988063,125.548805 45.0517639,125.608108 44.6844126,125.608108 L42.5644039,125.608108 C42.1964685,125.608108 41.9496208,125.548805 41.8232768,125.430382 C41.6967382,125.311776 41.6338583,125.080404 41.6338583,124.735717 L41.6338583,112.426263 C41.6338583,112.081941 41.6967382,111.850386 41.8232768,111.73178 C41.9496208,111.613357 42.1964685,111.554054 42.5644039,111.554054 L50.6303654,111.554054 C51.4230812,111.554054 52.1207957,111.680688 52.7240929,111.933593 C53.3273902,112.186862 53.8298459,112.528811 54.2322387,112.959441 C54.6340475,113.390254 54.9357935,113.891135 55.1368926,114.461903 C55.3379916,115.03267 55.4384439,115.635735 55.4384439,116.271097 L55.4384439,116.82015 C55.4384439,117.358803 55.3609633,117.878297 55.2060021,118.379178 C55.0508463,118.879876 54.8238555,119.33514 54.5252243,119.744239 C54.2262038,120.15352 53.8530122,120.503498 53.4048707,120.794174 C52.9567294,121.084849 52.4338328,121.289581 51.8365705,121.408004 L55.5075534,124.461099 C55.6453832,124.579523 55.7343496,124.70342 55.7746473,124.832609 C55.8147503,124.961798 55.8176704,125.085695 55.7834077,125.204301 C55.7487555,125.322725 55.6769205,125.419616 55.567708,125.494976 C55.4584954,125.570154 55.3179402,125.608108 55.1454583,125.608108 L52.5430454,125.608108 C52.2901628,125.608108 52.0692069,125.60008 51.8795936,125.584022 C51.6899804,125.567782 51.5116582,125.527274 51.345406,125.462862 C51.1787643,125.398084 51.0093972,125.309404 50.83711,125.196273 C50.6646282,125.083141 50.4691747,124.929683 50.2509441,124.735717 L47.148801,121.941182 C47.0222624,121.822759 46.9161646,121.712547 46.8299237,121.609999 C46.7438774,121.507815 46.677688,121.399976 46.6317447,121.286844 C46.5858015,121.173894 46.5542641,121.044706 46.5369381,120.899276 C46.5198067,120.753848 46.5110463,120.578859 46.5110463,120.374126 L46.5110463,119.421084 C46.5110463,119.07658 46.5743156,118.845024 46.7006596,118.726601 C46.8270035,118.607995 47.0740459,118.548693 47.4419812,118.548693 L50.009742,118.548693 Z" id="Fill-8" fill="#FF8000" fill-rule="nonzero"></path>
                                    <path d="M66.1720233,112.426263 C66.1720233,112.081758 66.2323571,111.850386 66.3535834,111.731598 C66.474251,111.613357 66.7105584,111.554054 67.0623193,111.554054 L69.090019,111.554054 C69.4417799,111.554054 69.6779011,111.613357 69.7989411,111.731598 C69.9197949,111.850386 69.980315,112.081758 69.980315,112.426263 L69.980315,120.341829 C69.980315,120.91278 69.7931685,121.235752 69.4196203,121.31093 C69.0460722,121.39742 68.705298,121.214221 68.3976701,120.761876 L66.6666115,118.258017 C66.4796512,117.988873 66.3506039,117.722284 66.2792834,117.458249 C66.2075904,117.194579 66.1720233,116.863395 66.1720233,116.46488 L66.1720233,112.426263 Z M60.5010188,124.735717 C60.5010188,125.080404 60.4404988,125.311776 60.319645,125.430382 C60.198605,125.548805 59.9622976,125.608108 59.6109091,125.608108 L57.5830231,125.608108 C57.231076,125.608108 56.9949548,125.548805 56.874101,125.430382 C56.7530609,125.311776 56.6929134,125.080404 56.6929134,124.735717 L56.6929134,112.426263 C56.6929134,112.081758 56.7530609,111.850386 56.874101,111.731598 C56.9949548,111.613357 57.231076,111.554054 57.5830231,111.554054 L59.6109091,111.554054 C59.8634172,111.554054 60.0805444,111.564819 60.2621044,111.586168 C60.443292,111.608066 60.6164723,111.664449 60.7812731,111.755867 C60.9462599,111.847467 61.1082673,111.976838 61.2676677,112.143616 C61.4268819,112.310759 61.6056487,112.539394 61.8034095,112.830252 L69.7164477,124.33191 C69.9471687,124.665466 70.0214686,124.961798 69.9389751,125.220359 C69.8566679,125.478736 69.628554,125.608108 69.2550058,125.608108 L67.0129722,125.608108 C66.7599055,125.608108 66.5403575,125.597343 66.3535834,125.575628 C66.1664369,125.554097 65.9932565,125.497531 65.8342285,125.406114 C65.674642,125.314513 65.5152415,125.185324 65.3560274,125.018546 C65.1966269,124.851404 65.0182325,124.622768 64.8202855,124.33191 L60.5010188,118.031936 L60.5010188,124.735717 Z" id="Fill-10" fill="#FF8000" fill-rule="nonzero"></path>
                                    <path d="M75.2952756,124.735717 C75.2952756,125.080404 75.2278089,125.311776 75.0930832,125.430382 C74.9581499,125.548805 74.6947186,125.608108 74.3029968,125.608108 L71.8586281,125.608108 C71.4664912,125.608108 71.2030598,125.548805 71.0683341,125.430382 C70.9334008,125.311776 70.8661417,125.080404 70.8661417,124.735717 L70.8661417,112.426263 C70.8661417,112.081758 70.9334008,111.850386 71.0683341,111.731598 C71.2030598,111.613357 71.4664912,111.554054 71.8586281,111.554054 L74.3029968,111.554054 C74.6947186,111.554054 74.9581499,111.613357 75.0930832,111.731598 C75.2278089,111.850386 75.2952756,112.081758 75.2952756,112.426263 L75.2952756,124.735717 Z" id="Fill-12" fill="#FF8000" fill-rule="nonzero"></path>
                                    <path d="M86.5460391,112.426263 C86.5460391,112.081758 86.6063728,111.850386 86.7275991,111.731598 C86.8482667,111.613357 87.0845741,111.554054 87.436335,111.554054 L89.4640349,111.554054 C89.8157959,111.554054 90.0519165,111.613357 90.1729568,111.731598 C90.293811,111.850386 90.3543307,112.081758 90.3543307,112.426263 L90.3543307,120.341829 C90.3543307,120.91278 90.1671839,121.235752 89.793636,121.31093 C89.4200882,121.39742 89.0793133,121.214221 88.771686,120.761876 L87.0406273,118.258017 C86.853667,117.988873 86.7246196,117.722284 86.6532992,117.458249 C86.5816062,117.194579 86.5460391,116.863395 86.5460391,116.46488 L86.5460391,112.426263 Z M80.8750346,124.735717 C80.8750346,125.080404 80.8145145,125.311776 80.6936607,125.430382 C80.5726207,125.548805 80.3363133,125.608108 79.9849248,125.608108 L77.9570389,125.608108 C77.6050918,125.608108 77.3689706,125.548805 77.2481168,125.430382 C77.1270767,125.311776 77.0669291,125.080404 77.0669291,124.735717 L77.0669291,112.426263 C77.0669291,112.081758 77.1270767,111.850386 77.2481168,111.731598 C77.3689706,111.613357 77.6050918,111.554054 77.9570389,111.554054 L79.9849248,111.554054 C80.2374329,111.554054 80.4545601,111.564819 80.6361202,111.586168 C80.8173078,111.608066 80.9904881,111.664449 81.1552888,111.755867 C81.3202756,111.847467 81.4822831,111.976838 81.6416834,112.143616 C81.8008976,112.310759 81.9796644,112.539394 82.1774253,112.830252 L90.0904633,124.33191 C90.321184,124.665466 90.3954844,124.961798 90.3129909,125.220359 C90.2306835,125.478736 90.0025698,125.608108 89.6290219,125.608108 L87.3869879,125.608108 C87.1339212,125.608108 86.9143732,125.597343 86.7275991,125.575628 C86.5404526,125.554097 86.3672722,125.497531 86.2082443,125.406114 C86.0486577,125.314513 85.8892573,125.185324 85.7300431,125.018546 C85.5706426,124.851404 85.3922483,124.622768 85.1943013,124.33191 L80.8750346,118.031936 L80.8750346,124.735717 Z" id="Fill-14" fill="#FF8000" fill-rule="nonzero"></path>
                                    <g id="Group-18" transform="translate(91.240157, 111.554054)">
                                        <g id="Fill-16-Clipped">
                                            <mask id="mask-6" fill="white">
                                                <use xlink:href="#path-5"></use>
                                            </mask>
                                            <g id="path-6"></g>
                                            <path d="M7.51975816,9.08727353 C7.17238751,9.08727353 6.9372005,9.0262207 6.81381749,8.9031699 C6.6906243,8.78068611 6.62912261,8.5408221 6.62912261,8.18376685 L6.62912261,6.57730174 C6.62912261,6.22043551 6.6906243,5.9805715 6.81381749,5.85770972 C6.9372005,5.73522597 7.17238751,5.67360606 7.51975816,5.67360606 L12.3091072,5.67360606 C12.656288,5.67360606 12.891475,5.73522597 13.014858,5.85770972 C13.1380512,5.9805715 13.1997427,6.22043551 13.1997427,6.57730174 L13.1997427,13.8397564 C13.1997427,14.1966227 13.1380512,14.4364866 13.014858,14.5591594 C12.891475,14.6820213 12.656288,14.7434521 12.3091072,14.7434521 L6.10806665,14.7434521 C5.26792323,14.7434521 4.4835869,14.6287181 3.75543729,14.4001952 C3.02709786,14.1714832 2.38854331,13.8006297 1.83977362,13.2876345 C1.29081411,12.7742612 0.859163386,12.1077833 0.545770529,11.2878226 C0.231998031,10.4678619 0.0752066929,9.46134045 0.0752066929,8.26731286 L0.0752066929,6.66084776 C0.0752066929,5.46738728 0.231998031,4.45784143 0.545770529,3.63221023 C0.859163386,2.80657903 1.29081411,2.14010109 1.83977362,1.63258741 C2.38854331,1.1248847 3.02709786,0.756866404 3.75543729,0.527965446 C4.4835869,0.299442524 5.26792323,0.184897537 6.10806665,0.184897537 L12.3091072,0.184897537 C12.656288,0.184897537 12.891475,0.246517448 13.014858,0.369001198 C13.1380512,0.491862984 13.1997427,0.731726993 13.1997427,1.08859323 L13.1997427,2.71188094 C13.1997427,3.05778413 13.1380512,3.29197759 13.014858,3.41446134 C12.891475,3.53751215 12.656288,3.59875402 12.3091072,3.59875402 L6.67942491,3.59875402 C5.72728768,3.59875402 5.03520388,3.82746596 4.60412261,4.28470082 C4.1726617,4.74231372 3.95702616,5.47853934 3.95702616,6.49356671 L3.95702616,8.43478293 C3.95702616,9.44999935 4.1726617,10.1862249 4.60412261,10.6434598 C5.03520388,11.1010727 5.72728768,11.3295957 6.67942491,11.3295957 L9.31792323,11.3295957 L9.31792323,9.08727353 L7.51975816,9.08727353 Z" id="Fill-16" fill="#FF8000" fill-rule="nonzero" mask="url(#mask-6)"></path>
                                        </g>
                                    </g>
                                    <path d="M21.6323736,102.18477 C21.6323736,101.572315 21.5053622,101.128009 21.2515188,100.851855 C20.9976754,100.57625 20.5904123,100.438172 20.0299091,100.438172 L18.2298311,100.438172 L18.2298311,105.102552 L20.0299091,105.102552 C20.5904123,105.102552 20.9976754,104.964658 21.2515188,104.688503 C21.5053622,104.412531 21.6323736,103.968593 21.6323736,103.355954 L21.6323736,102.18477 Z M16.4789769,98.3783784 L20.366211,98.3783784 C20.8607833,98.3783784 21.3223003,98.4475085 21.7511213,98.5854034 C22.1795829,98.7234801 22.5555872,98.9455411 22.8785953,99.2517693 C23.2016032,99.5581802 23.4556262,99.960127 23.6403049,100.458343 C23.8248039,100.956559 23.9173228,101.56553 23.9173228,102.285807 L23.9173228,103.254916 C23.9173228,103.975377 23.8248039,104.582515 23.6403049,105.077247 C23.4556262,105.571978 23.2016032,105.974109 22.8785953,106.283821 C22.5555872,106.593349 22.1795829,106.817243 21.7511213,106.955321 C21.3223003,107.093215 20.8607833,107.162162 20.366211,107.162162 L16.4789769,107.162162 C16.2678899,107.162162 16.1261472,107.124938 16.0535692,107.05104 C15.9809912,106.976959 15.9448819,106.83228 15.9448819,106.617004 L15.9448819,98.9237205 C15.9448819,98.7082604 15.9809912,98.5635818 16.0535692,98.4895003 C16.1261472,98.4154187 16.2678899,98.3783784 16.4789769,98.3783784 L16.4789769,98.3783784 Z" id="Fill-19" fill="#FF8000" fill-rule="nonzero"></path>
                                    <path d="M27.6070674,103.749761 C27.3727187,103.749761 27.2171511,103.712903 27.1403646,103.63882 C27.0633785,103.564554 27.0250849,103.420055 27.0250849,103.204408 L27.0250849,102.235277 C27.0250849,102.019814 27.0633785,101.875132 27.1403646,101.801048 C27.2171511,101.727149 27.3727187,101.690107 27.6070674,101.690107 L30.9673276,101.690107 C31.2014768,101.690107 31.3590389,101.727149 31.439615,101.801048 C31.5199915,101.875132 31.5602795,102.019814 31.5602795,102.235277 L31.5602795,103.204408 C31.5602795,103.420055 31.5199915,103.564554 31.439615,103.63882 C31.3590389,103.712903 31.2014768,103.749761 30.9673276,103.749761 L27.6070674,103.749761 Z M31.2968119,107.162162 L24.5102747,107.162162 C24.2759262,107.162162 24.1185635,107.125121 24.0379874,107.051221 C23.9574114,106.977138 23.9173228,106.832456 23.9173228,106.617176 L23.9173228,98.9237319 C23.9173228,98.7082674 23.9574114,98.5635862 24.0379874,98.4893193 C24.1185635,98.4154196 24.2759262,98.3783784 24.5102747,98.3783784 L31.2968119,98.3783784 C31.5309611,98.3783784 31.6883237,98.4154196 31.7688997,98.4893193 C31.8494758,98.5635862 31.8897638,98.7082674 31.8897638,98.9237319 L31.8897638,99.9029472 C31.8897638,100.111626 31.8494758,100.253007 31.7688997,100.327091 C31.6883237,100.401174 31.5309611,100.438032 31.2968119,100.438032 L26.454072,100.438032 L26.454072,105.102693 L31.2968119,105.102693 C31.5309611,105.102693 31.6883237,105.139734 31.7688997,105.213633 C31.8494758,105.287899 31.8897638,105.429097 31.8897638,105.637777 L31.8897638,106.617176 C31.8897638,106.832456 31.8494758,106.977138 31.7688997,107.051221 C31.6883237,107.125121 31.5309611,107.162162 31.2968119,107.162162 L31.2968119,107.162162 Z" id="Fill-21" fill="#FF8000" fill-rule="nonzero"></path>
                                    <path d="M36.4653351,103.749761 C36.2309864,103.749761 36.0754188,103.712903 35.9986323,103.63882 C35.9216462,103.564554 35.8833526,103.420055 35.8833526,103.204408 L35.8833526,102.235277 C35.8833526,102.019814 35.9216462,101.875132 35.9986323,101.801048 C36.0754188,101.727149 36.2309864,101.690107 36.4653351,101.690107 L39.8255954,101.690107 C40.0597445,101.690107 40.2173066,101.727149 40.2978827,101.801048 C40.3782592,101.875132 40.4185473,102.019814 40.4185473,102.235277 L40.4185473,103.204408 C40.4185473,103.420055 40.3782592,103.564554 40.2978827,103.63882 C40.2173066,103.712903 40.0597445,103.749761 39.8255954,103.749761 L36.4653351,103.749761 Z M40.1550796,107.162162 L33.3685424,107.162162 C33.1341939,107.162162 32.9768312,107.125121 32.8962551,107.051221 C32.8156791,106.977138 32.7755906,106.832456 32.7755906,106.617176 L32.7755906,98.9237319 C32.7755906,98.7082674 32.8156791,98.5635862 32.8962551,98.4893193 C32.9768312,98.4154196 33.1341939,98.3783784 33.3685424,98.3783784 L40.1550796,98.3783784 C40.3892288,98.3783784 40.5465914,98.4154196 40.6271674,98.4893193 C40.7077435,98.5635862 40.7480315,98.7082674 40.7480315,98.9237319 L40.7480315,99.9029472 C40.7480315,100.111626 40.7077435,100.253007 40.6271674,100.327091 C40.5465914,100.401174 40.3892288,100.438032 40.1550796,100.438032 L35.3123398,100.438032 L35.3123398,105.102693 L40.1550796,105.102693 C40.3892288,105.102693 40.5465914,105.139734 40.6271674,105.213633 C40.7077435,105.287899 40.7480315,105.429097 40.7480315,105.637777 L40.7480315,106.617176 C40.7480315,106.832456 40.7077435,106.977138 40.6271674,107.051221 C40.5465914,107.125121 40.3892288,107.162162 40.1550796,107.162162 L40.1550796,107.162162 Z" id="Fill-23" fill="#FF8000" fill-rule="nonzero"></path>
                                    <path d="M44.437776,103.749761 C44.2034274,103.749761 44.0478598,103.712903 43.9710732,103.63882 C43.8940872,103.564554 43.8557936,103.420055 43.8557936,103.204408 L43.8557936,102.235277 C43.8557936,102.019814 43.8940872,101.875132 43.9710732,101.801048 C44.0478598,101.727149 44.2034274,101.690107 44.437776,101.690107 L47.7980363,101.690107 C48.0321855,101.690107 48.1897476,101.727149 48.2703236,101.801048 C48.3507002,101.875132 48.3909882,102.019814 48.3909882,102.235277 L48.3909882,103.204408 C48.3909882,103.420055 48.3507002,103.564554 48.2703236,103.63882 C48.1897476,103.712903 48.0321855,103.749761 47.7980363,103.749761 L44.437776,103.749761 Z M48.1275206,107.162162 L41.3409834,107.162162 C41.1066348,107.162162 40.9492721,107.125121 40.8686961,107.051221 C40.78812,106.977138 40.7480315,106.832456 40.7480315,106.617176 L40.7480315,98.9237319 C40.7480315,98.7082674 40.78812,98.5635862 40.8686961,98.4893193 C40.9492721,98.4154196 41.1066348,98.3783784 41.3409834,98.3783784 L48.1275206,98.3783784 C48.3616697,98.3783784 48.5190323,98.4154196 48.5996084,98.4893193 C48.6801844,98.5635862 48.7204724,98.7082674 48.7204724,98.9237319 L48.7204724,99.9029472 C48.7204724,100.111626 48.6801844,100.253007 48.5996084,100.327091 C48.5190323,100.401174 48.3616697,100.438032 48.1275206,100.438032 L43.2847807,100.438032 L43.2847807,105.102693 L48.1275206,105.102693 C48.3616697,105.102693 48.5190323,105.139734 48.5996084,105.213633 C48.6801844,105.287899 48.7204724,105.429097 48.7204724,105.637777 L48.7204724,106.617176 C48.7204724,106.832456 48.6801844,106.977138 48.5996084,107.051221 C48.5190323,107.125121 48.3616697,107.162162 48.1275206,107.162162 L48.1275206,107.162162 Z" id="Fill-25" fill="#FF8000" fill-rule="nonzero"></path>
                                    <path d="M52.4100175,103.749761 C52.1756689,103.749761 52.0203007,103.712903 51.9433147,103.63882 C51.8665281,103.564554 51.8280351,103.420055 51.8280351,103.204408 L51.8280351,102.235277 C51.8280351,102.019814 51.8665281,101.875132 51.9433147,101.801048 C52.0203007,101.727149 52.1756689,101.690107 52.4100175,101.690107 L55.7704773,101.690107 C56.004427,101.690107 56.161989,101.727149 56.2425651,101.801048 C56.3229417,101.875132 56.3632297,102.019814 56.3632297,102.235277 L56.3632297,103.204408 C56.3632297,103.420055 56.3229417,103.564554 56.2425651,103.63882 C56.161989,103.712903 56.004427,103.749761 55.7704773,103.749761 L52.4100175,103.749761 Z M56.099762,107.162162 L49.3134243,107.162162 C49.0790758,107.162162 48.9217131,107.125121 48.841137,107.051221 C48.760561,106.977138 48.7204724,106.832456 48.7204724,106.617176 L48.7204724,98.9237319 C48.7204724,98.7082674 48.760561,98.5635862 48.841137,98.4893193 C48.9217131,98.4154196 49.0790758,98.3783784 49.3134243,98.3783784 L56.099762,98.3783784 C56.3341107,98.3783784 56.4914733,98.4154196 56.5720493,98.4893193 C56.6524259,98.5635862 56.6929134,98.7082674 56.6929134,98.9237319 L56.6929134,99.9029472 C56.6929134,100.111626 56.6524259,100.253007 56.5720493,100.327091 C56.4914733,100.401174 56.3341107,100.438032 56.099762,100.438032 L51.2572217,100.438032 L51.2572217,105.102693 L56.099762,105.102693 C56.3341107,105.102693 56.4914733,105.139734 56.5720493,105.213633 C56.6524259,105.287899 56.6929134,105.429097 56.6929134,105.637777 L56.6929134,106.617176 C56.6929134,106.832456 56.6524259,106.977138 56.5720493,107.051221 C56.4914733,107.125121 56.3341107,107.162162 56.099762,107.162162 L56.099762,107.162162 Z" id="Fill-27" fill="#FF8000" fill-rule="nonzero"></path>
                                    <path d="M60.3825656,103.749761 C60.1482228,103.749761 59.9928585,103.712903 59.9158744,103.63882 C59.8390898,103.564554 59.8005977,103.420055 59.8005977,103.204408 L59.8005977,102.235277 C59.8005977,102.019814 59.8390898,101.875132 59.9158744,101.801048 C59.9928585,101.727149 60.1482228,101.690107 60.3825656,101.690107 L63.7429413,101.690107 C63.9768852,101.690107 64.1344433,101.727149 64.2150174,101.801048 C64.2953919,101.875132 64.3356789,102.019814 64.3356789,102.235277 L64.3356789,103.204408 C64.3356789,103.420055 64.2953919,103.564554 64.2150174,103.63882 C64.1344433,103.712903 63.9768852,103.749761 63.7429413,103.749761 L60.3825656,103.749761 Z M64.0722178,107.162162 L57.2860499,107.162162 C57.0517072,107.162162 56.8943484,107.125121 56.8137744,107.051221 C56.7332004,106.977138 56.6929134,106.832456 56.6929134,106.617176 L56.6929134,98.9237319 C56.6929134,98.7082674 56.7332004,98.5635862 56.8137744,98.4893193 C56.8943484,98.4154196 57.0517072,98.3783784 57.2860499,98.3783784 L64.0722178,98.3783784 C64.3065606,98.3783784 64.4639193,98.4154196 64.5444933,98.4893193 C64.6248679,98.5635862 64.6653543,98.7082674 64.6653543,98.9237319 L64.6653543,99.9029472 C64.6653543,100.111626 64.6248679,100.253007 64.5444933,100.327091 C64.4639193,100.401174 64.3065606,100.438032 64.0722178,100.438032 L59.2295992,100.438032 L59.2295992,105.102693 L64.0722178,105.102693 C64.3065606,105.102693 64.4639193,105.139734 64.5444933,105.213633 C64.6248679,105.287899 64.6653543,105.429097 64.6653543,105.637777 L64.6653543,106.617176 C64.6653543,106.832456 64.6248679,106.977138 64.5444933,107.051221 C64.4639193,107.125121 64.3065606,107.162162 64.0722178,107.162162 L64.0722178,107.162162 Z" id="Fill-29" fill="#FF8000" fill-rule="nonzero"></path>
                                    <path d="M69.2408333,103.749761 C69.0064905,103.749761 68.8511262,103.712903 68.7741421,103.63882 C68.6973575,103.564554 68.6588654,103.420055 68.6588654,103.204408 L68.6588654,102.235277 C68.6588654,102.019814 68.6973575,101.875132 68.7741421,101.801048 C68.8511262,101.727149 69.0064905,101.690107 69.2408333,101.690107 L72.601209,101.690107 C72.8351529,101.690107 72.992711,101.727149 73.0732851,101.801048 C73.1536596,101.875132 73.1939466,102.019814 73.1939466,102.235277 L73.1939466,103.204408 C73.1939466,103.420055 73.1536596,103.564554 73.0732851,103.63882 C72.992711,103.712903 72.8351529,103.749761 72.601209,103.749761 L69.2408333,103.749761 Z M72.9304856,107.162162 L66.1443176,107.162162 C65.9099749,107.162162 65.7526162,107.125121 65.6720422,107.051221 C65.5914681,106.977138 65.5511811,106.832456 65.5511811,106.617176 L65.5511811,98.9237319 C65.5511811,98.7082674 65.5914681,98.5635862 65.6720422,98.4893193 C65.7526162,98.4154196 65.9099749,98.3783784 66.1443176,98.3783784 L72.9304856,98.3783784 C73.1648283,98.3783784 73.322187,98.4154196 73.402761,98.4893193 C73.4831356,98.5635862 73.523622,98.7082674 73.523622,98.9237319 L73.523622,99.9029472 C73.523622,100.111626 73.4831356,100.253007 73.402761,100.327091 C73.322187,100.401174 73.1648283,100.438032 72.9304856,100.438032 L68.0878669,100.438032 L68.0878669,105.102693 L72.9304856,105.102693 C73.1648283,105.102693 73.322187,105.139734 73.402761,105.213633 C73.4831356,105.287899 73.523622,105.429097 73.523622,105.637777 L73.523622,106.617176 C73.523622,106.832456 73.4831356,106.977138 73.402761,107.051221 C73.322187,107.125121 73.1648283,107.162162 72.9304856,107.162162 L72.9304856,107.162162 Z" id="Fill-31" fill="#FF8000" fill-rule="nonzero"></path>
                                    <path d="M77.2132743,103.749761 C76.9789315,103.749761 76.8235672,103.712903 76.7465831,103.63882 C76.6697985,103.564554 76.6313064,103.420055 76.6313064,103.204408 L76.6313064,102.235277 C76.6313064,102.019814 76.6697985,101.875132 76.7465831,101.801048 C76.8235672,101.727149 76.9789315,101.690107 77.2132743,101.690107 L80.57365,101.690107 C80.8075938,101.690107 80.9651519,101.727149 81.045726,101.801048 C81.1261005,101.875132 81.1663876,102.019814 81.1663876,102.235277 L81.1663876,103.204408 C81.1663876,103.420055 81.1261005,103.564554 81.045726,103.63882 C80.9651519,103.712903 80.8075938,103.749761 80.57365,103.749761 L77.2132743,103.749761 Z M80.9029265,107.162162 L74.1167585,107.162162 C73.8824158,107.162162 73.7250571,107.125121 73.6444831,107.051221 C73.5639091,106.977138 73.523622,106.832456 73.523622,106.617176 L73.523622,98.9237319 C73.523622,98.7082674 73.5639091,98.5635862 73.6444831,98.4893193 C73.7250571,98.4154196 73.8824158,98.3783784 74.1167585,98.3783784 L80.9029265,98.3783784 C81.1372692,98.3783784 81.2946279,98.4154196 81.3752019,98.4893193 C81.4555765,98.5635862 81.496063,98.7082674 81.496063,98.9237319 L81.496063,99.9029472 C81.496063,100.111626 81.4555765,100.253007 81.3752019,100.327091 C81.2946279,100.401174 81.1372692,100.438032 80.9029265,100.438032 L76.0603078,100.438032 L76.0603078,105.102693 L80.9029265,105.102693 C81.1372692,105.102693 81.2946279,105.139734 81.3752019,105.213633 C81.4555765,105.287899 81.496063,105.429097 81.496063,105.637777 L81.496063,106.617176 C81.496063,106.832456 81.4555765,106.977138 81.3752019,107.051221 C81.2946279,107.125121 81.1372692,107.162162 80.9029265,107.162162 L80.9029265,107.162162 Z" id="Fill-33" fill="#FF8000" fill-rule="nonzero"></path>
                                    <path d="M87.3374935,103.052941 C87.5748092,103.052941 87.757871,102.973906 87.8864994,102.815839 C88.014948,102.65777 88.0794418,102.450742 88.0794418,102.194751 L88.0794418,101.29622 C88.0794418,101.040415 88.014948,100.833385 87.8864994,100.675318 C87.757871,100.517249 87.5748092,100.438032 87.3374935,100.438032 L84.666839,100.438032 L84.666839,106.617176 C84.666839,106.832273 84.63055,106.976954 84.5579719,107.051221 C84.485394,107.125121 84.3436513,107.162162 84.132744,107.162162 L82.9161644,107.162162 C82.7050774,107.162162 82.5633347,107.125121 82.4907567,107.051221 C82.4181787,106.976954 82.3818898,106.832273 82.3818898,106.617176 L82.3818898,98.9235483 C82.3818898,98.7082674 82.4181787,98.5635862 82.4907567,98.4893193 C82.5633347,98.4154196 82.7050774,98.3783784 82.9161644,98.3783784 L87.5947502,98.3783784 C88.0497998,98.3783784 88.4502363,98.4574122 88.7964192,98.6156635 C89.142781,98.7739157 89.4311167,98.9875461 89.6619658,99.2567383 C89.8928141,99.5261141 90.065995,99.839133 90.1813296,100.195795 C90.2966634,100.552457 90.3543307,100.929474 90.3543307,101.326477 L90.3543307,102.164495 C90.3543307,102.561683 90.2966634,102.938699 90.1813296,103.29536 C90.065995,103.652206 89.8928141,103.965225 89.6619658,104.234235 C89.4311167,104.50361 89.142781,104.717241 88.7964192,104.875308 C88.4502363,105.033743 88.0497998,105.112594 87.5947502,105.112594 L85.7154472,105.112594 C85.5041807,105.112594 85.3626176,105.075736 85.2900397,105.001654 C85.217282,104.927754 85.1811726,104.786189 85.1811726,104.57751 L85.1811726,103.598294 C85.1811726,103.383014 85.217282,103.238332 85.2900397,103.164065 C85.3626176,103.089982 85.5041807,103.052941 85.7154472,103.052941 L87.3374935,103.052941 Z" id="Fill-35" fill="#FF8000" fill-rule="nonzero"></path>
                                    <path d="M50.8123424,81.6891892 C50.8123424,81.6891892 -23.8073962,25.3903722 84.1535433,0 C84.1535433,0 7.85649778,28.8897757 50.8123424,81.6891892" id="Fill-37" fill="#FF8000" fill-rule="nonzero"></path>
                                    <path d="M59.0301772,81.6891892 C59.0301772,81.6891892 133.649916,25.3903722 25.6889764,0 C25.6889764,0 101.986211,28.8897757 59.0301772,81.6891892" id="Fill-39" fill="#328054" fill-rule="nonzero"></path>
                                </g>
                            </g>
                        </g>
                    </g>
                </g>
            </g>
        </g>
    </g>
</svg>