<?xml version="1.0" encoding="UTF-8"?>
<svg width="12px" height="20px" viewBox="0 0 12 20" version="1.1" xmlns="http://www.w3.org/2000/svg" xmlns:xlink="http://www.w3.org/1999/xlink">
    <!-- Generator: Sketch 55 (78076) - https://sketchapp.com -->
    <title>backward-arrow</title>
    <desc>Created with Sketch.</desc>
    <g id="GTG" stroke="none" stroke-width="1" fill="none" fill-rule="evenodd">
        <g id="one-page" transform="translate(-1044.000000, -2132.000000)" fill="#FFFFFF" fill-rule="nonzero">
            <g id="backward-arrow" transform="translate(1050.000000, 2142.000000) scale(-1, 1) translate(-1050.000000, -2142.000000) translate(1044.000000, 2132.000000)">
                <path d="M3.17661017,9.97232258 L11.8292203,1.73845161 C12.0277966,1.54948387 12.0277966,1.24309677 11.8292203,1.05419355 L10.8704407,0.141741935 C10.7751186,0.0509677419 10.6457627,0 10.5109153,0 C10.3760678,0 10.2467119,0.0509677419 10.1513898,0.141741935 L0.18040678,9.63019355 C-0.0181694915,9.81916129 -0.0181694915,10.1255484 0.18040678,10.3144516 L10.151322,19.8029032 C10.2466441,19.8936774 10.376,19.9446452 10.5108475,19.9446452 C10.6456949,19.9446452 10.7750508,19.8936774 10.8703729,19.8029032 L11.8291525,18.8904516 C12.0277288,18.7014839 12.0277288,18.3950968 11.8291525,18.2061935 L3.17661017,9.97232258 Z" id="Path"></path>
            </g>
        </g>
    </g>
</svg>