<?xml version="1.0" encoding="UTF-8"?>
<svg width="200px" height="196px" viewBox="0 0 200 196" version="1.1" xmlns="http://www.w3.org/2000/svg" xmlns:xlink="http://www.w3.org/1999/xlink">
    <!-- Generator: Sketch 55 (78076) - https://sketchapp.com -->
    <title>element_crystal</title>
    <desc>Created with Sketch.</desc>
    <defs>
        <linearGradient x1="-36.6511724%" y1="53.045696%" x2="136.802897%" y2="48.3372609%" id="linearGradient-1">
            <stop stop-color="#FE7891" offset="0%"></stop>
            <stop stop-color="#FEBA85" offset="100%"></stop>
        </linearGradient>
        <path d="M199.141797,151.118779 L181.558984,133.565667 C181.009375,133.017376 180.264453,132.709304 179.487109,132.709304 L169.956641,132.709304 C168.338281,132.709304 167.026953,134.018417 167.026953,135.634042 C167.026953,137.249668 168.338281,138.558781 169.956641,138.558781 L178.273828,138.558781 L194.140234,154.398386 L194.140234,178.572716 L65.9453125,178.572716 L65.9453125,154.054047 L81.4667969,138.558781 L156.605469,138.558781 C158.223828,138.558781 159.535156,137.249668 159.535156,135.634042 C159.535156,134.018417 158.223828,132.709304 156.605469,132.709304 L150.194141,132.709304 L154.575391,111.754136 C154.90625,110.172827 153.889844,108.623886 152.305859,108.293585 C150.721875,107.964454 149.169922,108.977974 148.839453,110.559283 L144.208203,132.709694 L126.976172,132.709694 C131.707813,109.587879 136.062109,88.4849147 140.682813,67.3367141 L158.704297,63.376228 L151.625781,97.2314433 C151.294922,98.8127521 152.311328,100.361694 153.895313,100.691994 C155.478125,101.019565 157.03125,100.007605 157.361719,98.4262966 L165.365234,60.1453666 C165.500781,59.491785 165.402734,58.7828283 165.092969,58.1912512 L148.533984,26.6122625 C148.127734,25.8374017 147.394922,25.2844311 146.537109,25.105827 C145.679297,24.9260531 144.786328,25.1409239 144.103516,25.6892149 L116.273047,48.01823 C115.748437,48.4397824 115.383594,49.0446183 115.240234,49.7001498 L110.532422,72.217908 L101.40625,20.1349411 C101.288672,19.4774599 100.937109,18.8562454 100.429297,18.4206543 L80.0792969,0.974392948 C79.4144531,0.404263883 78.5296875,0.161315588 77.6652344,0.312232105 C76.8023438,0.463148622 76.0519531,0.991551415 75.6207031,1.75276341 L62.4125,25.0602011 C62.0835938,25.6404693 61.9601563,26.3474761 62.0765625,27.0041774 L69.3214844,68.345944 L57.7550781,44.414952 C57.4664063,43.8147956 56.9515625,43.3097907 56.3464844,43.0309656 L32,31.7894399 C31.2046875,31.4224827 30.2855469,31.430282 29.4972656,31.8101081 C28.7078125,32.1903241 28.1304688,32.9031804 27.9234375,33.7533045 L21.5867188,59.7741198 C21.4289063,60.4245817 21.5066406,61.1319785 21.7949219,61.7356445 L43.2925781,106.215071 L29.4070313,106.215071 C28.6300781,106.215071 27.8851563,106.523143 27.3351563,107.071434 L10.0976563,124.280207 C9.5484375,124.828888 9.23984375,125.572551 9.23984375,126.348582 L9.23984375,132.145414 C9.23984375,133.76104 10.5511719,135.070153 12.1695313,135.070153 C13.7878906,135.070153 15.0992188,133.76104 15.0992188,132.145414 L15.0992188,127.559814 L30.6207031,112.064548 L102.202344,112.064548 L97.8859375,132.709304 L80.2539063,132.709304 C79.4769531,132.709304 78.7320313,133.017376 78.1820313,133.565667 L60.9441406,150.77444 C60.3949219,151.323121 60.0863281,152.066784 60.0863281,152.842815 L60.0863281,178.572716 L54.3621094,178.572716 L54.3621094,176.057441 C54.3621094,169.358619 48.9027344,163.909246 42.1929688,163.909246 C35.4832031,163.909246 30.0234375,169.358619 30.0234375,176.057441 L30.0234375,178.572716 L24.3382813,178.572716 L24.3382813,176.057441 C24.3382813,170.367069 20.3984375,165.579857 15.0992188,164.267234 L15.0992188,145.473253 C15.0992188,143.857628 13.7878906,142.548515 12.1695313,142.548515 C10.5511719,142.548515 9.23984375,143.857628 9.23984375,145.473253 L9.23984375,164.267234 C3.94023438,165.580247 2.84217094e-14,170.367069 2.84217094e-14,176.057441 L2.84217094e-14,181.497455 C2.84217094e-14,183.113081 1.31132813,184.422194 2.9296875,184.422194 L197.069922,184.422194 C198.688281,184.422194 199.999609,183.113081 199.999609,181.497455 L199.999609,153.186764" id="path-2"></path>
        <path d="M139.663542,25.1692614 L152.792057,50.2058046 L133.54401,54.4357567 L117.599089,42.8721198 L139.663542,25.1692614 Z M73.631901,0.421682327 L88.3701823,13.0573335 L77.1736979,20.6331866 L64.0658854,17.3021042 L73.631901,0.421682327 Z M76.572526,98.9069936 L63.2951823,23.1422225 L75.1682292,26.1593829 L87.9166667,98.9069936 L76.572526,98.9069936 Z M70.6244792,98.9069936 L63.3947917,98.9069936 C60.0752604,92.0229387 56.6830729,85.0281336 53.3983073,78.2544387 C49.3908854,69.9902971 45.2572917,61.4652687 41.228776,53.0880371 L49.1127604,43.720684 L67.5197917,81.8046816 C67.5674479,81.9029528 67.6205729,81.9965444 67.6772135,82.0874063 L70.6244792,98.9069936 Z M27.4416667,31.2839151 L45.0740885,39.4256077 L36.3729167,49.7635841 L22.8522135,50.1293714 L27.4416667,31.2839151 Z M23.706901,55.9577907 L35.9494792,55.6267103 C39.9807292,64.0097914 44.1158854,72.5371595 48.1240885,80.803251 C51.0045573,86.7428104 53.9674479,92.8527845 56.8908854,98.9069936 L44.4647135,98.9069936 L23.706901,55.9577907 Z M93.8651042,98.9069936 L80.9401042,25.150933 L91.0815104,18.289106 L101.963932,80.3875482 L98.0916667,98.9069936 L93.8651042,98.9069936 L93.8651042,98.9069936 Z M114.718229,48.0134205 L129.617839,58.8185751 C124.913932,80.344652 120.488932,101.813014 115.663542,125.401227 L98.538151,125.401227 L114.718229,48.0134205 Z M6.83580729,171.264639 L0.526041667,171.264639 L0.526041667,168.749364 C0.526041667,165.276334 3.35651042,162.450647 6.83580729,162.450647 C10.3147135,162.450647 13.1451823,165.276334 13.1451823,168.749364 L13.1451823,171.264639 L6.83580729,171.264639 Z M30.5494792,171.264639 L30.5494792,168.749364 C30.5494792,165.276334 33.3799479,162.450647 36.8588542,162.450647 C40.338151,162.450647 43.1686198,165.276334 43.1686198,168.749364 L43.1686198,171.264639 L30.5494792,171.264639 Z M154,55.0058858 L139.267448,125.041289 L121.642839,125.401617 L135.349479,60.028637 L154,55.0058858 Z" id="path-4"></path>
        <linearGradient x1="-36.6511724%" y1="75.2455726%" x2="136.802897%" y2="36.2176652%" id="linearGradient-6">
            <stop stop-color="#FE7891" offset="0%"></stop>
            <stop stop-color="#FEBA85" offset="100%"></stop>
        </linearGradient>
    </defs>
    <g id="Symbols" stroke="none" stroke-width="1" fill="none" fill-rule="evenodd">
        <g id="element_crystal">
            <g>
                <g id="XMLID_2778_" transform="translate(2.734375, 14.428711)" fill-rule="nonzero">
                    <g id="XMLID_2649_">
                        <g id="XMLID_1724_" transform="translate(21.484375, 31.197213)">
                            <polygon id="XMLID_2466_" fill="#00F0F5" points="67.6667969 87.4582665 29.8371094 87.4582665 21.1589844 69.5034906 0.216796875 26.1662723 6.55039062 0.147406831 30.8980469 11.3850329 58.9886719 69.5034906"></polygon>
                            <polygon id="XMLID_2412_" fill="#00D2D7" points="67.6667969 87.4582665 48.7519531 87.4582665 18.8804687 25.6612674 26.2136719 16.9525655 30.8980469 11.3850329 43.1050781 36.6360569"></polygon>
                            <polygon id="XMLID_2385_" fill="#00B2BF" points="67.6667969 87.4582665 52.009375 87.4582665 43.1050781 36.6360569"></polygon>
                            <polygon id="XMLID_2402_" fill="#00B2BF" points="67.6652344 87.4582665 30.8972656 11.3854228 26.5027344 16.6070563 60.746875 87.4582665"></polygon>
                            <polygon id="XMLID_2388_" fill="#6CFFFF" points="36.0878906 87.4582665 6.71992187 26.6966249 12.5171875 2.90173076 6.55 0.14584697 0.215625 26.1647124 29.840625 87.4582665"></polygon>
                            <polygon id="XMLID_2153_" fill="#00B2BF" points="67.6667969 87.4582665 29.8371094 87.4582665 21.1589844 69.5034906 58.9886719 69.5034906"></polygon>
                        </g>
                        <g id="XMLID_2196_" transform="translate(62.109375, 0.000000)">
                            <polygon id="XMLID_2415_" fill="#00F0F5" points="50.9988281 116.393291 17.4421875 122.256418 13.6667969 100.700703 0.119140625 23.3998595 13.3253906 0.0908618824 33.6757812 17.5367333 48.2472656 100.700703"></polygon>
                            <polygon id="XMLID_2393_" fill="#00D2D7" points="51.0027344 116.393291 34.2183594 119.32466 33.5359375 115.432417 18.215625 27.9983286 27.6503906 21.613819 33.6757813 17.5367333 42.9457031 70.4280979"></polygon>
                            <polygon id="XMLID_2038_" fill="#00B2BF" points="51.0027344 116.393291 34.2183594 119.32466 33.5359375 115.432417 42.9457031 70.4280979"></polygon>
                            <polygon id="XMLID_2351_" fill="#00B2BF" points="28.021875 21.3626815 44.8632812 117.466476 51.0007812 116.394461 33.6765625 17.5363433"></polygon>
                            <polygon id="XMLID_2275_" fill="#6CFFFF" points="18.3128906 4.36799976 6.23203125 25.6807657 22.9863281 121.287354 17.4441406 122.255248 0.119921875 23.3971297 13.3257812 0.0912518476"></polygon>
                            <polygon id="XMLID_2035_" fill="#00B2BF" points="50.9988281 116.393291 17.4421875 122.256418 13.6667969 100.700703 48.2472656 100.700703"></polygon>
                        </g>
                        <g id="XMLID_1735_" transform="translate(9.375000, 105.680558)">
                            <polygon id="XMLID_2514_" fill="#FF6C9E" points="117.663281 17.9103199 117.663281 72.7152436 0.06171875 72.7152436 0.06171875 17.5652007 17.2984375 0.357598052 100.080859 0.357598052"></polygon>
                            <path d="M117.663281,17.9103199 L117.663281,72.7152436 L45.5617187,72.7152436 L45.5617187,43.8921387 C45.5617187,42.5822457 46.0800781,41.3300676 47.0054687,40.4062401 L64.4847656,22.9564691 C65.4101562,22.0326416 66.6644531,21.5151578 67.9722656,21.5151578 L83.8105469,21.5151578 L88.2359375,0.357598052 L100.080859,0.357598052 L117.663281,17.9103199 Z" id="XMLID_2498_" fill="#AFB9D2"></path>
                            <path d="M44.6691406,67.2748397 L44.6691406,72.7152436 L15.496875,72.7152436 L15.496875,67.2748397 C15.496875,59.2477968 22.0402344,52.7154904 30.0851562,52.7154904 C38.1257812,52.7154904 44.6691406,59.2481868 44.6691406,67.2748397 Z" id="XMLID_2392_" fill="#AFB9D2"></path>
                            <path d="M14.6457031,67.2748397 L14.6457031,72.7152436 L0.06171875,72.7152436 L0.06171875,52.7154904 C8.10234375,52.7154904 14.6457031,59.2481868 14.6457031,67.2748397 Z" id="XMLID_2150_" fill="#AFB9D2"></path>
                            <polygon id="XMLID_2101_" fill="#E4EAF6" points="117.662891 17.9110998 117.662891 25.4616053 97.8640625 5.69583113 19.5109375 5.69583113 0.061328125 25.1125864 0.061328125 17.5659807 17.2980469 0.358377982 100.080859 0.358377982"></polygon>
                        </g>
                        <path d="M48.6976562,178.395802 L48.6976562,172.955788 C48.6976562,167.861673 44.5609375,163.731942 39.4582031,163.731942 L39.4582031,163.731942 C34.3554688,163.731942 30.21875,167.861673 30.21875,172.955788 L30.21875,178.395802 L48.6976562,178.395802 Z" id="XMLID_3860_" fill="#E4EAF6"></path>
                        <path d="M18.6742187,178.395802 L18.6742187,172.955788 C18.6742187,167.861673 14.5375,163.731942 9.43476562,163.731942 L9.43476562,163.731942 C4.33203125,163.731942 0.1953125,167.861673 0.1953125,172.955788 L0.1953125,178.395802 L18.6742187,178.395802 Z" id="XMLID_3986_" fill="#E4EAF6"></path>
                        <g id="XMLID_575_" transform="translate(60.156250, 132.198189)">
                            <polygon id="XMLID_3867_" fill="url(#linearGradient-1)" points="0.125390625 46.1976127 0.125390625 17.5429727 17.3632812 0.334200143 116.596875 0.334200143 134.179297 17.886922 134.179297 46.1976127"></polygon>
                            <polygon id="XMLID_3864_" fill="#E4EAF6" points="134.179688 17.8877019 134.179688 25.4382073 114.380469 5.67282319 19.5765625 5.67282319 0.126953125 25.0895785 0.126953125 17.5429727 17.3636719 0.335370038 116.597266 0.335370038"></polygon>
                        </g>
                    </g>
                </g>
                <g id="XMLID_573_">
                    <path d="M39.2675781,143.399549 C40.8859375,143.399549 42.1972656,142.090436 42.1972656,140.47481 L42.1972656,140.089524 C42.1972656,138.473899 40.8859375,137.164786 39.2675781,137.164786 C37.6492188,137.164786 36.3378906,138.473899 36.3378906,140.089524 L36.3378906,140.47481 C36.3378906,142.090436 37.6496094,143.399549 39.2675781,143.399549 Z" id="XMLID_574_" fill="#FFFFFF" fill-rule="nonzero"></path>
                    <path d="M36.3378906,163.852831 C36.3378906,165.468457 37.6492188,166.77757 39.2675781,166.77757 C40.8859375,166.77757 42.1972656,165.468457 42.1972656,163.852831 L42.1972656,163.467546 C42.1972656,161.85192 40.8859375,160.542807 39.2675781,160.542807 C37.6492188,160.542807 36.3378906,161.85192 36.3378906,163.467546 L36.3378906,163.852831 Z" id="XMLID_579_" fill="#FFFFFF" fill-rule="nonzero"></path>
                    <path d="M31.565625,157.228883 L31.565625,156.843598 C31.565625,155.227972 30.2542969,153.918859 28.6359375,153.918859 C27.0175781,153.918859 25.70625,155.227972 25.70625,156.843598 L25.70625,157.228883 C25.70625,158.844509 27.0175781,160.153622 28.6359375,160.153622 C30.2542969,160.153622 31.565625,158.844509 31.565625,157.228883 Z" id="XMLID_580_" fill="#FFFFFF" fill-rule="nonzero"></path>
                    <path d="M50.7761719,160.153622 C52.3945312,160.153622 53.7058594,158.844509 53.7058594,157.228883 C53.7058594,155.613257 52.3945312,154.304144 50.7761719,154.304144 L45.840625,154.304144 C44.2222656,154.304144 42.9109375,155.613257 42.9109375,157.228883 C42.9109375,158.844509 44.2222656,160.153622 45.840625,160.153622 L50.7761719,160.153622 Z" id="XMLID_582_" fill="#FFFFFF" fill-rule="nonzero"></path>
                    <path d="M56.6824219,146.601163 L61.6179687,146.601163 C63.2363281,146.601163 64.5476563,145.29205 64.5476563,143.676424 C64.5476563,142.060798 63.2363281,140.751685 61.6179687,140.751685 L56.6824219,140.751685 C55.0640625,140.751685 53.7527344,142.060798 53.7527344,143.676424 C53.7527344,145.29205 55.0644531,146.601163 56.6824219,146.601163 Z" id="XMLID_584_" fill="#FFFFFF" fill-rule="nonzero"></path>
                    <g id="Rectangle" transform="translate(0.000000, 11.327058)">
                        <g id="XMLID_1699_" transform="translate(96.875000, 27.669458)"></g>
                        <g>
                            <mask id="mask-3" fill="white">
                                <use xlink:href="#path-2"></use>
                            </mask>
                            <g id="Mask" fill-rule="nonzero"></g>
                            <rect fill="#FFFFFF" fill-rule="nonzero" mask="url(#mask-3)" x="0" y="-11.3141892" width="202.666667" height="196.334459"></rect>
                        </g>
                    </g>
                    <g id="Rectangle" transform="translate(5.333333, 18.635135)">
                        <mask id="mask-5" fill="white">
                            <use xlink:href="#path-4"></use>
                        </mask>
                        <use id="Mask" fill="#000000" fill-rule="nonzero" xlink:href="#path-4"></use>
                        <polygon id="XMLID_2476_" fill="#00F0F5" fill-rule="nonzero" mask="url(#mask-5)" points="157.164714 48.3220479 142.37526 110.302204 138.036198 128.476882 91.7096354 128.476882 96.0486979 110.302204 112.77526 40.2219803 140.60651 20.6593143"></polygon>
                        <rect stroke="#979797" fill="url(#linearGradient-6)" mask="url(#mask-5)" x="-4.83333333" y="-18.1351351" width="199" height="196"></rect>
                    </g>
                    <path d="M154.335547,163.145435 C152.717188,163.145435 151.405859,164.454548 151.405859,166.070173 L151.405859,166.455459 C151.405859,168.071085 152.717188,169.380198 154.335547,169.380198 C155.953906,169.380198 157.265234,168.071085 157.265234,166.455459 L157.265234,166.070173 C157.265234,164.454548 155.953516,163.145435 154.335547,163.145435 Z" id="XMLID_597_" fill="#FFFFFF" fill-rule="nonzero"></path>
                    <path d="M184.408594,174.801883 L184.408594,174.416988 C184.408594,172.801362 183.097266,171.492249 181.478906,171.492249 C179.860547,171.492249 178.549219,172.801362 178.549219,174.416988 L178.549219,174.801883 C178.549219,176.417509 179.860547,177.726622 181.478906,177.726622 C183.097266,177.726622 184.408594,176.417119 184.408594,174.801883 Z" id="XMLID_598_" fill="#FFFFFF" fill-rule="nonzero"></path>
                    <path d="M76.553125,180.053154 L76.553125,180.43844 C76.553125,182.054065 77.8644531,183.363178 79.4828125,183.363178 C81.1011719,183.363178 82.4125,182.054065 82.4125,180.43844 L82.4125,180.053154 C82.4125,178.437528 81.1011719,177.128415 79.4828125,177.128415 C77.8644531,177.128415 76.553125,178.437918 76.553125,180.053154 Z" id="XMLID_599_" fill="#FFFFFF" fill-rule="nonzero"></path>
                    <path d="M96.6878906,177.514091 C95.0695312,177.514091 93.7582031,178.823204 93.7582031,180.43883 C93.7582031,182.054455 95.0695312,183.363568 96.6878906,183.363568 L101.623438,183.363568 C103.241797,183.363568 104.553125,182.054455 104.553125,180.43883 C104.553125,178.823204 103.241797,177.514091 101.623438,177.514091 L96.6878906,177.514091 Z" id="XMLID_600_" fill="#FFFFFF" fill-rule="nonzero"></path>
                    <path d="M108.078125,168.549182 C106.459766,168.549182 105.148438,169.858295 105.148438,171.473921 C105.148438,173.089546 106.459766,174.398659 108.078125,174.398659 L113.013281,174.398659 C114.631641,174.398659 115.942969,173.089546 115.942969,171.473921 C115.942969,169.858295 114.631641,168.549182 113.013281,168.549182 L108.078125,168.549182 Z" id="XMLID_601_" fill="#FFFFFF" fill-rule="nonzero"></path>
                    <path d="M141.174609,156.58895 C139.55625,156.58895 138.244922,157.898063 138.244922,159.513689 C138.244922,161.129315 139.55625,162.438428 141.174609,162.438428 L146.109766,162.438428 C147.728125,162.438428 149.039453,161.129315 149.039453,159.513689 C149.039453,157.898063 147.728125,156.58895 146.109766,156.58895 L141.174609,156.58895 Z" id="XMLID_602_" fill="#FFFFFF" fill-rule="nonzero"></path>
                    <path d="M178.771875,80.7122592 C180.390234,80.7122592 181.701562,79.4031461 181.701562,77.7875205 L181.701562,76.5657596 C181.701562,74.9501339 180.390234,73.6410209 178.771875,73.6410209 C177.153516,73.6410209 175.842187,74.9501339 175.842187,76.5657596 L175.842187,77.7875205 C175.842187,79.4031461 177.153906,80.7122592 178.771875,80.7122592 Z" id="XMLID_603_" fill="#FFFFFF" fill-rule="nonzero"></path>
                    <path d="M178.771875,85.9463715 C177.153516,85.9463715 175.842187,87.2554846 175.842187,88.8711102 L175.842187,90.0928711 C175.842187,91.7084968 177.153516,93.0176098 178.771875,93.0176098 C180.390234,93.0176098 181.701562,91.7084968 181.701562,90.0928711 L181.701562,88.8711102 C181.701562,87.2554846 180.390234,85.9463715 178.771875,85.9463715 Z" id="XMLID_604_" fill="#FFFFFF" fill-rule="nonzero"></path>
                    <path d="M184.323047,86.2540541 L185.546875,86.2540541 C187.165234,86.2540541 188.476562,84.944941 188.476562,83.3293154 C188.476562,81.7136897 187.165234,80.4045766 185.546875,80.4045766 L184.323047,80.4045766 C182.704688,80.4045766 181.393359,81.7136897 181.393359,83.3293154 C181.393359,84.944941 182.705078,86.2540541 184.323047,86.2540541 Z" id="XMLID_605_" fill="#FFFFFF" fill-rule="nonzero"></path>
                    <path d="M171.997266,86.2540541 L173.221094,86.2540541 C174.839453,86.2540541 176.150781,84.944941 176.150781,83.3293154 C176.150781,81.7136897 174.839453,80.4045766 173.221094,80.4045766 L171.997266,80.4045766 C170.378906,80.4045766 169.067578,81.7136897 169.067578,83.3293154 C169.067578,84.944941 170.378906,86.2540541 171.997266,86.2540541 Z" id="XMLID_606_" fill="#FFFFFF" fill-rule="nonzero"></path>
                    <path d="M134.895703,22.8862753 C136.514062,22.8862753 137.825391,21.5771623 137.825391,19.9615366 L137.825391,18.7401658 C137.825391,17.1245401 136.514062,15.815427 134.895703,15.815427 C133.277344,15.815427 131.966016,17.1245401 131.966016,18.7401658 L131.966016,19.9615366 C131.966016,21.5771623 133.277344,22.8862753 134.895703,22.8862753 Z" id="XMLID_607_" fill="#FFFFFF" fill-rule="nonzero"></path>
                    <path d="M134.895703,28.1207777 C133.277344,28.1207777 131.966016,29.4298907 131.966016,31.0455164 L131.966016,32.2672772 C131.966016,33.8829029 133.277344,35.1920159 134.895703,35.1920159 C136.514062,35.1920159 137.825391,33.8829029 137.825391,32.2672772 L137.825391,31.0455164 C137.825391,29.4298907 136.514062,28.1207777 134.895703,28.1207777 Z" id="XMLID_608_" fill="#FFFFFF" fill-rule="nonzero"></path>
                    <path d="M140.447266,28.4284602 L141.671094,28.4284602 C143.289453,28.4284602 144.600781,27.1193472 144.600781,25.5037215 C144.600781,23.8880958 143.289453,22.5789828 141.671094,22.5789828 L140.447266,22.5789828 C138.828906,22.5789828 137.517578,23.8880958 137.517578,25.5037215 C137.517578,27.1193472 138.828906,28.4284602 140.447266,28.4284602 Z" id="XMLID_609_" fill="#FFFFFF" fill-rule="nonzero"></path>
                    <path d="M128.120703,28.4284602 L129.344531,28.4284602 C130.962891,28.4284602 132.274219,27.1193472 132.274219,25.5037215 C132.274219,23.8880958 130.962891,22.5789828 129.344531,22.5789828 L128.120703,22.5789828 C126.502344,22.5789828 125.191016,23.8880958 125.191016,25.5037215 C125.191016,27.1193472 126.502734,28.4284602 128.120703,28.4284602 Z" id="XMLID_610_" fill="#FFFFFF" fill-rule="nonzero"></path>
                    <path d="M57.6710937,7.08410711 C59.2894531,7.08410711 60.6007812,5.77499406 60.6007812,4.1593684 L60.6007812,2.93760755 C60.6007812,1.32198189 59.2894531,0.0128688503 57.6710937,0.0128688503 C56.0527344,0.0128688503 54.7414062,1.32198189 54.7414062,2.93760755 L54.7414062,4.1593684 C54.7414062,5.7746041 56.0527344,7.08410711 57.6710937,7.08410711 Z" id="XMLID_611_" fill="#FFFFFF" fill-rule="nonzero"></path>
                    <path d="M57.6710937,19.3890678 C59.2894531,19.3890678 60.6007812,18.0799547 60.6007812,16.4643291 L60.6007812,15.2429582 C60.6007812,13.6273325 59.2894531,12.3182195 57.6710937,12.3182195 C56.0527344,12.3182195 54.7414062,13.6273325 54.7414062,15.2429582 L54.7414062,16.4643291 C54.7414062,18.0799547 56.0527344,19.3890678 57.6710937,19.3890678 Z" id="XMLID_612_" fill="#FFFFFF" fill-rule="nonzero"></path>
                    <path d="M63.2222656,12.625512 L64.4460937,12.625512 C66.0644531,12.625512 67.3757812,11.316399 67.3757812,9.70077333 C67.3757812,8.08514767 66.0644531,6.77603463 64.4460937,6.77603463 L63.2222656,6.77603463 C61.6039062,6.77603463 60.2925781,8.08514767 60.2925781,9.70077333 C60.2925781,11.316399 61.6039062,12.625512 63.2222656,12.625512 Z" id="XMLID_613_" fill="#FFFFFF" fill-rule="nonzero"></path>
                    <path d="M50.8960937,12.625512 L52.1199219,12.625512 C53.7382812,12.625512 55.0496094,11.316399 55.0496094,9.70077333 C55.0496094,8.08514767 53.7382812,6.77603463 52.1199219,6.77603463 L50.8960937,6.77603463 C49.2777344,6.77603463 47.9664062,8.08514767 47.9664062,9.70077333 C47.9664062,11.316399 49.2777344,12.625512 50.8960937,12.625512 Z" id="XMLID_614_" fill="#FFFFFF" fill-rule="nonzero"></path>
                    <path d="M16.1933594,88.9849801 C17.8117188,88.9849801 19.1230469,87.675867 19.1230469,86.0602414 L19.1230469,84.8384805 C19.1230469,83.2228549 17.8117188,81.9137418 16.1933594,81.9137418 C14.575,81.9137418 13.2636719,83.2228549 13.2636719,84.8384805 L13.2636719,86.0602414 C13.2636719,87.675867 14.5753906,88.9849801 16.1933594,88.9849801 Z" id="XMLID_615_" fill="#FFFFFF" fill-rule="nonzero"></path>
                    <path d="M16.1933594,94.2190925 C14.575,94.2190925 13.2636719,95.5282055 13.2636719,97.1438312 L13.2636719,98.365592 C13.2636719,99.9812177 14.575,101.290331 16.1933594,101.290331 C17.8117188,101.290331 19.1230469,99.9812177 19.1230469,98.365592 L19.1230469,97.1438312 C19.1230469,95.5282055 17.8117188,94.2190925 16.1933594,94.2190925 Z" id="XMLID_616_" fill="#FFFFFF" fill-rule="nonzero"></path>
                    <path d="M21.7449219,94.526775 L22.96875,94.526775 C24.5871094,94.526775 25.8984375,93.2176619 25.8984375,91.6020363 C25.8984375,89.9864106 24.5871094,88.6772976 22.96875,88.6772976 L21.7449219,88.6772976 C20.1265625,88.6772976 18.8152344,89.9864106 18.8152344,91.6020363 C18.8152344,93.2176619 20.1265625,94.526775 21.7449219,94.526775 Z" id="XMLID_617_" fill="#FFFFFF" fill-rule="nonzero"></path>
                    <path d="M9.41835937,94.526775 L10.6421875,94.526775 C12.2605469,94.526775 13.571875,93.2176619 13.571875,91.6020363 C13.571875,89.9864106 12.2605469,88.6772976 10.6421875,88.6772976 L9.41835937,88.6772976 C7.8,88.6772976 6.48867187,89.9864106 6.48867187,91.6020363 C6.48867187,93.2176619 7.80039062,94.526775 9.41835937,94.526775 Z" id="XMLID_618_" fill="#FFFFFF" fill-rule="nonzero"></path>
                    <path d="M45.3777344,27.7276928 C46.9960938,27.7276928 48.3074219,26.4185798 48.3074219,24.8029541 L48.3074219,23.5811933 C48.3074219,21.9655676 46.9960938,20.6564546 45.3777344,20.6564546 C43.759375,20.6564546 42.4480469,21.9655676 42.4480469,23.5811933 L42.4480469,24.8029541 C42.4480469,26.4185798 43.759375,27.7276928 45.3777344,27.7276928 Z" id="XMLID_619_" fill="#FFFFFF" fill-rule="nonzero"></path>
                    <path d="M45.3777344,32.9618052 C43.759375,32.9618052 42.4480469,34.2709182 42.4480469,35.8865439 L42.4480469,37.1083047 C42.4480469,38.7239304 43.759375,40.0330434 45.3777344,40.0330434 C46.9960938,40.0330434 48.3074219,38.7239304 48.3074219,37.1083047 L48.3074219,35.8865439 C48.3074219,34.2709182 46.9960938,32.9618052 45.3777344,32.9618052 Z" id="XMLID_620_" fill="#FFFFFF" fill-rule="nonzero"></path>
                    <path d="M50.9289062,33.2694877 L52.1527344,33.2694877 C53.7710937,33.2694877 55.0824219,31.9603747 55.0824219,30.344749 C55.0824219,28.7291233 53.7710937,27.4200103 52.1527344,27.4200103 L50.9289062,27.4200103 C49.3105469,27.4200103 47.9992187,28.7291233 47.9992187,30.344749 C47.9992187,31.9603747 49.3105469,33.2694877 50.9289062,33.2694877 Z" id="XMLID_623_" fill="#FFFFFF" fill-rule="nonzero"></path>
                    <path d="M38.6027344,33.2694877 L39.8265625,33.2694877 C41.4449219,33.2694877 42.75625,31.9603747 42.75625,30.344749 C42.75625,28.7291233 41.4449219,27.4200103 39.8265625,27.4200103 L38.6027344,27.4200103 C36.984375,27.4200103 35.6730469,28.7291233 35.6730469,30.344749 C35.6730469,31.9603747 36.9847656,33.2694877 38.6027344,33.2694877 Z" id="XMLID_624_" fill="#FFFFFF" fill-rule="nonzero"></path>
                </g>
            </g>
        </g>
    </g>
</svg>