<?xml version="1.0" encoding="UTF-8"?>
<svg width="22px" height="22px" viewBox="0 0 22 22" version="1.1" xmlns="http://www.w3.org/2000/svg" xmlns:xlink="http://www.w3.org/1999/xlink">
    <!-- Generator: Sketch 55 (78076) - https://sketchapp.com -->
    <title>ic_fb</title>
    <desc>Created with Sketch.</desc>
    <g id="GTG" stroke="none" stroke-width="1" fill="none" fill-rule="evenodd">
        <g id="one-page" transform="translate(-1153.000000, -199.000000)">
            <g id="ic_sns" transform="translate(1154.000000, 200.000000)">
                <g id="ic_fb">
                    <g>
                        <circle id="Oval" stroke="#FFFFFF" cx="10" cy="10" r="10"></circle>
                        <g id="facebook-logo" transform="translate(6.000000, 4.000000)" fill="#FFFFFF" fill-rule="nonzero">
                            <path d="M7.69874348,0.00332906797 L5.77990725,0 C3.62416056,0 2.23102234,1.5455198 2.23102234,3.93762159 L2.23102234,5.7531288 L0.301718332,5.7531288 C0.13500356,5.7531288 0,5.89927489 0,6.07954392 L0,8.71000697 C0,8.890276 0.135157498,9.03625563 0.301718332,9.03625563 L2.23102234,9.03625563 L2.23102234,15.6737513 C2.23102234,15.8540204 2.3660259,16 2.53274067,16 L5.04993361,16 C5.21664839,16 5.35165195,15.8538539 5.35165195,15.6737513 L5.35165195,9.03625563 L7.60745829,9.03625563 C7.77417306,9.03625563 7.90917662,8.890276 7.90917662,8.71000697 L7.91010025,6.07954392 C7.91010025,5.99298815 7.8782351,5.91009436 7.82173988,5.84883951 C7.76524467,5.78758466 7.6882757,5.7531288 7.60822798,5.7531288 L5.35165195,5.7531288 L5.35165195,4.21410068 C5.35165195,3.47438178 5.51467221,3.09886292 6.40581885,3.09886292 L7.69843561,3.09836356 C7.86499644,3.09836356 8,2.95221747 8,2.77211489 L8,0.329577729 C8,0.149641605 7.86515038,0.00366197476 7.69874348,0.00332906797 Z" id="Path"></path>
                        </g>
                    </g>
                </g>
            </g>
        </g>
    </g>
</svg>