<?xml version="1.0" encoding="UTF-8"?>
<svg width="22px" height="22px" viewBox="0 0 22 22" version="1.1" xmlns="http://www.w3.org/2000/svg" xmlns:xlink="http://www.w3.org/1999/xlink">
    <!-- Generator: Sketch 55 (78076) - https://sketchapp.com -->
    <title>ic_github</title>
    <desc>Created with Sketch.</desc>
    <defs>
        <path d="M9.79785877,10.7515618 C10.4924677,10.6268597 10.9807063,10.5256137 11.2625743,10.4478239 C12.0644764,10.2265155 12.6309884,9.94967041 12.9621105,9.61728869 C13.3354385,9.24254038 13.6068592,8.89848342 13.8103585,8.52082669 C14.0203457,8.13112936 14.1580115,7.70565563 14.2606969,7.17376698 C14.3444226,6.74008581 14.3789171,6.3523256 14.3822702,6.00263575 C14.3870148,5.50782191 14.3294066,5.08923432 14.2606969,4.72463068 C14.2138234,4.47589911 14.0599946,4.16114562 13.8885924,3.86839027 C13.6311833,3.428735 13.3341397,3.03869337 13.3002023,2.99639434 C13.2436669,2.92592944 13.6029437,2.26105276 13.5674621,1.6854768 C13.5438077,1.30175949 13.431905,0.823088515 13.231754,0.249463869 C12.9805912,0.0722251014 12.4740471,0.197020049 11.7121216,0.623848713 C10.5692334,1.26409171 10.7040766,1.33944914 10.3813973,1.30114736 C10.197855,1.27936104 9.70306442,1.15888261 9.14705203,1.06599869 C8.7255584,0.995586629 8.26888288,0.941032105 7.88594498,0.957349598 C7.53947324,0.972113219 7.21784731,1.00536395 6.9372172,1.0429496 C6.49852551,1.10170491 6.16001587,1.17105349 5.9833831,1.19693244 C5.79030019,1.22522153 5.62653012,1.25995984 5.49207289,1.30114736 C5.08537993,1.07510604 4.80173573,0.919181986 4.6411403,0.833375217 C4.14196493,0.566663847 3.82636065,0.416807702 3.69432747,0.383806779 C3.40070241,0.310416909 2.8405386,0.0984623123 2.73448747,0.249463869 C2.6805666,0.326239432 2.61555734,0.49105427 2.56256255,0.688309574 C2.51132761,0.879014408 2.47132245,1.10004091 2.46342391,1.30114736 C2.45603823,1.48919582 2.46882998,1.79131572 2.49386598,2.07966105 C2.52329863,2.41864355 2.61041398,2.64378103 2.62004144,2.83177541 C2.62966889,3.0197698 2.55589908,3.18796879 2.31382401,3.48375817 C2.17290931,3.65594058 1.672136,4.87387432 1.59914292,5.77846717 C1.52614984,6.68306003 1.62226671,7.12329264 1.8041853,7.84032124 C1.96207212,8.46262905 2.2696882,8.80359421 2.62004144,9.18521321 C2.94295718,9.53694617 3.35063617,9.83331298 3.75092481,10.064135 C4.28534127,10.3723004 4.80658493,10.5636366 5.09535911,10.6139218 C5.43207367,10.672555 5.78967227,10.718435 6.1681549,10.7515618 C5.87563264,11.1150507 5.69749709,11.4440122 5.63374825,11.7384461 C5.53812499,12.1800971 5.61848369,12.2534943 4.94560364,12.3221911 C4.59955976,12.3575201 4.23174051,12.355201 3.89167554,12.2855328 C3.57048641,12.2197317 3.27405597,12.0938506 3.04411552,11.8828648 C2.7986143,11.6576009 2.57388834,11.2763401 2.31776573,10.9488324 C2.0800132,10.6448147 1.81520628,10.387116 1.48161305,10.3435139 C1.31017146,10.3211057 1.16548351,10.3008367 1.04840391,10.2893981 C0.69225132,10.2546022 0.591574705,10.3015201 0.770432802,10.6185082 C0.894451466,10.838305 1.07941624,10.914558 1.27210489,11.0245761 C1.4486623,11.1253838 1.63170448,11.2545398 1.78028818,11.5484457 C1.94520673,11.8746628 2.03117069,12.2838617 2.22622423,12.6417545 C2.39869445,12.9582103 2.6564558,13.2345528 3.12950749,13.3779457 C3.46931254,13.4809484 3.77025246,13.5474186 4.03109374,13.5888271 C4.54404831,13.6702585 4.9019304,13.6547693 5.09535911,13.6295962 C5.2898849,13.6042803 5.4263901,13.5767304 5.50487472,13.5469464 L5.50487472,14.332294 L5.50487472,15.156158 C5.8648267,15.4396514 6.69228209,15.5730761 7.98724088,15.5564321 C9.92967907,15.5314661 10.1459103,15.2930217 10.2785597,15.2408941 C10.3669926,15.2061423 10.4344686,15.1850332 10.4809875,15.1775665 C10.4640035,14.1851053 10.4485728,13.5082868 10.4346956,13.1471108 C10.3987282,12.2110055 10.3466829,11.6781172 10.2785597,11.5484457 C10.225866,11.4481441 10.1605252,11.3332209 10.0825375,11.2036761 C10.0284128,11.1137702 9.93351992,10.9630654 9.79785877,10.7515618 Z" id="path-1"></path>
    </defs>
    <g id="GTG" stroke="none" stroke-width="1" fill="none" fill-rule="evenodd">
        <g id="one-page" transform="translate(-1153.000000, -259.000000)">
            <g id="ic_sns" transform="translate(1154.000000, 200.000000)">
                <g id="ic_github" transform="translate(0.000000, 60.000000)">
                    <g>
                        <g id="github-logo" transform="translate(2.000000, 4.000000)">
                            <mask id="mask-2" fill="white">
                                <use xlink:href="#path-1"></use>
                            </mask>
                            <use id="Path-3" fill="#FFFFFF" xlink:href="#path-1"></use>
                        </g>
                        <circle id="Oval" stroke="#FFFFFF" cx="10" cy="10" r="10"></circle>
                    </g>
                </g>
            </g>
        </g>
    </g>
</svg>