<?xml version="1.0" encoding="UTF-8"?>
<svg width="22px" height="22px" viewBox="0 0 22 22" version="1.1" xmlns="http://www.w3.org/2000/svg" xmlns:xlink="http://www.w3.org/1999/xlink">
    <!-- Generator: Sketch 55 (78076) - https://sketchapp.com -->
    <title>ic_insta</title>
    <desc>Created with Sketch.</desc>
    <g id="GTG" stroke="none" stroke-width="1" fill="none" fill-rule="evenodd">
        <g id="one-page" transform="translate(-1153.000000, -229.000000)">
            <g id="ic_sns" transform="translate(1154.000000, 200.000000)">
                <g id="ic_insta" transform="translate(0.000000, 30.000000)">
                    <g>
                        <circle id="Oval" stroke="#FFFFFF" cx="10" cy="10" r="10"></circle>
                        <g id="instagram" transform="translate(4.000000, 4.000000)" fill="#FFFFFF" fill-rule="nonzero">
                            <path d="M8.42513529,0 L3.57486471,0 C1.603676,0 0,1.603676 0,3.57486471 L0,8.42513529 C0,10.396324 1.603676,12 3.57486471,12 L8.42513529,12 C10.396324,12 12,10.396324 12,8.42513529 L12,3.57486471 C11.9999782,1.603676 10.3963022,0 8.42513529,0 Z M10.7928004,8.42513529 C10.7928004,9.7327497 9.7327497,10.7928004 8.42513529,10.7928004 L3.57486471,10.7928004 C2.2672503,10.7928004 1.20719956,9.7327497 1.20719956,8.42513529 L1.20719956,3.57486471 C1.20719956,2.26722852 2.2672503,1.20719956 3.57486471,1.20719956 L8.42513529,1.20719956 C9.7327497,1.20719956 10.7928004,2.26722852 10.7928004,3.57486471 L10.7928004,8.42513529 L10.7928004,8.42513529 Z" id="Shape"></path>
                            <path d="M6,3 C4.34579734,3 3,4.34580207 3,5.99998947 C3,7.65417688 4.34579734,9 6,9 C7.65420266,9 9,7.65419793 9,5.99998947 C9,4.34578101 7.65420266,3 6,3 Z M6,7.83312459 C4.98759446,7.83312459 4.16689237,7.01241961 4.16689237,6.00001053 C4.16689237,4.98760144 4.98761551,4.16689646 6,4.16689646 C7.01240554,4.16689646 7.83310763,4.98760144 7.83310763,6.00001053 C7.83310763,7.01239856 7.01238449,7.83312459 6,7.83312459 Z" id="Shape"></path>
                            <circle id="Oval" cx="9.3" cy="2.7" r="1"></circle>
                        </g>
                    </g>
                </g>
            </g>
        </g>
    </g>
</svg>