<svg xmlns="http://www.w3.org/2000/svg" width="727" height="599" viewBox="0 0 727 599">
    <defs>
        <linearGradient id="a" x1="0%" y1="50%" y2="50%">
            <stop offset="0%" stop-color="#183866"/>
            <stop offset="100%" stop-color="#1A7FC1"/>
        </linearGradient>
        <linearGradient id="b" x1="-.13%" y1="50.057%" y2="50.057%">
            <stop offset="0%"/>
            <stop offset="99%" stop-opacity="0"/>
        </linearGradient>
        <linearGradient id="c" x1="176.072%" x2="310.393%" y1="-511.697%" y2="-483.06%">
            <stop offset="0%"/>
            <stop offset="99%" stop-opacity="0"/>
        </linearGradient>
        <linearGradient id="d" x1="55.889%" x2="51.497%" y1="-257.998%" y2="-277.344%">
            <stop offset="0%"/>
            <stop offset="99%" stop-opacity="0"/>
        </linearGradient>
        <linearGradient id="e" x1="156.099%" x2="8.109%" y1="-69.444%" y2="-82.985%">
            <stop offset="0%"/>
            <stop offset="99%" stop-opacity="0"/>
        </linearGradient>
        <linearGradient id="f" x1="2090.399%" x2="1915.24%" y1="-16584.906%" y2="-16647.547%">
            <stop offset="0%"/>
            <stop offset="99%" stop-opacity="0"/>
        </linearGradient>
        <linearGradient id="g" x1="241.391%" x2="133.142%" y1="-447.346%" y2="-432.868%">
            <stop offset="0%"/>
            <stop offset="99%" stop-opacity="0"/>
        </linearGradient>
        <linearGradient id="h" x1="106.85%" x2="-37.262%" y1="22.545%" y2="19.286%">
            <stop offset="0%"/>
            <stop offset="99%" stop-opacity="0"/>
        </linearGradient>
        <linearGradient id="i" x1="14.169%" x2="114.168%" y1="-41.335%" y2="-41.335%">
            <stop offset="0%" stop-color="#183866"/>
            <stop offset="100%" stop-color="#1A7FC1"/>
        </linearGradient>
        <linearGradient id="j" x1="40.386%" x2="71.43%" y1="38.839%" y2="69.136%">
            <stop offset="0%"/>
            <stop offset="99%" stop-opacity="0"/>
        </linearGradient>
        <linearGradient id="k" x1="-12.531%" x2="93.689%" y1="44.43%" y2="53.752%">
            <stop offset="0%"/>
            <stop offset="99%" stop-opacity="0"/>
        </linearGradient>
        <linearGradient id="l" x1="53.702%" x2="43.721%" y1="43.072%" y2="77.423%">
            <stop offset="0%"/>
            <stop offset="99%" stop-opacity="0"/>
        </linearGradient>
        <linearGradient id="m" x1="190.926%" x2="102.154%" y1="-324.623%" y2="-326.365%">
            <stop offset="0%"/>
            <stop offset="99%" stop-opacity="0"/>
        </linearGradient>
        <linearGradient id="n" x1="168.578%" x2="111.53%" y1="-129.128%" y2="-129.829%">
            <stop offset="0%"/>
            <stop offset="99%" stop-opacity="0"/>
        </linearGradient>
        <linearGradient id="o" x1="56.989%" x2="28.128%" y1="43.939%" y2="68.953%">
            <stop offset="0%"/>
            <stop offset="99%" stop-opacity="0"/>
        </linearGradient>
        <linearGradient id="p" x1="61.294%" x2="54.333%" y1="-77.558%" y2="22.95%">
            <stop offset="0%"/>
            <stop offset="99%" stop-opacity="0"/>
        </linearGradient>
        <linearGradient id="q" x1="64.749%" x2="63.139%" y1="-1473.571%" y2="-1370.204%">
            <stop offset="0%"/>
            <stop offset="99%" stop-opacity="0"/>
        </linearGradient>
        <linearGradient id="r" x1="51.131%" x2="59.861%" y1="-86.417%" y2="-1.872%">
            <stop offset="0%"/>
            <stop offset="99%" stop-opacity="0"/>
        </linearGradient>
        <linearGradient id="s" x1="-.04%" x2="99.996%" y1="49.993%" y2="49.993%">
            <stop offset="0%" stop-color="#ECC4D7"/>
            <stop offset="42%" stop-color="#EFD4D1"/>
            <stop offset="100%" stop-color="#F2EAC9"/>
        </linearGradient>
        <linearGradient id="t" x1="99.032%" x2="199.03%" y1="-163.287%" y2="-163.287%">
            <stop offset="0%" stop-color="#ECC4D7"/>
            <stop offset="42%" stop-color="#EFD4D1"/>
            <stop offset="100%" stop-color="#F2EAC9"/>
        </linearGradient>
        <linearGradient id="u" x1="124.306%" x2="224.306%" y1="-84.564%" y2="-84.564%">
            <stop offset="0%" stop-color="#ECC4D7"/>
            <stop offset="42%" stop-color="#EFD4D1"/>
            <stop offset="100%" stop-color="#F2EAC9"/>
        </linearGradient>
        <linearGradient id="v" x1="128.89%" x2="23.001%" y1="99.902%" y2="152.686%">
            <stop offset="0%"/>
            <stop offset="99%" stop-opacity="0"/>
        </linearGradient>
        <linearGradient id="w" x1="77.236%" x2="46.974%" y1="39.803%" y2="172.446%">
            <stop offset="0%"/>
            <stop offset="99%" stop-opacity="0"/>
        </linearGradient>
        <linearGradient id="x" x1="3990.942%" x2="3874.36%" y1="-27775.669%" y2="-27810.683%">
            <stop offset="0%"/>
            <stop offset="99%" stop-opacity="0"/>
        </linearGradient>
    </defs>
    <g fill="none" fill-rule="evenodd" transform="translate(-1)">
        <path fill="#FE7891" fill-rule="nonzero" d="M538.73 103.94C516.55 78.71 499.38 48.59 472.87 28 431.23-4.41 371.3-7.57 322.61 12.79s-86.62 61.4-111.62 107.87c-13.15 24.45-23.48 51.12-42.75 71.1-16.29 16.88-37.7 27.65-58 39.38-32.73 18.86-64.25 41.65-85.43 72.92C3.63 335.33-5.84 376.4 7.7 411.64c9.13 23.78 27.52 42.7 46.36 59.83 22.17 20.14 46 39 73.5 51 34.43 14.93 72.65 18.14 110.13 19.66a1414.92 1414.92 0 0 0 199.16-6c54.18-5.46 110-14.78 155.33-44.95 63.5-42.25 96.24-119.66 103.61-195.57 3-30.36 2.24-61.91-9.48-90.08-28.03-67.38-103.66-51.62-147.58-101.59z" opacity=".18"/>
        <path fill="#3F3D56" fill-rule="nonzero" d="M269.85 239.22s-25.13-4.42-32.17 13c-7.04 17.42 0 77.58 0 77.58l93.76 66.38-61.59-156.96z"/>
        <path fill="#FE7891" fill-rule="nonzero" d="M387.99 507.15l-36.37 10.77c-5.284 1.55-10.828-1.462-12.4-6.74-1.55-5.284 1.462-10.828 6.74-12.4L382.28 488c5.281-1.552 10.823 1.456 12.4 6.73 1.568 5.276-1.422 10.826-6.69 12.42z"/>
        <circle cx="385.94" cy="530.18" r="16.76" fill="#25233A" fill-rule="nonzero"/>
        <circle cx="382.92" cy="531.71" r="8.38" fill="#3F3D56" fill-rule="nonzero"/>
        <circle cx="318.75" cy="513.62" r="16.76" fill="#25233A" fill-rule="nonzero"/>
        <path fill="url(#a)" fill-rule="nonzero" d="M324.12 515.13a8.38 8.38 0 1 1-16.76 0 8.38 8.38 0 0 1 16.76 0z"/>
        <circle cx="313.9" cy="536.54" r="16.76" fill="#25233A" fill-rule="nonzero"/>
        <path fill="#3F3D56" fill-rule="nonzero" d="M327.14 537.1a8.38 8.38 0 1 1-16.76 0 8.38 8.38 0 0 1 16.76 0z"/>
        <path fill="#FE7891" fill-rule="nonzero" d="M389.31 523.59l-76.65-15.47c-5.394-1.104-8.88-6.361-7.8-11.76 1.104-5.39 6.355-8.875 11.75-7.8L393.26 504c5.394 1.104 8.88 6.361 7.8 11.76-1.09 5.402-6.345 8.903-11.75 7.83z"/>
        <path fill="#FE7891" fill-rule="nonzero" d="M342.06 403.17h20.93v88.15c0 5.777-4.683 10.46-10.46 10.46-5.777 0-10.46-4.683-10.46-10.46v-88.15h-.01z"/>
        <path fill="#FE7891" fill-rule="nonzero" d="M349.57 517.8l-36.36 10.79c-5.287 1.557-10.838-1.457-12.41-6.74-1.55-5.284 1.462-10.828 6.74-12.4l36.36-10.76c5.281-1.552 10.823 1.456 12.4 6.73 1.539 5.275-1.466 10.803-6.73 12.38z"/>
        <path fill="url(#b)" fill-rule="nonzero" d="M355.59 516.73l-4 1.19a9.94 9.94 0 0 1-3.68.37l1.67-.49a9.74 9.74 0 0 0 3.21-1.63l2.8.56z"/>
        <path fill="url(#c)" fill-rule="nonzero" d="M395.1 497.59a9.93 9.93 0 0 1-2.26 6.3l-31.8-6.43a10.29 10.29 0 0 0 1.7-3.64l19.59-5.8a10 10 0 0 1 12.77 9.57z"/>
        <path fill="url(#d)" fill-rule="nonzero" d="M342.33 493.7a10.59 10.59 0 0 1-.27-2.38v-88.15h7.27v95a3.48 3.48 0 0 0 .07 1.4 9.47 9.47 0 0 0-3.48-.77 17.94 17.94 0 0 0-2.54 0l.52-.15c.32-.06-1.15-3.15-1.57-4.95z" opacity=".31"/>
        <path fill="url(#e)" fill-rule="nonzero" d="M396.04 522.51a9.82 9.82 0 0 1-4.77 1.23 10.36 10.36 0 0 1-2-.2l-33.72-6.81-2.81-.56a9.74 9.74 0 0 1-3.21 1.63l-1.67.49-34.65 10.3c-5.287 1.557-10.838-1.457-12.41-6.74a8.54 8.54 0 0 0 10.87.62c4.23-2.93 21.07-7.33 30.61-9.67a11.72 11.72 0 0 0 8.8-9.27 6.69 6.69 0 0 1 .12-.8c1.59 1.72 4.51 3.65 9.79 5.29 13 4 34.11 6.65 34.11 6.65s3.81 3.74.94 7.84z" opacity=".31"/>
        <path fill="url(#f)" fill-rule="nonzero" d="M399.66 519.15a9.82 9.82 0 0 1-2.49 2.65c.67-.69 1.53-1.61 2.49-2.65z"/>
        <path fill="url(#g)" fill-rule="nonzero" d="M342.33 493.7a10.4 10.4 0 0 0 2.52 4.74c-.31.06-.63.14-.95.23L312.38 508a10 10 0 0 1 2.24-19.69 10.36 10.36 0 0 1 2 .2l25.71 5.19z"/>
        <path fill="#3F3D56" fill-rule="nonzero" d="M390.89 69.09s-.41-31.08-25.32-28.4c-24.91 2.68-23-7.61-33.64-6.48s-23 11.63-19.45 24.6c3.55 12.97-9.39 15.87-17.89 25.71-8.5 9.84 2 17.89 16.32 27.51 14.32 9.62-.89 7.13 7.6 22.34s37.23-4.22 37.23-4.22l35.15-61.06z"/>
        <path fill="#FE7891" fill-rule="nonzero" d="M187.7 589.1l17.67.6V448.59s.89-36.49 35.33-40.15c34.44-3.66 346.78-48.87 346.78-48.87s12.38-1.31 19.51 22.43c7.13 23.74 14.07 117.09 14.07 117.09L716.93 512s2.53-164.9-32.09-174c-34.62-9.1-487.37 37.27-487.37 37.27s-33.58 175.14-9.77 213.83z"/>
        <path fill="url(#h)" fill-rule="nonzero" d="M187.7 589.1l17.67.6V448.59s.89-36.49 35.33-40.15c34.44-3.66 346.78-48.87 346.78-48.87s12.38-1.31 19.51 22.43c7.13 23.74 14.07 117.09 14.07 117.09L716.93 512s2.53-164.9-32.09-174c-34.62-9.1-487.37 37.27-487.37 37.27s-33.58 175.14-9.77 213.83z"/>
        <path fill="#FE7891" fill-rule="nonzero" d="M94.46 392.59s8.66-47.92 69.57-60.48l429.96-49.26s42.21-1.75 61.52 9.94c19.31 11.69 46.87 21.38 58.17 74.28 11.3 52.9 14 143.27 14 143.27L716.99 512s-15.6-163.64-32.13-174c-16.53-10.36-463.46 53.2-463.46 53.2s-31 6.17-33.7 52.11c-2.7 45.94 0 145.78 0 145.78l-93.24-37.64V392.59z"/>
        <path fill="url(#i)" fill-rule="nonzero" d="M536.81 301.29c-22.25-2.9-44.68-5-67.1-4.15-16.85.66-33.59 3-50.3 5.33l-147.37 20.61c-2.5.35-5.35.92-6.6 3.12-2.4 4.2 3.24 8.34 7.81 9.94 49 17.18 101.35 34.58 151.79 22.33 23.06-5.6 44.48-17.23 67.87-21.27 23.39-4.04 47.4-.32 70.74-4.13 21.94-3.58 42.83-13.75 65.07-13.85 6.82 0 13.84.88 20.31-1.28 6.47-2.16 12.19-8.76 10.4-15.34-20.88-.73-44.32-4.59-64.8-.4-20.27 4.14-37.52-.91-57.82-.91z" opacity=".19"/>
        <path fill="#FE7891" fill-rule="nonzero" d="M403.54 326.41l.86 3.29s25.46 15.83 25.3 16.34c-.16.51 105.61-25.27 105.61-25.27l2.46-7.4-134.23 13.04z"/>
        <path fill="url(#j)" fill-rule="nonzero" d="M403.54 326.41l.86 3.29s25.46 15.83 25.3 16.34c-.16.51 105.61-25.27 105.61-25.27l2.46-7.4-134.23 13.04z"/>
        <path fill="#FE7891" fill-rule="nonzero" d="M405.92 326.41l93.04-20.97 38.79 7.93-105.7 26.59z"/>
        <path fill="url(#k)" fill-rule="nonzero" d="M405.92 326.41l93.04-20.97 38.79 7.93-105.7 26.59z"/>
        <path fill="#FE7891" fill-rule="nonzero" d="M376.63 343l22.09.74s5.61.33 7.06-3.93c1.45-4.26-9-13.25-10.12-13.42-1.12-.17-30.19 7.55-26 15.27l6.97 1.34z"/>
        <path fill="url(#l)" fill-rule="nonzero" d="M376.63 343l22.09.74s5.61.33 7.06-3.93c1.45-4.26-9-13.25-10.12-13.42-1.12-.17-30.19 7.55-26 15.27l6.97 1.34z"/>
        <path fill="#FE7891" fill-rule="nonzero" d="M121.3 560.59l-10.75 32.64c-31.18 11.07-57.69 0-57.69 0L45.15 559s38.89 12.89 76.15 1.59z"/>
        <path fill="url(#m)" fill-rule="nonzero" d="M121.3 560.59l-10.75 32.64c-31.18 11.07-57.69 0-57.69 0L45.15 559s38.89 12.89 76.15 1.59z"/>
        <path fill="#FE7891" fill-rule="nonzero" d="M133.49 530.2l-3.45 25.8-8.74 4.58C84.07 571.88 45.15 559 45.15 559l-6.71-5-3.13-23.8h98.18z"/>
        <path fill="url(#n)" fill-rule="nonzero" d="M133.49 530.2l-3.45 25.8-8.74 4.58C84.07 571.88 45.15 559 45.15 559l-6.71-5-3.13-23.8h98.18z"/>
        <ellipse cx="84.39" cy="530.2" fill="#FE7891" fill-rule="nonzero" rx="49.08" ry="8.83"/>
        <ellipse cx="84.39" cy="530.2" fill="url(#o)" fill-rule="nonzero" rx="49.08" ry="8.83"/>
        <path fill="#FE7891" fill-rule="nonzero" d="M61.04 333.18c-4.82-2.28-10-4-14.17-7.33-8.4-6.77-10.53-18.43-13.16-28.89C31.08 286.5 25.99 275 15.62 272c-3.88-1.11-8.43-.67-11.38 2.09C1.13 277 .5 281.78 1.35 286c.85 4.22 2.92 8 4.52 12a55.17 55.17 0 0 1 3.29 29.31c-1.31 8.11-4.44 16.33-2.43 24.28 3.41 13.49 20.4 21.4 20.87 35.3.32 9.38-7.4 18.06-5.65 27.29 1.29 6.83 7.58 12.16 7.92 19.1.38 7.87-7.06 14.53-6.7 22.4.36 7.87 8.22 13.13 13.35 19.32a32.17 32.17 0 0 1 7.31 18.35c.27 4.2-.27 8.55 1.1 12.53 1 2.91 3 5.38 4.55 8 1.71 2.83 3 5.89 5.06 8.51a20.82 20.82 0 0 0 22.3 7c1.59-10.46.2-21.13.64-31.7.87-20.48 8.62-41.12 3.66-61-1.82-7.29-5.32-14.21-5.94-21.69-.55-6.68 1.23-13.3 2.47-19.89 2.56-13.61 2.52-27.68 1.47-41.44-.83-10.92-8.51-15.95-18.1-20.49z"/>
        <path fill="#FE7891" fill-rule="nonzero" d="M91.69 386.82c-.08 9.13 2 18.57-.92 27.24-2.21 6.57-7.07 11.95-9.58 18.41-5.79 14.91 2 31.63.41 47.55-.66 6.56-2.91 12.86-4.33 19.3a77.3 77.3 0 0 0-1.28 24.83 6.28 6.28 0 0 0 5 6.54 78 78 0 0 0 15.15 4.09 40.18 40.18 0 0 1 5.18-28c7.93-13 23.34-21.76 26.21-36.69 1.94-10.11-2.58-20.37-2.26-30.66a33 33 0 0 1 6.74-18.9c3.73-4.86 8.78-8.62 12.25-13.66 8.34-12.15 5.74-28.39 3.26-42.92-2.48-14.53-3.92-31.25 5.88-42.26 3.1-3.48 7.14-6.09 9.95-9.81 6.26-8.29 4.68-21.06-2.6-28.47-7.28-7.41-19-9.46-28.9-6.2a20.84 20.84 0 0 0-10.54 7.17c-5 7.1-3 16.8-.88 25.24 1.85 7.33 3.34 15.79.81 23.18-1.89 5.5-6.68 8.48-10.75 12.31a58.64 58.64 0 0 0-18.8 41.71z"/>
        <path fill="url(#p)" fill-rule="nonzero" d="M81.36 467.72c-1.42 9.92-3.47 19.92-3.89 29.87v1a2.63 2.63 0 0 1-.17.72 77.3 77.3 0 0 0-1.31 24.83 9.41 9.41 0 0 0 1 3.86c-.05.42-.11.83-.17 1.25a20.82 20.82 0 0 1-22.3-7c-2-2.62-3.35-5.68-5.06-8.51-1.6-2.63-3.55-5.1-4.55-8-1.37-4-.83-8.33-1.1-12.53a32.17 32.17 0 0 0-7.31-18.35c-5.13-6.15-13-11.31-13.35-19.31-.35-8 7.08-14.53 6.7-22.4-.34-6.94-6.63-12.27-7.92-19.1-1.75-9.23 6-17.91 5.65-27.29-.47-13.9-17.46-21.81-20.87-35.3-2-7.95 1.12-16.17 2.43-24.28a55.17 55.17 0 0 0-3.25-29.28c-1.6-4-3.67-7.77-4.52-12-.85-4.23-.22-9 2.89-11.92 3-2.76 7.5-3.2 11.38-2.09 10.38 3 15.45 14.54 18.09 25 2.64 10.46 4.76 22.11 13.16 28.89 4.15 3.35 9.35 5.05 14.17 7.33 9.6 4.54 17.28 9.57 18.1 20.39 1 13.76 1.09 27.83-1.47 41.44-1.24 6.59-3 13.21-2.47 19.89.53 6.68 3.44 13 5.34 19.48.21.73.42 1.47.6 2.21 2.52 10.29 1.71 20.7.2 31.2z"/>
        <path fill="url(#q)" fill-rule="nonzero" d="M77.04 528a9.41 9.41 0 0 1-1.05-3.85 77.3 77.3 0 0 1 1.33-24.83c.05-.24.11-.48.17-.72-.36 9.82.78 19.72-.45 29.4z"/>
        <path fill="url(#r)" fill-rule="nonzero" d="M163.21 311.83c-2.81 3.72-6.85 6.33-9.95 9.81-9.8 11-8.36 27.73-5.88 42.26 2.48 14.53 5.08 30.77-3.26 42.92-3.47 5-8.52 8.8-12.25 13.66a33 33 0 0 0-6.74 18.9c-.32 10.29 4.2 20.55 2.26 30.66-2.87 14.93-18.28 23.71-26.21 36.69a40.24 40.24 0 0 0-5.14 28 77.61 77.61 0 0 1-15.11-4.09 8.14 8.14 0 0 1-3.52-2.13 3.77 3.77 0 0 1-.37-.52 9.41 9.41 0 0 1-1.05-3.84 77.3 77.3 0 0 1 1.33-24.83c.05-.24.11-.48.17-.72 1.42-6.19 3.52-12.26 4.16-18.58a60.2 60.2 0 0 0-.24-12.3c1.51-10.5 2.32-20.91-.23-31.13-.18-.74-.39-1.48-.6-2.21.19-.64.41-1.28.66-1.91 2.51-6.46 7.37-11.84 9.58-18.41 2.91-8.67.84-18.11.92-27.24.13-15.77 7.24-31 18.66-41.76 4.07-3.83 8.86-6.81 10.75-12.31 2.53-7.39 1-15.85-.81-23.18-2.13-8.44-4.15-18.14.88-25.24 2.5-3.52 6.44-5.81 10.54-7.17 9.86-3.26 21.63-1.21 28.9 6.2s8.81 20.23 2.55 28.47z"/>
        <path fill="#FE7891" fill-rule="nonzero" d="M340.46 155s-42.07 6.43-61.53 52.3-9.34 102.7-9 107.7c.34 5 59.63 26.69 76.58 26.69 16.95 0 20.48-16.79 20.48-16.79l-29.95-12.61 91-10.39h16.34l-9 15s17.76 1.84 29.63 2.26c11.87.42 19.93-22.79 21.26-34.33C487.6 273.29 433.84 172 425.81 166c-8.03-6-29.82-20.66-85.35-11z"/>
        <path fill="url(#s)" fill-rule="nonzero" d="M390.89 69.09s7.45 4.25 6.78 18c-.67 13.75-4.87 34.44-9.11 39.8-4.24 5.36-19.07 7.46-19.07 7.46s8.09 19.49 14.11 24.52c6.02 5.03-6.05 23.56-17.79 17.48-11.74-6.08-25.35-21.35-25.35-21.35s9.79-18.39 6.48-28.07c-3.31-9.68-15.95-43.65-6.48-52.93 9.47-9.28 29.89-22.58 50.43-4.91z"/>
        <path fill="#FFF" fill-rule="nonzero" d="M323.43 221.03l-6.6 80.87 20.16 10.39 16.39-2.81-20.45-24.69zM429.7 217s26.35 62.71 14.67 84.95l-9-1.73L429.7 217z" opacity=".25"/>
        <path fill="url(#t)" fill-rule="nonzero" d="M356.04 322s-10.06 9-5.57 16 9.85 6.8 14.32 3.67c4.47-3.13 13.25-10.56 23.71-7.15s13 5.58 13 5.58 5.51-3.61 4.08-7.23c-1.43-3.62-12.37-15.35-15.54-16.87-3.17-1.52-16.33 3.15-16.33 3.15s-9.67-2.74-17.67 2.85z"/>
        <path fill="url(#u)" fill-rule="nonzero" d="M447.36 305.11s-9.58 1.1-12 7.18-3.29 6.82-3.29 6.82 5.41 1 7.66-1.83 4.59-1.64 4.59-1.64l-.67 3.63s14.7 2.14 21.34-.16c6.64-2.3 9.49-5 9.49-5l2.6-6.14s-6.27-4.39-11-5.07c-4.73-.68-18.72 2.21-18.72 2.21z"/>
        <path fill="#25233A" fill-rule="nonzero" d="M495.99 372.72s32.63 24.84 29.73 58.44c-2.9 33.6-7.16 83.49-7.16 83.49s-13.16 5.54-21.88 0c-8.72-5.54-14-81.35-18.32-88.59-4.32-7.24-30.31-39.88-58.08-42.69l75.71-10.65z"/>
        <path fill="#3F3D56" fill-rule="nonzero" d="M331.44 396.14s15.73 15 43.77 19.71c28.04 4.71 41.11 8.64 49.68 32.75s16.79 76 19.48 81.8c2.69 5.8 14.13 2.84 14.13 2.84s6.47-7.42 6.47-48.68c0-57.52 4-69.31-10.41-83.76-14.41-14.45-27.52-18.39-27.52-18.39l-95.6 13.73z"/>
        <path fill="#25233A" fill-rule="nonzero" d="M444.37 530.4l2.67 21.05h5s32.2 1.76 33.21 1c1.01-.76-1.55-16.67-13.75-16.22-12.2.45-13-3-13-3l-14.13-2.83zM500.61 516.38l5.2 20.72 56.82-7.8s2-13.61-16-12.26c-4.75.35-8.29 3.69-14 3.72-5.71.03-11.18-2.31-14.06-6.11l-17.96 1.73z"/>
        <path fill="#FE7891" fill-rule="nonzero" d="M698.74 255.72l-215.07 11.52a9.44 9.44 0 0 1-9.92-8.92v-152.9c.004-6.172 4.94-11.21 11.11-11.34l214.19-4.42a10.36 10.36 0 0 1 10.57 10.15v144.44a11.5 11.5 0 0 1-10.88 11.47z"/>
        <path fill="#FE7891" fill-rule="nonzero" d="M708.66 255.72l-215.07 11.52a9.44 9.44 0 0 1-9.91-8.93V105.42c-.007-6.173 4.929-11.215 11.1-11.34l214.21-4.42c5.71-.106 10.43 4.43 10.55 10.14v144.45a11.5 11.5 0 0 1-10.88 11.47z"/>
        <path fill="url(#v)" fill-rule="nonzero" d="M708.66 255.72l-215.07 11.52a9.44 9.44 0 0 1-9.91-8.93V105.42c-.007-6.173 4.929-11.215 11.1-11.34l214.21-4.42c5.71-.106 10.43 4.43 10.55 10.14v144.45a11.5 11.5 0 0 1-10.88 11.47z"/>
        <path fill="#FE7891" fill-rule="nonzero" d="M646.04 313.29l-54.61 5.82s-16.63-3.36-15.73-5.82c.9-2.46 18.29-4.83 18.29-4.83V209.3c-.15-.22-2.44-3.14-8.71-5a31.49 31.49 0 0 0-3.7-.86 10.9 10.9 0 0 1-3.1-.94c-3.73-1.93.39-5.29 6.18-5.44a14.46 14.46 0 0 1 2.71.16h42s15.9 4.48 16.67 26.84c.77 22.36 0 89.23 0 89.23z"/>
        <path fill="#FE7891" fill-rule="nonzero" d="M601.6 313.5l-10.2 5.61s-16.63-3.36-15.73-5.82c.9-2.46 18.32-4.83 18.32-4.83V209.3c-.21-.23-2.76-2.86-8.71-5a44.22 44.22 0 0 0-6.8-1.8c-3.73-1.93.39-5.29 6.18-5.44 4.93.67 14.64 6.07 15.27 9.15.63 3.08 1.67 107.29 1.67 107.29z"/>
        <path fill="url(#w)" fill-rule="nonzero" d="M601.6 313.5l-10.2 5.61s-16.63-3.36-15.73-5.82c.9-2.46 18.32-4.83 18.32-4.83V209.3c-.21-.23-2.76-2.86-8.71-5a44.22 44.22 0 0 0-6.8-1.8c-3.73-1.93.39-5.29 6.18-5.44 4.93.67 14.64 6.07 15.27 9.15.63 3.08 1.67 107.29 1.67 107.29z"/>
        <path fill="url(#x)" fill-rule="nonzero" d="M397.17 521.8c-1.27 1.3-1.86 1.78-1.11.71a8 8 0 0 0 1.11-.71z"/>
    </g>
</svg>
