<svg xmlns="http://www.w3.org/2000/svg" width="320" height="270" viewBox="0 0 320 270">
    <defs>
        <linearGradient id="a" x1="57.938%" x2="34.494%" y1="9.062%" y2="129.923%">
            <stop offset="0%" stop-opacity="0"/>
            <stop offset="99%"/>
        </linearGradient>
    </defs>
    <g fill="none" fill-rule="evenodd">
        <path fill="#FEBA85" fill-rule="nonzero" d="M262.858 215.11c-11.004 12.169-22.7 23.68-36.574 32.355-28.17 17.621-62.663 21.937-95.925 22.498-50.87.845-100.32-13.164-120.94-63.79C2.608 189.425.009 171.116.917 153.07c.797-15.707 4.297-31.458 12.02-45.152a94.05 94.05 0 0 1 8.262-12.176v96.534a22.784 22.784 0 0 0 6.73 16.16 22.984 22.984 0 0 0 16.241 6.674h218.69zM238.002 12.064H124.229a126.04 126.04 0 0 1 25.052-8.018c10.982-2.244 22.227-2.887 33.427-3.5 14.475-.808 29.566-1.496 42.884 4.188a62.903 62.903 0 0 1 12.41 7.33z" opacity=".18"/>
        <path fill="#FEBA85" fill-rule="nonzero" d="M319.692 35.13v157.385c0 12.598-10.25 22.814-22.903 22.827H44.169c-12.66-.004-22.922-10.222-22.926-22.827V35.13c.004-12.605 10.266-22.823 22.926-22.827h252.62c12.653.013 22.903 10.229 22.903 22.827z" opacity=".46"/>
        <path fill="#FEBA85" fill-rule="nonzero" d="M83.29 150.16l8.856-18.51 20.44 11.899-14.07 28.907-10.974-6.08z"/>
        <path fill="#FFF" fill-rule="nonzero" d="M84.973 148.306l7.436-14.36 16.82 9.782-12.748 25.467-8.676-6.612z"/>
        <path fill="#3E3E54" fill-rule="nonzero" d="M84.38 193.84l5.904 36.191-5.905 36.192 3.306 2.58-5.424-.232.466-37.396-10.149-26.319-4.717 62.511 2.6 1.406-5.905-.231-3.305-59.22s-2.832-15.027 1.172-17.6c4.003-2.572 21.956 2.117 21.956 2.117z"/>
        <path fill="#FEBA85" fill-rule="nonzero" d="M164.086 161.304l-54.497-54.261-48.992 39.131-17.667-.815 66.659-54.913 54.497 54.262 49.435-50.851 41.24 25.773 34.088-33.94 8.33 8.294-41.187 40.732-40.81-25.437z"/>
        <ellipse cx="52.545" cy="145.321" fill="#FEBA85" fill-rule="nonzero" rx="12.53" ry="12.475"/>
        <ellipse cx="52.357" cy="145.269" fill="#FFF" fill-rule="nonzero" rx="8.654" ry="8.616"/>
        <ellipse cx="164.357" cy="153.391" fill="#FEBA85" fill-rule="nonzero" rx="12.53" ry="12.475"/>
        <ellipse cx="164.169" cy="153.339" fill="#FFF" fill-rule="nonzero" rx="8.654" ry="8.616"/>
        <ellipse cx="214.678" cy="101.643" fill="#FEBA85" fill-rule="nonzero" rx="12.53" ry="12.475"/>
        <ellipse cx="214.483" cy="101.59" fill="#FFF" fill-rule="nonzero" rx="8.654" ry="8.616"/>
        <ellipse cx="110.978" cy="98.643" fill="#FEBA85" fill-rule="nonzero" rx="12.53" ry="12.475"/>
        <ellipse cx="110.791" cy="98.584" fill="#FFF" fill-rule="nonzero" rx="8.654" ry="8.616"/>
        <path fill="#FEBA85" fill-rule="nonzero" d="M300.8 117.506l-11.786-.142.33-26.447-27.312 1.855-.796-11.705 40.052-2.722zM46.145 84.612h5.1v18.406h-5.1zM52.357 89.511h5.1v13.5h-5.1zM58.967 93.722h5.1v9.297h-5.1zM204.747 161.85h5.1v9.199h-5.1zM210.96 157.55h5.1v13.5h-5.1zM217.577 150.721h5.1v20.329h-5.1z"/>
        <path fill="#FEBA85" fill-rule="nonzero" d="M152.699 65.57c-1.3-3.537-1.578-7.89.901-10.732a9.281 9.281 0 0 1 3.936-2.52 12.5 12.5 0 0 1 11.553 1.585 10.297 10.297 0 0 1 3.756 10.703c-.849 2.991-3.162 5.444-3.68 8.496-.226 1.316-.136 2.782-.955 3.83-.991 1.27-6.37 1.21-7.992 1.196-7.181-.06-5.364-6.671-7.52-12.558z" opacity=".18"/>
        <path fill="#FEBA85" fill-rule="nonzero" d="M152.699 65.57c-1.3-3.537-1.578-7.89.901-10.732a9.281 9.281 0 0 1 3.936-2.52 12.5 12.5 0 0 1 11.553 1.585 10.297 10.297 0 0 1 3.756 10.703c-.849 2.991-3.162 5.444-3.68 8.496-.226 1.316-.136 2.782-.955 3.83-.991 1.27-6.37 1.21-7.992 1.196-7.181-.06-5.364-6.671-7.52-12.558z" opacity=".18"/>
        <path fill="#FEBA85" fill-rule="nonzero" d="M152.699 65.57c-1.3-3.537-1.578-7.89.901-10.732a9.281 9.281 0 0 1 3.936-2.52 12.5 12.5 0 0 1 11.553 1.585 10.297 10.297 0 0 1 3.756 10.703c-.849 2.991-3.162 5.444-3.68 8.496-.226 1.316-.136 2.782-.955 3.83-.991 1.27-6.37 1.21-7.992 1.196-7.181-.06-5.364-6.671-7.52-12.558z" opacity=".18"/>
        <path fill="#FEBA85" fill-rule="nonzero" d="M152.699 65.57c-1.3-3.537-1.578-7.89.901-10.732a9.281 9.281 0 0 1 3.936-2.52 12.5 12.5 0 0 1 11.553 1.585 10.297 10.297 0 0 1 3.756 10.703c-.849 2.991-3.162 5.444-3.68 8.496-.226 1.316-.136 2.782-.955 3.83-.991 1.27-6.37 1.21-7.992 1.196-7.181-.06-5.364-6.671-7.52-12.558z" opacity=".18"/>
        <path fill="#3E3E54" fill-rule="nonzero" d="M155.162 82.01c.112.22.19.453.233.695a6.51 6.51 0 0 1-.097.838 1.845 1.845 0 0 0 .796 1.556 4.21 4.21 0 0 0 1.675.673c2.83.627 5.787.314 8.42-.89.481-.225 1-.539 1.09-1.055v-.568c.081-.246.2-.479.353-.688a2.31 2.31 0 0 0-.27-2.648 1.26 1.26 0 0 0 .345-1.66 2.164 2.164 0 0 0-1.547-.965 7.544 7.544 0 0 0-1.886 0c-2.148.187-5.604-.883-7.572-.112-1.134.493-2.02 3.522-1.54 4.824z"/>
        <path stroke="#FFF" stroke-width=".84" d="M159.324 78.936c-1.502-1.354-1.946-3.545-2.103-5.572a39.47 39.47 0 0 1-.106-4.106 1.701 1.701 0 0 1 .564-1.496c.244-.128.524-.173.796-.127a2.8 2.8 0 0 1 2.013 1.495c.39.776.592 1.631.594 2.499 0 .643-.128 1.495-.751 1.623a.286.286 0 0 1-.27-.045.373.373 0 0 1-.106-.202 6.214 6.214 0 0 1 .661-3.53c.248-.614.608-1.317 1.262-1.407a1.25 1.25 0 0 1 .916.292c.614.556.898 1.386.752 2.199a7.169 7.169 0 0 1-.857 2.244l-.218.411a5.867 5.867 0 0 1 1.232-4.891c.133-.181.312-.323.519-.412.473-.172.984.21 1.254.636a4.88 4.88 0 0 1 .526 3.216 14.05 14.05 0 0 1-2.832 7.098"/>
        <path fill="#FEBA85" fill-rule="nonzero" d="M62.903 139.555s14.273 1.585 17.818 4.173c3.546 2.588 7.204 6.634 7.204 9.925 0 3.291 1.412 19.506 1.412 19.506l5.904-13.627 3.305 1.877s-3.755 23.62-5.904 24.323c-2.148.703-7.902-.823-7.902-.823l-.36 8.93s-19.35 1.885-21.957-2.117c-2.607-4-8.692-45.645.48-52.167z"/>
        <path fill="#EEA886" fill-rule="nonzero" d="M75.192 135.09s-1.727 3.62-.803 6.581c0 0-5.311-.747-5.469-1.33-.158-.584.669-6.171.053-7.876-.616-1.706 6.22 2.625 6.22 2.625z"/>
        <path fill="#EEA886" fill-rule="nonzero" d="M69.469 120.34c2.08-.89 7.804-2.138 9.923 6.366 2.118 8.503-1.097 8.915-4.432 8.975-3.336.06-8.94-5.356-9.465-7.09-.526-1.736-1.976-5.7 3.974-8.25z"/>
        <path fill="#FCCCA2" fill-rule="nonzero" d="M70.986 119.735s-9.014.082-5.363 13.14c2.35 8.423-2.209 16.41-1.668 17.951.54 1.54 5.258 3.074 7.82 0 2.561-3.074-1.923-13.156.3-17.786 2.224-4.63 7.076-7.748 7.076-7.748s-1.6-6.657-8.165-5.557z"/>
        <path fill="#FCCCA2" fill-rule="nonzero" d="M65.6 123.243s-2.156 3.941-.135 11.3c.698 2.566-5.942 13.815-.94 17.001 5.004 3.186 8.782-24.008 1.075-28.301z"/>
        <path fill="#EEA886" fill-rule="nonzero" d="M95.542 155.59a2.339 2.339 0 0 1 .082-.688c.21-.628.88-.972 1.225-1.533.188-.353.305-.74.345-1.137.03-.355.125-.702.278-1.025a.932.932 0 0 1 .88-.5c.48.067.75.59.87 1.054.841 2.806.722 5.81-.337 8.541-.158.404-.444.868-.872.838a1.145 1.145 0 0 1-.413-.15c-.864-.463-2.088-.837-2.133-1.862-.045-1.174.052-2.37.075-3.538z"/>
        <rect width="191.174" height="7.756" x="112.233" y="185.851" fill="#FEBA85" fill-rule="nonzero" rx="3.878"/>
        <path fill="#FEBA85" fill-rule="nonzero" d="M97.54 152.599l-4.011-3.74-.353.703 3.673 3.83s.751-.232.69-.793z"/>
        <path fill="url(#a)" fill-rule="nonzero" d="M84.74 184.909s-2.066-.823-2.78-6.814c-.713-5.99-1.592-12.16-1.592-12.16v28.143h4.725l-.353-9.17z"/>
    </g>
</svg>
