<svg xmlns="http://www.w3.org/2000/svg" width="353" height="302" viewBox="0 0 353 302">
    <defs>
        <linearGradient id="a" x1=".221%" x2="100.158%" y1="49.994%" y2="49.994%">
            <stop offset="0%" stop-color="#E5C5D5"/>
            <stop offset="42%" stop-color="#EAD4D1"/>
            <stop offset="100%" stop-color="#F0E9CB"/>
        </linearGradient>
        <linearGradient id="b" x1="-.016%" x2="99.999%" y1="49.991%" y2="49.991%">
            <stop offset="0%" stop-opacity="0"/>
            <stop offset="99%"/>
        </linearGradient>
        <linearGradient id="c" x1="-.101%" x2="100.162%" y1="50.013%" y2="50.013%">
            <stop offset="0%" stop-color="#E5C5D5"/>
            <stop offset="42%" stop-color="#EAD4D1"/>
            <stop offset="100%" stop-color="#F0E9CB"/>
        </linearGradient>
        <linearGradient id="d" x1="-.207%" x2="99.801%" y1="49.961%" y2="49.961%">
            <stop offset="0%" stop-color="#E5C5D5"/>
            <stop offset="42%" stop-color="#EAD4D1"/>
            <stop offset="100%" stop-color="#F0E9CB"/>
        </linearGradient>
        <linearGradient id="e" x1="34.032%" x2="69.334%" y1="26.923%" y2="79.548%">
            <stop offset="0%" stop-opacity="0"/>
            <stop offset="99%"/>
        </linearGradient>
        <linearGradient id="f" x1=".129%" x2="99.992%" y1="50.106%" y2="50.106%">
            <stop offset="0%" stop-color="#867580"/>
            <stop offset="57%" stop-color="#9B8F8E"/>
        </linearGradient>
        <linearGradient id="g" x1="60.437%" x2="9.089%" y1="94.803%" y2="-107.165%">
            <stop offset="0%" stop-opacity="0"/>
            <stop offset="99%"/>
        </linearGradient>
        <linearGradient id="h" x1="-.06%" x2="99.809%" y1="50.055%" y2="50.055%">
            <stop offset="0%" stop-color="#867580"/>
            <stop offset="57%" stop-color="#9B8F8E"/>
        </linearGradient>
        <linearGradient id="i" x1="-.168%" x2="100.137%" y1="49.982%" y2="49.982%">
            <stop offset="0%" stop-color="#867580"/>
            <stop offset="57%" stop-color="#9B8F8E"/>
        </linearGradient>
        <linearGradient id="j" x1="-.083%" y1="50.014%" y2="50.014%">
            <stop offset="0%" stop-opacity="0"/>
            <stop offset="99%"/>
        </linearGradient>
        <linearGradient id="k" x1="-.181%" x2="100.252%" y1="50.295%" y2="50.295%">
            <stop offset="0%" stop-color="#E5C5D5"/>
            <stop offset="42%" stop-color="#EAD4D1"/>
            <stop offset="100%" stop-color="#F0E9CB"/>
        </linearGradient>
        <linearGradient id="l" x1="-.134%" x2="99.974%" y1="49.992%" y2="49.992%">
            <stop offset="0%" stop-color="#E5C5D5"/>
            <stop offset="42%" stop-color="#EAD4D1"/>
            <stop offset="100%" stop-color="#F0E9CB"/>
        </linearGradient>
        <linearGradient id="m" x1=".158%" x2="99.891%" y1="50.044%" y2="50.044%">
            <stop offset="0%" stop-color="#E5C5D5"/>
            <stop offset="42%" stop-color="#EAD4D1"/>
            <stop offset="100%" stop-color="#F0E9CB"/>
        </linearGradient>
    </defs>
    <g fill="none" fill-rule="nonzero">
        <path fill="#FEBA85" d="M6.391 267.822c10.346 12.38 27.722 16.622 43.939 16.918 17.853.31 35.56-3.238 51.892-10.395 15.302-6.72 29.217-16.541 45.099-21.78 33.076-10.898 69.006-.502 103.867-.43 24.46.053 49.592-5.391 69.414-19.65 19.822-14.259 33.475-38.105 31.327-62.274-1.286-14.375-7.881-27.852-16.57-39.425-22.893-30.45-59.248-48.05-85.358-75.768-17.005-18.033-30.802-41.132-54.076-49.866C184.872 1.002 172.787.66 160.982.777c-11.324.153-22.902.79-33.339 5.13-11.478 4.762-20.773 13.72-27.984 23.774-20.366 28.392-25.168 64.735-39.862 96.397-10.038 21.69-24.66 41.052-34.725 62.732-9.748 21.078-37.126 56.918-18.68 79.012z" opacity=".18"/>
        <path fill="url(#a)" d="M11.6 7.212a.72.72 0 0 0-.364-.152.312.312 0 0 0-.313.181c-.037.108 0 .237-.066.326a.32.32 0 0 1-.265.085 3.94 3.94 0 0 1-1.24-.215 2.225 2.225 0 0 0-.568-.151.545.545 0 0 0-.51.229.752.752 0 0 0-.018.566 3.84 3.84 0 0 0 3.187 2.765c.47.052 1.03-.04 1.255-.463.524-.98-.31-2.624-1.099-3.171z" transform="translate(303.147 197.824)"/>
        <path fill="#FE7891" d="M315.25 206.511c.104.752-.699 1.334-.853 2.078-.198.921.622 1.719 1.36 2.318 2.74 2.22 5.495 4.45 8.56 6.214.51.293 1.08.585 1.665.508.752-.099 1.28-.759 1.659-1.412.474-.815 1.931-3.528 1.38-4.477-.43-.74-2.877-.8-3.744-1.058-3.481-1.03-6.755-2.604-10.028-4.171z"/>
        <path fill="url(#b)" d="M12.102 8.687c.105.752-.698 1.334-.852 2.078-.198.921.622 1.719 1.36 2.319 2.74 2.219 5.495 4.449 8.56 6.213.51.293 1.079.586 1.665.508.752-.099 1.28-.759 1.659-1.411.474-.815 1.931-3.529 1.38-4.478-.43-.74-2.877-.8-3.744-1.058-3.481-1.03-6.755-2.604-10.028-4.17z" transform="translate(303.147 197.824)"/>
        <path fill="url(#c)" d="M22.361 6.532c-.135.314-.2.652-.195.992.098.343.245.671.437.975.305.685.224 1.567.797 2.06.422.357 1.061.357 1.616.267a.558.558 0 0 1 .341 0 .36.36 0 0 1 .155.165c.187.335.099.75.154 1.128.006.08.034.158.08.225a.523.523 0 0 0 .4.142 4.934 4.934 0 0 0 1.503-.26 2.005 2.005 0 0 0 1.057-.55c.182-.27.281-.584.287-.907a11.877 11.877 0 0 0-.28-3.213 7.852 7.852 0 0 0-.734-2.334 3.144 3.144 0 0 0-1.854-1.568 3.966 3.966 0 0 0-.823-.114 9.898 9.898 0 0 0-1.593.054c-.327.035-.772.068-.977.357-.206.289-.129.714-.14 1.042a6.19 6.19 0 0 1-.231 1.539z" transform="translate(303.147 197.824)"/>
        <path fill="#3E3E54" d="M330.391 198.902a7.77 7.77 0 0 1-3.77-.82c-.29-.2-.643-.289-.994-.249a.893.893 0 0 0-.588.85c.015.368.11.728.28 1.055.253.661.593 1.285 1.012 1.857.623.78 1.526 1.37 1.88 2.3.05.126.117.28.251.287.135.007.234-.225.319-.383a.57.57 0 0 1 .842-.155c.201.213.268.519.174.795-.096.27-.214.53-.354.78a.598.598 0 0 0-.075.254c0 .239.234.397.414.555.177.152.322.336.429.542.08.205.2.392.354.552a.963.963 0 0 0 .446.172c.415.073.844.019 1.228-.155a2.346 2.346 0 0 0 1.2-1.652 5.658 5.658 0 0 0-.032-2.11 21.884 21.884 0 0 0-.27-1.438c-.155-.703-.374-1.448-.93-1.912-.354-.289-.796-.454-1.062-.812-.262-.06-.51-.324-.754-.313z"/>
        <path fill="#FE7891" d="M323.613 223.899c-2.761 2.95-7.346 3.888-11.162 5.246-1.027-1.45-.84-1.631-1.642-3.199 1.535-.12 2.793-1.215 3.888-2.292 3.555-3.49 6.695-7.372 9.917-11.164a13.713 13.713 0 0 1 1.963-2.001c1.874-1.461 4.35-1.88 6.724-2.072 1.756-.139 2.146 2.43 2.439 4.158.915 5.417.83 10.947.74 16.442a44.732 44.732 0 0 1-.26 4.894c-.115.9-.359 1.912-1.174 2.342a3.013 3.013 0 0 1-1.194.246c-3.436.262-6.89.171-10.307-.27-.555-.072-1.152-.175-1.524-.583a1.87 1.87 0 0 1-.422-1.045c-.2-1.546.48-3.05.887-4.553.511-1.92 1.499-4.19 1.127-6.15z"/>
        <path fill="#3E3E54" d="M334.89 235.113c-.681 6.668-1.364 13.358-1.216 20.058.062 2.934.285 5.87.112 8.8-.043.763-.177 1.636-.826 2.056-.65.421-1.48.204-2.192-.057a20.365 20.365 0 0 1-3.249-1.525.718.718 0 0 1-.36-.335.567.567 0 0 1 .223-.581c.722-.627 2.137-.31 2.578-1.165.098-.225.146-.468.14-.713.22-3.13.042-6.276-.527-9.363-.22-1.07-.512-2.16-.74-3.243-.27-1.273-.447-2.563-.628-3.85l-.538-3.849a112.855 112.855 0 0 1-5.249 9.452c-.036 5.482-.631 11.355-.743 16.833 0 .528-.05 1.12-.448 1.476-.293.222-.65.347-1.018.356-2.036.214-4.408-.713-4.96-2.67a.845.845 0 0 1 0-.63c.36-.642 1.426.05 2.072-.307.361-.206.462-.691.502-1.112a55.115 55.115 0 0 0-.524-14.58c-.26-1.533-.588-3.076-.49-4.633.137-2.246 1.147-4.334 2.14-6.359l1.73-3.521c.196-.519.536-.973.981-1.312.407-.214.86-.329 1.321-.335 3.491-.285 8.527.286 11.91 1.109z"/>
        <path fill="url(#d)" d="M5.188 27.82c-.776-.272-1.53-.716-2.348-.669a.414.414 0 0 0 0 .436c.063.14.168.258.231.397.025.04.031.088.018.132-.028.054-.098.065-.158.068L0 28.35a3.025 3.025 0 0 0 1.513 2.224 5.242 5.242 0 0 0 2.66.644 4.846 4.846 0 0 0 1.485-.18c.702-.206 1.3-.632 1.973-.897.191-.058.372-.146.537-.26.569-.451.312-1.481-.326-1.731a3.33 3.33 0 0 0-1.053-.047 5.22 5.22 0 0 1-1.601-.282z" transform="translate(303.147 197.824)"/>
        <g>
            <path fill="#3E3E54" d="M26.602 272.315c1.747 7.462.786 15.245 1.02 22.9.029.817.158 1.785.895 2.157.622.318 1.374.045 2.003-.258a22.26 22.26 0 0 0 3.064-1.796c.329-.23.7-.586.56-.961-.105-.314-.49-.424-.822-.476a11.98 11.98 0 0 0-2.303-.131l2.097-15.827c.203-1.517.406-3.068.105-4.567-.157-.783-.42-1.69.094-2.306 1.828 2.885 5.326 4.618 6.584 7.79.584 1.471.608 3.101.622 4.677l.147 14.669c-.045.38.063.762.3 1.065.35.345.913.258 1.377.127a11.117 11.117 0 0 0 3.894-1.971c.314-.248.636-.69.384-.99a.82.82 0 0 0-.538-.216l-2.572-.345c1.485-5.37 1.569-11.006 1.646-16.569.055-1.278 0-2.56-.165-3.829-.28-1.789-.989-3.481-1.701-5.15a484.387 484.387 0 0 0-3.411-7.816 1.225 1.225 0 0 0-.479-.638 1.228 1.228 0 0 0-.653-.083l-6.969.345c-1.61.086-3.9-.2-5.33.72-2.85 1.868-.411 7.066.151 9.479z"/>
            <path fill="#FE7891" d="M28.548 229.268c.927-1.385 2.217-2.506 3.506-3.576 1.574-1.298 3.265-2.606 5.274-2.96 1.155-.204 2.538.039 3.112 1.039.654 1.132-.048 2.627-1.096 3.413s-2.358 1.104-3.534 1.675a6.316 6.316 0 0 0-2.7 2.33 12.814 12.814 0 0 0-.883 2.021 8.264 8.264 0 0 1-1.58 2.704 3.858 3.858 0 0 1-2.766 1.298c-.765 0-2.767 4.77-3.216 4.126-.554-.793 1.006-6.373 1.424-7.138.9-1.599 1.439-3.392 2.459-4.932z"/>
            <path fill="url(#e)" d="M14.597 4.615c.354 0 .785.071.944.381.191.368-.134.787-.456 1.053a9.557 9.557 0 0 1-2.4 1.404c-.457.196-.924.365-1.394.527-.297.101-1.061.506-1.372.425-.754-.202-.057-1.623.176-2.025.279-.44.696-.785 1.192-.985a7.423 7.423 0 0 1 3.31-.78z" transform="translate(24 221.037)"/>
            <path fill="url(#f)" d="M11.723 5.34c.23.125.5.249.573.497.115.39-.347.69-.541 1.034-.236.41-.125.92-.16 1.378a2.267 2.267 0 0 1-1.25 1.83c-.4.193-.861.272-1.208.548-.757.596-.664 1.854-1.39 2.474a2.05 2.05 0 0 1-.892.396c-.444.126-.92.096-1.344-.086a2.04 2.04 0 0 1-.906-1.082 8.774 8.774 0 0 1-.486-2.974c-.073-2.23.097-4.624 1.469-6.392.226-.311.513-.575.844-.775.972-.548 2.736-.283 3.51.54.245.338.425.718.531 1.12a2.907 2.907 0 0 0 1.25 1.493z" transform="translate(24 221.037)"/>
            <path fill="#3E3E54" d="M33.358 225.81c-.323.36-.756.606-1.233.697-.414.045-.89-.09-1.22.167a.93.93 0 0 0-.199 1.021c.12.349.35.663.462 1.011.291.833-.024 1.742-.35 2.561-.1.378-.318.714-.624.959a1.562 1.562 0 0 1-.795.202 2.787 2.787 0 0 1-1.559-.317 2.86 2.86 0 0 1-1.093-1.394c-.56-1.328-.588-2.812-.543-4.252.002-.569.06-1.136.175-1.693a4.709 4.709 0 0 1 3.7-3.447c.984-.174 1.983-.035 2.974-.1.568-.04 1.594-.475 2.008.131.413.607-.084 1.767-.305 2.325a6.294 6.294 0 0 1-1.398 2.13z"/>
            <path fill="#FE7891" d="M26.482 235.178a7.071 7.071 0 0 0-1.365 2.632c-1.221 3.82-1.158 7.904-1.082 11.906l.189 10.006c.028 1.473.108 3.084 1.102 4.181.995 1.097 2.628 1.35 4.118 1.38a21.643 21.643 0 0 0 8.424-1.525c.904-.345 1.822-.81 2.404-1.583 1.047-1.405.698-3.364.318-5.072-1.026-4.43-2.053-8.859-3.081-13.286-.698-3.054-1.658-6.352-4.034-8.598-1.829-1.718-5.179-2.053-6.993-.041z"/>
            <path fill="url(#g)" d="M13.903 24.561s-2.74-3.298-4.583-1.995c-1.845 1.302 5.832 15.278 3.526 20.315 0 0 2.514.277 3.554-1.815 1.04-2.093.952-2.526.6-3.396-.353-.87-3.097-13.109-3.097-13.109z" transform="translate(24 221.037)"/>
            <path fill="#FE7891" d="M34.222 236.944a2.768 2.768 0 0 0-1.043.131c-.627.3-1.094.854-1.28 1.522-.816 2.382.575 5.08 2.64 6.532 2.065 1.452 2.82.74 5.33 1.079.485.102.986.102 1.47 0 .804-.236 1.332-.979 1.774-1.688 1.272-2.057 4.846-7.901 4.69-8.68-.212-1.075-.449-.802-1.346-1.441a.97.97 0 0 0-1.599.21l-4.492 5.236c-.174.204-.396.425-.664.394a.85.85 0 0 1-.407-.225c-1.603-1.345-2.879-3.07-5.073-3.07z"/>
            <path fill="url(#h)" d="M20.083 11.528a.307.307 0 0 1-.105-.254c.02-.118.154-.173.273-.207a3 3 0 0 1 .743-.103c.168.014.337-.013.491-.08a.716.716 0 0 0 .295-.433c.295-.927.028-1.929 0-2.9 0-.203.05-.472.252-.493.369.7.639 1.444.803 2.215.032.192.087.379.165.558.14.221.318.417.526.578.34.267.602.616.761 1.013.19.595-.045 1.24-.35 1.784a.695.695 0 0 1-.351.344.657.657 0 0 1-.35 0 2.763 2.763 0 0 1-1.561-.899c-.45-.465-1.143-.634-1.592-1.123z" transform="translate(24 221.037)"/>
            <path fill="url(#i)" d="M17.235 6.498c.183.165.416.337.66.276.315-.074.4-.475.308-.771a6.649 6.649 0 0 1-.354-.86.323.323 0 0 1 .029-.232.437.437 0 0 1 .197-.142 6.44 6.44 0 0 1 2.261-.471c.212 0 .506-.115.456-.314-.05-.199-.247-.182-.41-.182h-1.374a.418.418 0 0 1-.265-.06.441.441 0 0 1-.11-.246 1.592 1.592 0 0 0-1.324-1.032 4.585 4.585 0 0 0-1.767.176 1.48 1.48 0 0 0-.911.478c-.272.398-.06.927.19 1.348.326.526.647.512 1.124.772.477.26.876.893 1.29 1.26z" transform="translate(24 221.037)"/>
        </g>
        <g>
            <path fill="#3E3E54" d="M22.422 68.157a76.899 76.899 0 0 1-.545 17.322c-.08.54-.131 1.176.274 1.542.399.292.942.292 1.34 0 .38-.3.682-.684.881-1.123 1.3-2.4 2.193-4.991 3.08-7.567 1.028-2.992 2.068-6.07 1.944-9.22-.086-2.19-.734-4.343-.638-6.534.353.264.652.593.88.97 1.124 1.609 2.273 3.275 2.665 5.195.162.939.226 1.891.192 2.843a150.978 150.978 0 0 1-.597 12.596c-.06.684-.118 1.409.207 2.013.326.604 1.197.954 1.72.512.178-.173.315-.382.403-.614 1.867-4.133 2.553-8.683 3.08-13.178.335-2.84.606-5.746-.048-8.524a26.21 26.21 0 0 0-1.347-3.87l-2.387-5.844a2.62 2.62 0 0 0-.45-.81c-.485-.525-1.293-.566-2.008-.56-2.093.015-4.183.121-6.268.318-.578.057-1.797-.054-2.272.366-.476.42-.492 1.733-.568 2.362-.473 3.923.143 7.882.462 11.805z"/>
            <path fill="#FE7891" d="M23.896 31.125l-1.517.677c-.41.157-.797.37-1.148.633-.433.38-.74.88-.883 1.434a5.225 5.225 0 0 0-.142 1.688c.283 4.669-.228 9.155 0 13.83.039.887.084 1.802.447 2.615.7 1.583 2.484 2.476 4.226 2.63 1.742.156 3.475-.316 5.162-.759 1.337-.358 2.774-.782 3.619-1.865 1.257-1.608.688-3.896.202-5.869a43.318 43.318 0 0 1-1.237-8.946.939.939 0 0 1 .177-.706.973.973 0 0 1 .565-.202l12.985-1.665c.932-1.096.771-2.27-.296-3.239-1.067-.969-12.81-1.605-17.002-.75-1.645.345-3.641-.18-5.158.494z"/>
            <path fill="url(#j)" d="M15.766 24.639l.106 1.374s-8.387-.845-9.783-2.432c-1.397-1.586-.432 9.734-.432 9.734S3.405 34.16.83 30.246c-2.575-3.913 1.644-16.737 1.844-17.202.2-.465 13.092 11.595 13.092 11.595z" transform="translate(17.683 21)"/>
            <path fill="url(#k)" d="M28.514 10.903c-.423.095-.756.4-.869.794-.048.451.18.89.59 1.13.406.23.843.405 1.3.523.891.305 1.76.736 2.706.767.325 0 .722-.07.85-.358a.802.802 0 0 0-.258-.791 4.663 4.663 0 0 0-1.21-.987.449.449 0 0 1-.179-.143c-.127-.211.189-.453.143-.69a.399.399 0 0 0-.432-.254 2.524 2.524 0 0 0-.537.143c-.735.223-1.32-.333-2.104-.134z" transform="translate(17.683 21)"/>
            <path fill="#3E3E54" d="M21.493 86.948a2.122 2.122 0 0 0-.218 1.387c.109.447.35.855.698 1.173.347.315.738.585 1.16.802.776.423 1.63.78 2.537.725.134-.004.266-.033.388-.087a.773.773 0 0 0 .348-.887 2.309 2.309 0 0 0-.54-.877 6.735 6.735 0 0 1-1.05-1.493c-.163-.354-.258-.73-.418-1.085a1.771 1.771 0 0 0-.753-.88c-.896-.455-1.796.547-2.152 1.222zM31.383 88.117c.01.16.06.316.145.452.133.147.302.256.491.316 1.539.655 3.093 1.316 4.742 1.582.434.073 1.004.041 1.152-.376a.905.905 0 0 0-.18-.76c-.607-.948-1.601-1.556-2.306-2.423a10.428 10.428 0 0 0-1.098-1.357c-1.772-1.54-3.138.956-2.946 2.566z"/>
            <path fill="#FE7891" d="M36.734 44.11c.12.036.227.108.305.204a.562.562 0 0 1 .07.28c.02.468-.055.934-.218 1.373a.396.396 0 0 1-.147.22.445.445 0 0 1-.202.051c-4.882.157-9.604-1.728-13.904-3.989-.544-.286-1.114-.604-1.409-1.136a2.792 2.792 0 0 1-.253-1.414c.073-1.527.287-3.045.64-4.534.097-.463.375-1.089.961-.78.42.23.852.906 1.2 1.259.906.877 1.851 1.717 2.837 2.519a40.942 40.942 0 0 0 10.12 5.947z"/>
            <path fill="url(#l)" d="M21.283 22.935c.175-.103.424-.21.544-.048.12.16-.042.364-.194.486-.153.123-.324.322-.23.48.054.077.135.13.226.152 1.059.357 2.217.09 3.33.174.092 0 .183.021.266.061a.54.54 0 0 1 .223.483c-.025.452-.249.87-.612 1.141a3.324 3.324 0 0 1-1.21.557 3.55 3.55 0 0 1-3.236-.512c-.586-.36-1.126-.793-1.715-1.144a.685.685 0 0 1-.298-.258.491.491 0 0 1-.042-.212.855.855 0 0 1 .277-.648.863.863 0 0 1 .671-.222c.7.025 1.392-.145 2-.49z" transform="translate(17.683 21)"/>
            <path fill="url(#m)" d="M11.76 7.217a4.456 4.456 0 0 1-.261 1.776c-.216.57-.71.988-1.304 1.102a.928.928 0 0 0-.389.083.69.69 0 0 0-.21.604l-.039 1.134a.85.85 0 0 1-.089.456.74.74 0 0 1-.389.263c-.35.144-.737.164-1.1.055a1.874 1.874 0 0 1-.787-.643 4.762 4.762 0 0 1-.99-2.37c-.09-.748-.026-1.573-.485-2.164a3.016 3.016 0 0 1-.479-.617c-.102-.24 0-.597.259-.62.258-.022.417.235.653.228A7.674 7.674 0 0 1 6 4.821c.014-.569.212-1.118.564-1.564a2.639 2.639 0 0 1 1.938-.812c.902-.029 2.193.321 2.681 1.182.577.995.574 2.486.577 3.59z" transform="translate(17.683 21)"/>
            <path fill="#B7A451" d="M29.235 25.338a3.14 3.14 0 0 0 .21-1.3v-1.582a1.812 1.812 0 0 0-.156-.867c-.319-.56-1.088-.658-1.72-.55a8.871 8.871 0 0 0-2.463.949 7.92 7.92 0 0 0-1.806 1.145 2.717 2.717 0 0 0-.957 1.854c.01.19 0 .38-.03.567-.097.25-.223.49-.373.715-.344.696-.06 1.547.393 2.177.453.63 1.069 1.139 1.5 1.784a.497.497 0 0 0 .13-.525 1.759 1.759 0 0 0-.283-.497 2.814 2.814 0 0 1-.55-1.202.776.776 0 0 1 .077-.51.381.381 0 0 1 .453-.167.7.7 0 0 1 .192.17c.146.16.315.298.5.409.027.02.06.03.093.025.051 0 .067-.073.074-.123.067-.7-.32-1.402-.173-2.089a.347.347 0 0 1 .093-.186.343.343 0 0 1 .182-.067c.957-.13 1.997.633 2.907.215.295-.178.551-.414.753-.693.134-.155.28-.443.491-.36.183.217.338.455.463.708z"/>
        </g>
    </g>
</svg>
