<svg xmlns="http://www.w3.org/2000/svg" width="1094" height="679" viewBox="0 0 1094 679">
    <defs>
        <linearGradient id="a" x1="48.36%" x2="96.483%" y1="47.919%" y2="73.701%">
            <stop offset="0%" stop-color="#010101" stop-opacity="0"/>
            <stop offset="95%" stop-color="#010101"/>
        </linearGradient>
        <linearGradient id="b" x1="59.868%" x2="42.694%" y1="15.503%" y2="83.745%">
            <stop offset="0%" stop-color="#010101" stop-opacity="0"/>
            <stop offset="95%" stop-color="#010101"/>
        </linearGradient>
        <linearGradient id="c" x1="56.451%" x2="227.938%" y1="49.903%" y2="36.608%">
            <stop offset="0%" stop-color="#010101" stop-opacity="0"/>
            <stop offset="95%" stop-color="#010101"/>
        </linearGradient>
        <linearGradient id="d" x1="49.375%" x2="52.5%" y1="23.512%" y2="147.6%">
            <stop offset="0%" stop-color="#010101" stop-opacity="0"/>
            <stop offset="95%" stop-color="#010101"/>
        </linearGradient>
        <linearGradient id="e" x1="48.827%" x2="51.951%" y1="1.977%" y2="126.123%">
            <stop offset="0%" stop-color="#010101" stop-opacity="0"/>
            <stop offset="95%" stop-color="#010101"/>
        </linearGradient>
        <linearGradient id="f" x1="50%" x2="50%" y1="162.522%" y2="-51.152%">
            <stop offset="0%" stop-color="#FFF" stop-opacity="0"/>
            <stop offset="23%" stop-color="#FFF" stop-opacity=".23"/>
            <stop offset="95%" stop-color="#FFF"/>
        </linearGradient>
        <linearGradient id="g" x1="49.933%" x2="50.857%" y1="56.525%" y2="-30.515%">
            <stop offset="0%" stop-color="#FFF" stop-opacity="0"/>
            <stop offset="23%" stop-color="#FFF" stop-opacity=".23"/>
            <stop offset="95%" stop-color="#FFF"/>
        </linearGradient>
        <linearGradient id="h" x1="49.568%" x2="56.086%" y1="71.619%" y2="-17.805%">
            <stop offset="0%" stop-color="#010101" stop-opacity="0"/>
            <stop offset="95%" stop-color="#010101"/>
        </linearGradient>
        <linearGradient id="i" x1="49.785%" x2="56.303%" y1="71.899%" y2="-17.124%">
            <stop offset="0%" stop-color="#010101" stop-opacity="0"/>
            <stop offset="95%" stop-color="#010101"/>
        </linearGradient>
        <linearGradient id="j" x1="49.568%" x2="56.086%" y1="71.676%" y2="-17.803%">
            <stop offset="0%" stop-color="#010101" stop-opacity="0"/>
            <stop offset="95%" stop-color="#010101"/>
        </linearGradient>
        <linearGradient id="k" x1="32.549%" x2="58.065%" y1="50.545%" y2="49.632%">
            <stop offset="0%" stop-color="#FFF" stop-opacity="0"/>
            <stop offset="66%" stop-color="#FFF" stop-opacity=".23"/>
            <stop offset="95%" stop-color="#FFF"/>
        </linearGradient>
        <linearGradient id="l" x1="43.962%" x2="152.242%" y1="40.641%" y2="186.655%">
            <stop offset="0%" stop-color="#FFF" stop-opacity="0"/>
            <stop offset="23%" stop-color="#FFF" stop-opacity=".23"/>
            <stop offset="95%" stop-color="#FFF"/>
        </linearGradient>
        <linearGradient id="m" x1="0%" y1="50%" y2="50%">
            <stop offset="0%" stop-color="#FFF" stop-opacity="0"/>
            <stop offset="23%" stop-color="#FFF" stop-opacity=".23"/>
            <stop offset="95%" stop-color="#FFF"/>
        </linearGradient>
        <linearGradient id="n" x1="-.219%" x2="99.512%" y1="49.635%" y2="49.635%">
            <stop offset="0%" stop-color="#E5C6D6"/>
            <stop offset="42%" stop-color="#EAD4D0"/>
            <stop offset="100%" stop-color="#F0E9CB"/>
        </linearGradient>
        <linearGradient id="o" x1="-.302%" x2="99.917%" y1="49.896%" y2="49.896%">
            <stop offset="0%" stop-color="#E5C6D6"/>
            <stop offset="42%" stop-color="#EAD4D0"/>
            <stop offset="100%" stop-color="#F0E9CB"/>
        </linearGradient>
        <linearGradient id="p" x1="43.869%" x2="63.661%" y1="40.962%" y2="70.172%">
            <stop offset="0%" stop-color="#010101" stop-opacity="0"/>
            <stop offset="95%" stop-color="#010101"/>
        </linearGradient>
        <linearGradient id="q" x1=".027%" y1="49.989%" y2="49.989%">
            <stop offset="0%" stop-color="#FFF" stop-opacity="0"/>
            <stop offset="23%" stop-color="#FFF" stop-opacity=".23"/>
            <stop offset="95%" stop-color="#FFF"/>
        </linearGradient>
        <linearGradient id="r" x1="49.196%" x2="51.827%" y1="44.227%" y2="63.77%">
            <stop offset="0%" stop-color="#010101" stop-opacity="0"/>
            <stop offset="95%" stop-color="#010101"/>
        </linearGradient>
        <linearGradient id="s" x1="49.319%" x2="50.968%" y1="42.373%" y2="61.818%">
            <stop offset="0%" stop-color="#010101" stop-opacity="0"/>
            <stop offset="95%" stop-color="#010101"/>
        </linearGradient>
        <linearGradient id="t" x1="-.115%" x2="99.984%" y1="50.138%" y2="50.138%">
            <stop offset="0%" stop-color="#E5C6D6"/>
            <stop offset="42%" stop-color="#EAD4D0"/>
            <stop offset="100%" stop-color="#F0E9CB"/>
        </linearGradient>
        <linearGradient id="u" x1="61.349%" x2="23.826%" y1="43.457%" y2="72.405%">
            <stop offset="0%" stop-color="#010101" stop-opacity="0"/>
            <stop offset="95%" stop-color="#010101"/>
        </linearGradient>
        <linearGradient id="v" x1="38.08%" x2="76.247%" y1="52.229%" y2="45.091%">
            <stop offset="0%" stop-color="#010101" stop-opacity="0"/>
            <stop offset="95%" stop-color="#010101"/>
        </linearGradient>
        <linearGradient id="w" x1="50.543%" x2="49.197%" y1="2.697%" y2="118.568%">
            <stop offset="0%" stop-color="#FFF" stop-opacity="0"/>
            <stop offset="23%" stop-color="#FFF" stop-opacity=".23"/>
            <stop offset="95%" stop-color="#FFF"/>
        </linearGradient>
        <linearGradient id="x" x1="0%" y1="50%" y2="50%">
            <stop offset="0%" stop-color="#010101" stop-opacity="0"/>
            <stop offset="95%" stop-color="#010101"/>
        </linearGradient>
        <linearGradient id="y" x1="43.912%" x2="74.482%" y1="47.073%" y2="62.248%">
            <stop offset="0%" stop-color="#010101" stop-opacity="0"/>
            <stop offset="95%" stop-color="#010101"/>
        </linearGradient>
        <linearGradient id="z" x1="-41.542%" x2="329.375%" y1="23.24%" y2="125.373%">
            <stop offset="0%" stop-color="#010101" stop-opacity="0"/>
            <stop offset="95%" stop-color="#010101"/>
        </linearGradient>
        <linearGradient id="A" x1=".339%" x2="100.597%" y1="50.184%" y2="50.184%">
            <stop offset="0%" stop-color="#E5C6D6"/>
            <stop offset="42%" stop-color="#EAD4D0"/>
            <stop offset="100%" stop-color="#F0E9CB"/>
        </linearGradient>
        <linearGradient id="B" x1=".13%" x2="99.784%" y1="49.951%" y2="49.951%">
            <stop offset="0%" stop-color="#E5C6D6"/>
            <stop offset="42%" stop-color="#EAD4D0"/>
            <stop offset="100%" stop-color="#F0E9CB"/>
        </linearGradient>
        <linearGradient id="C" x1="19.87%" x2="186.617%" y1="100.115%" y2="-267.706%">
            <stop offset="0%" stop-color="#010101" stop-opacity="0"/>
            <stop offset="95%" stop-color="#010101"/>
        </linearGradient>
        <linearGradient id="D" x1="41.841%" x2="57.219%" y1="53.87%" y2="46.391%">
            <stop offset="0%" stop-color="#E5C6D6"/>
            <stop offset="42%" stop-color="#EAD4D0"/>
            <stop offset="100%" stop-color="#F0E9CB"/>
        </linearGradient>
        <linearGradient id="E" x1=".305%" x2="99.953%" y1="50.058%" y2="50.058%">
            <stop offset="0%" stop-color="#E5C6D6"/>
            <stop offset="42%" stop-color="#EAD4D0"/>
            <stop offset="100%" stop-color="#F0E9CB"/>
        </linearGradient>
        <linearGradient id="F" x1="-.049%" x2="99.617%" y1="50.031%" y2="50.031%">
            <stop offset="0%" stop-color="#E5C6D6"/>
            <stop offset="42%" stop-color="#EAD4D0"/>
            <stop offset="100%" stop-color="#F0E9CB"/>
        </linearGradient>
        <linearGradient id="G" x1=".325%" x2="100.342%" y1="50.12%" y2="50.12%">
            <stop offset="0%" stop-color="#E5C6D6"/>
            <stop offset="42%" stop-color="#EAD4D0"/>
            <stop offset="100%" stop-color="#F0E9CB"/>
        </linearGradient>
        <linearGradient id="H" x1="0%" y1="50.35%" y2="50.35%">
            <stop offset="0%" stop-color="#010101" stop-opacity="0"/>
            <stop offset="95%" stop-color="#010101"/>
        </linearGradient>
        <linearGradient id="I" x1="6.994%" x2="72.862%" y1="-21.053%" y2="155.556%">
            <stop offset="0%" stop-color="#010101" stop-opacity="0"/>
            <stop offset="95%" stop-color="#010101"/>
        </linearGradient>
        <linearGradient id="J" x1="4.314%" x2="178.792%" y1="11.466%" y2="238.017%">
            <stop offset="0%" stop-color="#010101" stop-opacity="0"/>
            <stop offset="95%" stop-color="#010101"/>
        </linearGradient>
        <linearGradient id="K" x1="47.304%" x2="59.826%" y1="32.122%" y2="143.89%">
            <stop offset="0%" stop-color="#010101" stop-opacity="0"/>
            <stop offset="95%" stop-color="#010101"/>
        </linearGradient>
        <linearGradient id="L" x1="40.696%" x2="102.846%" y1="43.825%" y2="112.395%">
            <stop offset="0%" stop-color="#010101" stop-opacity="0"/>
            <stop offset="95%" stop-color="#010101"/>
        </linearGradient>
    </defs>
    <g fill="none" fill-rule="nonzero">
        <g transform="translate(109)">
            <path fill="#FEBA85" d="M787.923 614.444c43.615-26.363 73.876-71.502 81.26-120.056 7.384-48.553-8.04-99.693-40.785-137.66-36.006-41.76-90.025-66.537-127.152-107.417-54.967-60.502-67.458-150.006-129.17-204.318C530.185 8.078 468.852-6.922 412.574 2.974 356.296 12.871 305.9 46.46 273.88 91.478c-45.392 63.95-54.502 147.712-106.294 207.127-23.964 27.484-55.57 47.881-82.813 72.417C22.958 426.455-16.723 511.354 6.914 588.84c5.503 18.07 14.491 35.587 28.656 48.777 26.396 24.57 65.888 30.536 102.705 33.915 126.617 11.604 254.183 7.294 381.283 2.966 28.018-.948 53.656-3.673 79.552-14.432 21.704-9 40.854-21.638 65.18-22.604 45.927-1.827 81.726 2.31 123.633-23.018z" opacity=".24"/>
            <path fill="#FEBA85" d="M553.314 353.234a19.15 19.15 0 0 0 1.536 11.663c.77 1.696 2.392 2.873 4.275 3.103a7.043 7.043 0 0 0 4.154-2.012c2.355-1.342 3.494-4.063 2.775-6.633-.75-6.82-1.449-13.879.61-20.46.338-.768.424-1.62.245-2.438-1.17-3.172-8.01-.426-9.459 1.279-2.897 3.512-3.647 11.168-4.136 15.498z"/>
            <path fill="url(#a)" d="M553.314 353.234a19.15 19.15 0 0 0 1.536 11.663c.77 1.696 2.392 2.873 4.275 3.103a7.043 7.043 0 0 0 4.154-2.012c2.355-1.342 3.494-4.063 2.775-6.633-.75-6.82-1.449-13.879.61-20.46.338-.768.424-1.62.245-2.438-1.17-3.172-8.01-.426-9.459 1.279-2.897 3.512-3.647 11.168-4.136 15.498z"/>
            <path fill="#FEBA85" d="M605 551.492c24.103-28.109 24.484-68.645 24.935-105.584.19-14.562 2.718-32.378 16.38-37.662 8.26-3.184 18.147 0 24.138 6.54 5.991 6.542 8.45 15.647 8.294 24.46-.138 7.075-1.731 14.098-1.385 21.172 1.472 24.908 27.099 41.208 36.623 64.29 6.7 16.267 4.71 35.442-3.706 50.917-8.415 15.474-22.805 27.282-39.012 34.322-13.195 5.732-28.519 8.418-42.042 3.443-13.524-4.975-24.138-19.175-21.524-33.255"/>
            <path fill="url(#b)" d="M605 551.492c24.103-28.109 24.484-68.645 24.935-105.584.19-14.562 2.718-32.378 16.38-37.662 8.26-3.184 18.147 0 24.138 6.54 5.991 6.542 8.45 15.647 8.294 24.46-.138 7.075-1.731 14.098-1.385 21.172 1.472 24.908 27.099 41.208 36.623 64.29 6.7 16.267 4.71 35.442-3.706 50.917-8.415 15.474-22.805 27.282-39.012 34.322-13.195 5.732-28.519 8.418-42.042 3.443-13.524-4.975-24.138-19.175-21.524-33.255"/>
            <path fill="#FEBA85" d="M707.652 466.592c.725-6.662.812-13.618 3.82-19.59a21.78 21.78 0 0 1 18.92-11.995 21.784 21.784 0 0 1 19.501 11.029c7.692 13.566-.708 30.066-5.72 44.875a100.713 100.713 0 0 0-1.539 59.39c3.353 11.84 8.919 24.164 5.064 35.918-4.027 12.202-18.2 19.313-30.955 17.5-12.756-1.811-23.575-11.063-29.798-22.316-9.298-16.863-12.772-35.796-3.456-52.4 10.958-19.814 21.656-39.576 24.163-62.41z"/>
            <g fill="#FEBA85" opacity=".24">
                <path d="M578.935 109.338a29.628 29.628 0 0 1-5.173 10.687 20.69 20.69 0 0 0 3.104 3.172c.236.23.537.38.862.43a1.725 1.725 0 0 0 1.104-.482l11.777-9.119c.264-.154.47-.39.587-.672.241-.655-.431-1.276-1.035-1.724a17.488 17.488 0 0 0-6.708-3.034 5.95 5.95 0 0 0-6.294 2.896M593.662 147.434a43.393 43.393 0 0 0-12.95-5.982 7.831 7.831 0 0 0-6.122.138c-2.69 1.62-2.708 5.792-.863 8.343 1.846 2.551 4.932 3.827 7.83 5.017a4.536 4.536 0 0 0 6.759-1.414l5.5-7.016M593.54 128.679a.931.931 0 0 0-.55.344.965.965 0 0 0 0 .621l.74 2.896c.023.147.097.28.208.38a.586.586 0 0 0 .344 0l8.33-.311c.43 0 .724-3.448.655-3.844-.242-1.414-.138-1.345-1.518-1.552-2.807-.07-5.599.428-8.208 1.466zM564.812 106.717c-1.801.31-3.546.891-5.173 1.724-.47.18-.868.507-1.138.931-.26.79.08 1.652.81 2.051a3.45 3.45 0 0 0 2.397.104 4.208 4.208 0 0 0 2.725-1.93 2.292 2.292 0 0 0-.759-3M576.383 99.857a8.502 8.502 0 0 0-5.363-2.62 1.363 1.363 0 0 0-.741 0 1.086 1.086 0 0 0-.38 1.413 3 3 0 0 0 1.156 1.12c.79.622 1.77.957 2.776.948 1-.137 1.862-1.292 1.362-2.154M595.386 99.305h-6.329c-.776 0-1.724.138-1.983.862-.258.724.483 1.482 1.26 1.586a6.365 6.365 0 0 0 2.258-.328 7.02 7.02 0 0 1 3.725.242c.454.243.98.317 1.483.206.914-.379.638-1.723.207-2.637M602.853 174.704l-3.363 2.448a8.12 8.12 0 0 0-2.845 2.93 2.81 2.81 0 0 0 .897 3.638c1.603.827 3.448-.707 4.242-2.327.793-1.62 1.327-3.534 2.862-4.465.604-.362 1.345-.552 1.725-1.138.41-.91.03-1.982-.863-2.43a5.261 5.261 0 0 0-2.793-.431M543.947 171.067c-1.07-.62-2.518-1.224-3.449-.362s.12 2.93 1.57 3.31c1.448.38 2.983 0 4.448.207a5.566 5.566 0 0 0-.776-4.482M410.03 134.402a98.897 98.897 0 0 1-7.795-16.445l-6.225 6.895a3.068 3.068 0 0 0-1 1.879c.075.702.385 1.357.88 1.861l5.397 6.689c1.448 1.81 3.12 3.74 5.414 4.05 2.294.311 4.846-2.223 3.604-4.188M414.392 71.138l-10.76 9.308c.276 2.828 4.449 2.793 7.07 1.724a10.484 10.484 0 0 0 5.604-4.154c1.104-2.103.293-5.31-2.035-5.81M356.986 95.392c.552 2.655-.293 5.447.138 8.136.432 2.69 3.208 5.43 5.605 4.137a5.05 5.05 0 0 0 2.12-4.016c.511-3.766.024-7.6-1.413-11.119M292.77 199.562a56.281 56.281 0 0 1-16.52 13.204c-1.225.638-2.604 1.43-2.811 2.793a4.36 4.36 0 0 0 1.414 3.223l5.07 6.034a2.69 2.69 0 0 0 4.414.465 281.434 281.434 0 0 0 10.484-7.55 13.413 13.413 0 0 0 4.018-4.103c1.725-3.155.638-7.223-1.603-10.033a27.9 27.9 0 0 0-8.622-6.343M314.014 226.229c.51 2.293.36 4.684-.43 6.895a9.581 9.581 0 0 0 .12 6.896c1.12 2.068 4.483 2.896 5.777.93 1.12-4.24 2.241-8.894.448-12.911-1.793-4.016-7.829-6.223-10.657-2.844M636.151 259.395c-.828 4.172.173 10.05 4.415 10.343 4.552.259 5.638-7.274 2.034-10.084-3.604-2.81-8.708-2.086-13.191-1.259M660.948 232.573a35.155 35.155 0 0 0-16.175 1.982c-.155 6.585 8.329 11.55 14.002 8.205l.397-10.342M273.525 422.623a42.806 42.806 0 0 0-32.04-14.446 22.11 22.11 0 0 0-1.551 14.084 61.778 61.778 0 0 1 22.055 10.343l8.311-13.55M329.379 386.06a62.531 62.531 0 0 0-21.418-.81 8.255 8.255 0 0 0 1.725 9.016 11.763 11.763 0 0 0 14.468-4.154 13.097 13.097 0 0 0-1.19-15.29M255.97 282.494a168.135 168.135 0 0 0-28.452-28.356 48.75 48.75 0 0 0-1.949 22.702 2420.61 2420.61 0 0 0 27.332 13.635M635.358 153.122a10.238 10.238 0 0 0-1.725-3.654 3.45 3.45 0 0 0-3.586-1.293 3.447 3.447 0 0 0-2.052 3.361 10.34 10.34 0 0 0 1.155 4 3.88 3.88 0 0 0-4.242 2.758 3.723 3.723 0 0 0 2.483 4.361 3.604 3.604 0 0 0 4.311-2.517 2.464 2.464 0 0 0 2.707 3.206 2.845 2.845 0 0 0 1.535-4.171 2.432 2.432 0 1 0 2.121-3.448 2.655 2.655 0 1 0-2.724-2.913M266.817 257.775c-2.345-.793-5.397-1.38-6.898.569a4.498 4.498 0 0 0-.655 3.447 6.223 6.223 0 0 0 3.449 4.948 4.07 4.07 0 0 0 5.294-2.017c.074 1.796.52 3.556 1.31 5.171a4.346 4.346 0 0 0 4.553 2.241 4.707 4.707 0 0 0 2.449-1.879c1.603-2.224 1.724-5.999-.776-7.102 1.885.692 3.92.87 5.897.517a3.847 3.847 0 1 0-.586-7.67 12.713 12.713 0 0 0-5.501.999 10.34 10.34 0 0 0-.604-8.033 3.086 3.086 0 0 0-1.086-1.258c-1.12-.62-2.5.19-3.449 1.12a10.875 10.875 0 0 0-2.88 8.74M250.383 172.774c.2-2.064-.101-4.146-.879-6.068a4.45 4.45 0 0 0-5.087-2.517 6.448 6.448 0 0 0-3.035 3.293 10.237 10.237 0 0 0-1.724 5.412c.138 1.931 1.724 3.862 3.69 3.569a16.684 16.684 0 0 0-5.329 10.618 2.86 2.86 0 0 0 .587 2.43 2.64 2.64 0 0 0 2.31.346 8.809 8.809 0 0 0 6.708-9.137c.673 2.224 2.052 4.965 4.363 4.69a3.897 3.897 0 0 0 2.776-2.431 8.238 8.238 0 0 0-3.673-10.481"/>
            </g>
            <path fill="#FFF" d="M179 507h223v145H179zM437 534h223v118H437z"/>
            <path fill="#FFF" d="M306 445h223v207H306z"/>
            <path fill="#FEBA85" d="M293.286 587.52c-6.158 0-7.736 0-10.286.274a34.14 34.14 0 0 1 1.44-8.011 34.837 34.837 0 0 1 9.887-15.182 95.67 95.67 0 0 1 12.141-9.006c5.898-3.929 7.337-5.696 7.337-8.818s-2.948-5.42-7.337-5.42a7.783 7.783 0 0 0-7.129 3.43 12.015 12.015 0 0 0-1.734 5.696l-14.397-1.493c1.04-5.901 2.272-8.886 5.013-12.008 3.903-4.529 10.147-6.982 18.16-6.982 9.246 0 16.305 3.054 19.722 8.577a14.378 14.378 0 0 1 2.273 7.926c.023 4.948-2.31 9.619-6.297 12.609a93.127 93.127 0 0 1-9.939 7.256c-5.967 4.066-8.499 6.433-10.077 9.418h15.975c3.66.067 7.32-.088 10.962-.463V588c-3.972-.326-6.851-.463-11.708-.463l-24.006-.017zM588.359 601.045a7.287 7.287 0 0 0 1.882 4.391 10.492 10.492 0 0 0 7.787 2.933c5.271 0 8.557-2.672 8.557-6.855.168-2.554-1.303-4.928-3.645-5.884a18.971 18.971 0 0 0-6.281-.902c-2.636 0-5.682.139-8.317.416V583.36a61.32 61.32 0 0 0 7.153.4c6.435 0 9.601-2.187 9.601-6.578 0-3.714-2.55-5.832-7.017-5.832-4.809 0-7.239 1.927-8.249 6.3l-14.615-2.117a19.947 19.947 0 0 1 4.535-8.678c4.125-4.53 10.354-6.855 18.586-6.855 7.376 0 13.469 2.065 17.32 5.831a13.396 13.396 0 0 1 3.782 9.737c0 7.272-3.851 11.801-11.638 13.641a15.069 15.069 0 0 1 8.728 3.645 13.57 13.57 0 0 1 4.467 10.135 15.408 15.408 0 0 1-2.704 9.129 17.042 17.042 0 0 1-6.35 5.207 36.058 36.058 0 0 1-14.067 2.672c-6.093 0-12.168-1.44-15.762-3.835a18.647 18.647 0 0 1-6.965-8.834 29.121 29.121 0 0 1-1.147-3.645l14.359-2.638z"/>
            <path fill="#606161" d="M296.193 227.765c.305.36.5.8.562 1.267.938 4.73-.989 9.509-2.864 13.968a6.043 6.043 0 0 0-1.465-4.898 12.66 12.66 0 0 0-4.262-3.074 2.694 2.694 0 0 1-.852-.574 1.929 1.929 0 0 1-.307-1.166 5.833 5.833 0 0 1 3.034-5.354c1.415-.81 4.79-1.537 6.154-.169z"/>
            <path fill="#FEBA85" d="M498.149 406.04A300.802 300.802 0 0 1 532 390l-5.326 52.523c-2.465 23.75-5.016 47.842-14.84 69.595-9.825 21.753-28.474 40.872-51.984 44.968-47.502 8.295-37.16-41.922-28.267-68.373a152.297 152.297 0 0 1 66.566-82.674z"/>
            <path fill="#FEBA85" d="M343.007 411.486A300.39 300.39 0 0 1 345.105 374l43.485 30.023c19.626 13.56 39.562 27.45 53.908 46.642 14.346 19.192 22.172 44.724 14.5 67.37-15.48 45.744-54.579 12.456-73.5-8.119-24.803-26.879-39.172-61.808-40.491-98.43z"/>
            <path fill="url(#c)" d="M485.201 425.107A300.797 300.797 0 0 1 519 409l-5.326 52.519c-2.413 23.712-4.946 47.89-14.788 69.589-9.841 21.7-28.473 40.869-52.033 44.982-47.501 8.277-37.16-41.919-28.284-68.385a152.407 152.407 0 0 1 66.632-82.598z"/>
            <path fill="url(#d)" d="M343.007 411.486A300.39 300.39 0 0 1 345.105 374l43.485 30.023c19.626 13.56 39.562 27.45 53.908 46.642 14.346 19.192 22.172 44.724 14.5 67.37-15.48 45.744-54.579 12.456-73.5-8.119-24.803-26.879-39.172-61.808-40.491-98.43z"/>
            <path fill="url(#e)" d="M365.007 450.486A300.403 300.403 0 0 1 367.09 413l43.483 30.037c19.626 13.55 39.561 27.445 53.924 46.577 14.362 19.132 22.171 44.763 14.5 67.403-15.48 45.782-54.578 12.461-73.515-8.123-24.796-26.867-39.16-61.79-40.474-98.408z"/>
            <path fill="#FEBA85" d="M200.44 515.516c4.497-6.47 9.998-12.302 13.475-19.34 7.507-15.209 4.583-33.825 11.658-49.224 1.418-3.131 3.46-6.28 6.729-7.467 5.033-1.84 10.517 1.841 13.457 6.28 10.05 15.14 1.644 35.185 2.284 53.337.346 9.962 3.46 19.597 5.189 29.404.847 4.8 1.314 9.859-.346 14.452a31.38 31.38 0 0 1-5.899 9.137c-13.457 16.173-32.294 26.892-51.252 11.32-15.222-12.645-4.895-34.135 4.705-47.9zM307 446h51v58h-51z"/>
            <path fill="url(#f)" d="M307 446h51v58h-51z"/>
            <path fill="#FEBA85" d="M179 507h50v155h-50z"/>
            <path fill="url(#g)" d="M179 506h51v153h-51z"/>
            <path fill="#FEBA85" d="M427.034 470c2.668.398 5.366.553 8.061.464h8.504c2.78.086 5.564-.006 8.333-.275a105.412 105.412 0 0 0-.476 10.926v35.578A78.08 78.08 0 0 0 452 527h-14.643c.396-3.42.572-6.864.527-10.307v-34.616h-2.687a73.246 73.246 0 0 0-8.197.464l.034-12.541z"/>
            <path fill="#606161" d="M415.049 310l4.133 127s-11.453 5.874-11.177 8.639c.275 2.764 24.11.466 24.11.466l8.44-115.388h3.995l8.13 114.922s14.104 3.214 17.566 2.142c3.461-1.07-6.114-10.16-6.114-10.16l5.718-125.548L415.049 310z"/>
            <path fill="url(#h)" d="M415.049 310l4.133 127s-11.453 5.874-11.177 8.639c.275 2.764 24.11.466 24.11.466l8.44-115.388h3.995l8.13 114.922s14.104 3.214 17.566 2.142c3.461-1.07-6.114-10.16-6.114-10.16l5.718-125.548L415.049 310z"/>
            <path fill="#606161" d="M249.53 368l2.652 127.152s-11.453 5.848-11.177 8.514c.275 2.666 24.11.464 24.11.464l8.457-114.872h3.978l8.13 114.408s14.104 3.182 17.566 2.115c3.461-1.066-6.114-10.095-6.114-10.095l5.718-124.969L249.53 368z"/>
            <path fill="url(#i)" d="M249.53 368l2.652 127.152s-11.453 5.848-11.177 8.514c.275 2.666 24.11.464 24.11.464l8.457-114.872h3.978l8.13 114.408s14.104 3.182 17.566 2.115c3.461-1.066-6.114-10.095-6.114-10.095l5.718-124.969L249.53 368z"/>
            <path fill="#606161" d="M564.049 396l4.133 127.095s-11.453 5.879-11.177 8.559c.275 2.68 24.11.466 24.11.466l8.457-115.476h3.978l8.13 115.01s14.104 3.198 17.566 2.126c3.461-1.072-6.114-10.149-6.114-10.149l5.77-125.66L564.048 396z"/>
            <path fill="url(#j)" d="M564.049 396l4.133 127.095s-11.453 5.879-11.177 8.559c.275 2.68 24.11.466 24.11.466l8.457-115.476h3.978l8.13 115.01s14.104 3.198 17.566 2.126c3.461-1.072-6.114-10.149-6.114-10.149l5.77-125.66L564.048 396z"/>
            <path fill="#FEBA85" d="M418.554 76C396.174 65.966 396 22.684 396 20.855V18h21.912v5.641h-16.117c.433 9.47 3.105 39.983 19.205 47.197L418.554 76z"/>
            <path fill="url(#k)" d="M418.554 76C396.174 65.966 396 22.684 396 20.855V18h21.912v5.641h-16.117c.433 9.47 3.105 39.983 19.205 47.197L418.554 76z"/>
            <path fill="url(#l)" d="M467.383 79L465 73.8c16.312-7.33 20.132-39.167 20.92-49.098h-16.172V19H492l-.105 2.964c-.088 1.906-1.98 46.897-24.512 57.036z"/>
            <path fill="url(#m)" d="M467.383 79L465 73.8c16.312-7.33 20.132-39.167 20.92-49.098h-16.172V19H492l-.105 2.964c-.088 1.906-1.98 46.897-24.512 57.036z"/>
            <path fill="#FEBA85" d="M402.884 218.687c-4.277-22.144 0-62.723.468-64.104 1.645-4.125 7.326 1.209 12.02.397-3.95 14.844 4.104 60.549 5.715 62.793a5.515 5.515 0 0 0 1.836 1.847c.73.304 1.512.463 2.303.466a46.92 46.92 0 0 0 11.83-.812c6.927-1.329 11.725-.535 17.492 0 4.766.437 9.045-2.91 9.751-7.629a190.335 190.335 0 0 0 .693-50.969l8.815-.19a5.663 5.663 0 0 1 3.1.535 4.654 4.654 0 0 1 1.733 3.59c2.2 16.363 1.731 42.357-1.403 58.547-4.4 22.887-8.037 29.618-7.17 53.11 0 1.725 1.524 35.935 0 37.074-2.633 2.088-51.405 5.61-55.146-2.002-.536-1.088-.727-37.196-.814-38.283-.311-4.212-7.049-32.812-11.223-54.37z"/>
            <path fill="url(#n)" d="M414.538 140.058c.276-.077.57-.077.846 0 .301.147.54.396.673.702.624 1.64.883 3.394.76 5.142.202 1.816.79 3.569 1.727 5.142 1.969 4.473-2.832 5.141-6.908 4.919-9.031-.669-3.108-14.449 2.902-15.905z"/>
            <path fill="url(#o)" d="M465.13 157.17c-.432 1.712.236 3.518 1.66 4.493a8.552 8.552 0 0 0 4.768 1.29 5.493 5.493 0 0 0 4.236-1.239 6.371 6.371 0 0 0 1.063-5.077c-.232-2.34-1.096-11.134-5.266-7.95-1.345 1.032-1.56 3.441-2.873 4.801-1.312 1.36-2.99 1.841-3.588 3.683z"/>
            <path fill="#606161" d="M415 121h58v34h-58z"/>
            <path fill="url(#p)" d="M415 121h58v34h-58z"/>
            <path fill="#FEBA85" d="M413.017 15H476v45.327C476 77.819 461.897 92 444.5 92S413 77.82 413 60.327V15h.017z"/>
            <path fill="url(#q)" d="M413.017 15H476v45.327C476 77.819 461.897 92 444.5 92S413 77.82 413 60.327V15h.017z"/>
            <path fill="#FEBA85" d="M432 88h24v8h-24z"/>
            <path fill="url(#r)" d="M432 88h24v6h-24z" opacity=".26"/>
            <path fill="#FEBA85" d="M439 94h9v13h-9zM431 107h24v7h-24z"/>
            <path fill="url(#s)" d="M431 107h24v7h-24z" opacity=".26"/>
            <path fill="#FEBA85" d="M463 118.193v1.922a3.569 3.569 0 0 1-.12.885h-39.777a4.659 4.659 0 0 1-.103-.885v-1.922a4.121 4.121 0 0 1 1.25-2.964 4.347 4.347 0 0 1 3.038-1.229h31.372a4.349 4.349 0 0 1 3.072 1.212 4.122 4.122 0 0 1 1.268 2.981z"/>
            <path fill="url(#t)" d="M456.422 199.565c1.482 2.534 2.999 5.346 2.47 8.245-.92 5.05-7.429 7.168-9.082 12.028-1.005 2.95-.12 6.682-2.232 8.939-2.113 2.256-6.68 1.18-8.759-1.51-2.079-2.69-2.658-6.231-3.766-9.46-1.278-3.697-3.272-7.064-4.805-10.657a24.318 24.318 0 0 1-2.216-11.473c.254-3.997 2.353-7.636 5.658-9.806 3.408-1.979 10.224-2.725 13.632-.556 4.09 2.482 6.85 10.24 9.1 14.25z"/>
            <path fill="#606161" d="M448.09 176.293a8.395 8.395 0 0 1-.922 4.246 3.303 3.303 0 0 1 2.832-.136 29.635 29.635 0 0 1-3.283 4.314 7.54 7.54 0 0 1-3.614 2.507c-1.007.222-2.05.102-3.057.324a8.008 8.008 0 0 0-3.77 2.626 9.98 9.98 0 0 0-2.85 4.587c-.66 3.257 1.825 6.31 2.277 9.601-.834.478-1.911-.835-2.728-.358a1.304 1.304 0 0 0-.52 1.074 6.348 6.348 0 0 0 2.605 5.61l-.573 3.82c-.019.452-.19.884-.487 1.228-.834.734-2.067-.204-2.727-1.09a91.033 91.033 0 0 1-8.686-14.41 13.247 13.247 0 0 1-1.546-4.741 5.066 5.066 0 0 1 1.737-4.485c.352-.207.673-.459.955-.75.35-.553.53-1.192.521-1.842.747-5.935 6.254-8.22 11.362-9.857 1.824-.597 3.7-1.023 5.507-1.705 1.511-.427 6.81-3.581 6.966-.563z"/>
            <path fill="url(#u)" d="M448.09 176.293a8.395 8.395 0 0 1-.922 4.246 3.303 3.303 0 0 1 2.832-.136 29.635 29.635 0 0 1-3.283 4.314 7.54 7.54 0 0 1-3.614 2.507c-1.007.222-2.05.102-3.057.324a8.008 8.008 0 0 0-3.77 2.626 9.98 9.98 0 0 0-2.85 4.587c-.66 3.257 1.825 6.31 2.277 9.601-.834.478-1.911-.835-2.728-.358a1.304 1.304 0 0 0-.52 1.074 6.348 6.348 0 0 0 2.605 5.61l-.573 3.82c-.019.452-.19.884-.487 1.228-.834.734-2.067-.204-2.727-1.09a91.033 91.033 0 0 1-8.686-14.41 13.247 13.247 0 0 1-1.546-4.741 5.066 5.066 0 0 1 1.737-4.485c.352-.207.673-.459.955-.75.35-.553.53-1.192.521-1.842.747-5.935 6.254-8.22 11.362-9.857 1.824-.597 3.7-1.023 5.507-1.705 1.511-.427 6.81-3.581 6.966-.563z"/>
            <path fill="url(#v)" d="M416 14v51.16s1.074 10.396 6.686 15.801A43.853 43.853 0 0 0 435 89s-5.075-1.871-5.612-24.636c-.537-22.765 0-50.087 0-50.087L416 14z" opacity=".26"/>
            <path fill="url(#w)" d="M424 127h40v21h-40z"/>
            <path fill="#FFF" d="M427 220.662l6.35-2.123s12.82 28.098 12.942 28.637c.122.54 6.733-29.176 6.733-29.176l4.975 1.34L446.97 264 427 220.662z"/>
            <path fill="url(#x)" d="M435 220.4l-2-1.22.608 1.64z"/>
            <path fill="#FEBA85" d="M429 220.476L446.484 259 456 219.26l-1.6-.26-8.38 34.095-15.437-33.435z"/>
            <circle cx="447.5" cy="267.5" r="6.5" fill="#FFF"/>
            <path fill="#FEBA85" d="M228.616 280.444c-8.387-13.42-14.157-28.133-19.513-42.862-1.257-3.441-2.084-8.087 1.223-10.014a6.411 6.411 0 0 1 7.027 1.17 19.546 19.546 0 0 1 4.099 6.04 133.164 133.164 0 0 0 7.784 12.302l13.778 20.184a22.116 22.116 0 0 0 4.943 5.713c4.942 3.665 11.952 3.063 18.186 2.271a69.378 69.378 0 0 1 33.325 3.114 49.06 49.06 0 0 1 12.056 7.038 158.405 158.405 0 0 1 17.635 15.176c4.168 4.147 8.353 9.74 6.304 15.125-1.499 3.889-5.821 6.143-9.99 7.485-4.167 1.342-12.916 2.616-16.36 5.162a181.728 181.728 0 0 0-3.324 18.928l-1.533 17.688c-.327 3.769-.827 7.898-3.754 10.48a15.611 15.611 0 0 1-7.544 2.976 91.737 91.737 0 0 1-35.391-.292c-2.653-.534-5.494-1.343-7.044-3.442a10.145 10.145 0 0 1-1.533-5.162c-1.843-17.585-.568-35.429-3.668-52.86a40.203 40.203 0 0 0-3.6-11.803c-2.928-5.575-11.315-21.491-13.106-24.417z"/>
            <path fill="url(#y)" d="M300.296 329.952s0 44.444-6.296 48.048c0 0 10.225-1.716 10.678-10.536C306.105 339.338 310 327 310 327l-9.704 2.952z"/>
            <path fill="url(#z)" d="M300.152 329.576a110.675 110.675 0 0 0-13.478-.994 12.92 12.92 0 0 1-4.793-.634c-2.837-1.182-4.273-4.249-5.484-7.042a23.582 23.582 0 0 1-2.63-10.28 6.517 6.517 0 0 0-.087-2.656c-.623-1.8-2.837-2.33-4.602-3.102-6.073-2.621-8.391-9.869-9.481-16.346-.779-4.677-1.194-9.818 1.35-13.827a46.308 46.308 0 0 0 5.622 18.71 17.262 17.262 0 0 0 5.554 6.563 7.972 7.972 0 0 0 8.253.497 3.788 3.788 0 0 0 1.436-1.422c.259-.541.428-1.12.502-1.714a114.971 114.971 0 0 0 1.834-23.234c1.113-.32 2.299.19 2.82 1.217a6.32 6.32 0 0 1 .57 3.255 48.065 48.065 0 0 1-4.446 19.55c-1.591 3.427-3.581 7.368-1.73 10.624a10.818 10.818 0 0 0 3.997 3.427 34.203 34.203 0 0 0 9.031 4.42c3.236.857 6.765.771 9.707 2.365 2.543 1.388 5.346 4.986 4.844 8.07-.623 3.975-5.71 2.964-8.79 2.553z"/>
            <circle cx="285" cy="312" r="8" fill="#FFF"/>
            <path fill="url(#A)" d="M210.57 229.777c1.898.568 3.965.031 5.308-1.378 1.273-1.4 1.652-3.355.99-5.102a9.832 9.832 0 0 1-.53-1.53 6.355 6.355 0 0 1 .778-3.402 13.117 13.117 0 0 0 .797-6.242 2.713 2.713 0 0 0-.443-1.377 3.213 3.213 0 0 0-1.486-.953 11.53 11.53 0 0 0-7.52-.306c-2.421.713-4.35 2.486-5.2 4.78-1.292 4.302 2.335 13.792 7.306 15.51z"/>
            <path fill="url(#B)" d="M296.88 254.614a12.193 12.193 0 0 1-1.75 8.189c-1.384 1.802-8.6 3.433-10.509 4.772-1.908 1.339-1.436 9.647-2.329 11.57-.613 1.321-2.417 5.956-5.551 5.853-1.927-.086-6.533-3.587-7.846-4.892a7.26 7.26 0 0 1-1.629-4.377 158.86 158.86 0 0 1-.893-30.9c.21-3.123.648-6.522 3.012-8.754a12.102 12.102 0 0 1 6.428-2.695c4.535-.738 13.362-.687 16.672 2.798 3.66 3.828 4.098 13.613 4.395 18.436z"/>
            <path fill="#606161" d="M291.051 233.895a17.95 17.95 0 0 1-3.035 1.308c-4.184 1.742-7.579 5.559-11.883 6.796-1.509.419-3.43.75-3.96 2.388-.201.683-.265 1.4-.19 2.109l.275 8.504a2.558 2.558 0 0 0-2.358-1.158c-.935.08-1.753.67-2.135 1.542a6.504 6.504 0 0 0 .566 5.943c-1.42.503-2.921.727-4.424.662a4.56 4.56 0 0 1-3.72-2.527 11.733 11.733 0 0 1-.515-4.549c0-2.562-.583-5.089-.669-7.65-.127-7.904 3.434-15.402 9.603-20.217a31.056 31.056 0 0 1 19.839-6.012 7.269 7.269 0 0 1 4.818 1.342 5.467 5.467 0 0 1 1.715 4.496 13.3 13.3 0 0 1-3.927 7.023z"/>
            <path fill="#FEBA85" d="M618.551 316.567c3.363 7.146 3.449 15.34 3.449 23.225v37.243c0 7.68 0 15.461-2 22.9a6.865 6.865 0 0 1-2.345 4.157 7.283 7.283 0 0 1-4.208.876 453.857 453.857 0 0 1-36.816-1.203c-3.345-.257-6.898-.635-9.45-2.851-2.552-2.216-3.449-6.322-3.949-9.93-1.19-8.675 2.604-22.693 2.052-31.436-.948-14.946-5.397-25.545 2.346-38.377a30.202 30.202 0 0 1 5.483-6.872c11.795-10.77 37.437-14.756 45.438 2.268z"/>
            <path fill="#FFF" d="M583.546 307L575 335.467l1.853.533 3.982-5.848L586 312.728z"/>
            <path fill="#FEBA85" d="M584.253 308L576 336l.815-.086 1.189-1.99L585 310.042z"/>
            <ellipse cx="574.5" cy="350" fill="#FFF" rx="6.5" ry="8"/>
            <path fill="url(#C)" d="M616.224 321.717s7.456 7.688 3.736 23.87c-3.719 16.183-18.94 35.815-25.294 33.172-6.354-2.643-31.27-36.037-31.27-36.037L563 333.97l29.806 17.52s9.591-28.177 14.98-30.563a7.58 7.58 0 0 1 8.438.79z"/>
            <path fill="url(#D)" d="M557.078 318.793a60.619 60.619 0 0 0-.598 18.995c.023.644.285 1.256.734 1.715.379.242.815.378 1.264.394a6.884 6.884 0 0 0 2.372 0 5.133 5.133 0 0 0 3.312-3.429c.473-1.508.71-3.081.7-4.663l.085-4.44c.14-2.294.002-4.597-.41-6.858-1.16-4.766-6.128-8.709-7.46-1.714z"/>
            <path fill="url(#E)" d="M566.748 317.958c-.793-1.483-2.044-3.193-3.718-2.931a3.518 3.518 0 0 0-2.237 1.745 14.034 14.034 0 0 0-1.321 10.47 38.193 38.193 0 0 0 4.193 9.894 9.761 9.761 0 0 0 2.43 3.263 8.166 8.166 0 0 0 3.524 1.396 5.046 5.046 0 0 0 3.788-.384 4.43 4.43 0 0 0 1.585-3.594c.23-7.277-4.827-13.577-8.244-19.859z"/>
            <path fill="url(#F)" d="M575.193 293.56a20.778 20.778 0 0 0 0 5.649 6.965 6.965 0 0 0 2.88 4.692c1.884 1.182 4.66 1.217 5.74 3.198.806 1.495.258 3.58 1.389 4.832a4.516 4.516 0 0 0 3.256 1.026c2.742.104 5.724.156 7.918-1.53 2.725-2.103 3.17-6.013 3.428-9.49l1.028-16.407a14.17 14.17 0 0 0-1.097-8.03 11.492 11.492 0 0 0-3.925-3.632 15.608 15.608 0 0 0-8.175-2.868c-3.976 0-9.22 2.92-10.814 6.796a22.897 22.897 0 0 0-.771 6.5l-.857 9.264z"/>
            <path fill="#606161" d="M585.133 265.743c-2.858.443-5.977-1.602-8.558-.307a5.724 5.724 0 0 0-2.53 5.488 3.484 3.484 0 0 0 .52 1.909c.386.452.89.793 1.456.988a20.253 20.253 0 0 0 11.226.682 4.788 4.788 0 0 1 2.304 0 3.966 3.966 0 0 1 1.49 1.057 12.28 12.28 0 0 1 3.933 5.385c.675 2.506-.278 5.3.796 7.653a7.44 7.44 0 0 0 2.097-2.301 5.346 5.346 0 0 1-1.49 6.817 10.57 10.57 0 0 1 3.95 3.886 28.129 28.129 0 0 0 6.375-6.817c.82-.992 1.48-2.101 1.958-3.29 1.091-3.22-.641-6.663-2.408-9.578-2.252-3.783-4.834-7.686-8.836-9.646a12.538 12.538 0 0 0-10.03-.341 11.814 11.814 0 0 1-2.253-1.585z"/>
            <path fill="url(#G)" d="M295.45 310.587a3.414 3.414 0 0 0-1.734-.585 1.438 1.438 0 0 0-1.404.922c-.03.312-.106.617-.225.905a1.258 1.258 0 0 1-.798.443 38.586 38.586 0 0 1-6.57.195c-2.24-.093-4.34 1.116-5.426 3.122a5.256 5.256 0 0 0 0 3.459c1.352 3.5 4.41 6.01 8.044 6.599 3.571.552 7.21.456 10.748-.284a4.95 4.95 0 0 0 2.41-.798c1.37-1.082 5.756-4.01 4.16-4.683-6.483-2.714-5.46-7.095-9.205-9.295z"/>
            <path fill="#FFF" d="M283 304l-1.32-.343a55.383 55.383 0 0 0-7.96-1.473c-2.225 0-12.53-3.426-13.503-8.908A159.91 159.91 0 0 1 259 274.878l1.095-.565 2.068-1.011 2.572-1.302s-.869 14.561 2.172 19.135c3.042 4.574 13.226 5.293 14.65 9.08.122.29.174.513.296.736L283 304z"/>
            <path fill="#FFF" d="M285.337 272l4.998 3.057s2.89 4.38 1.054 8.245c-1.836 3.865-8.024 14.394-6.12 20.08l-1.836.618-2.414-4.724s-.544-5.496 4.2-14.256c4.742-8.76.118-13.02.118-13.02z"/>
            <path fill="url(#H)" d="M284.345 273L282 274.734l4 .266a6.466 6.466 0 0 0-1.655-2z"/>
            <path fill="url(#I)" d="M265.13 272l1.87 2.632-1.036.21L265 275z"/>
            <path fill="#FEBA85" d="M283.008 304c-.377-.305-3.14-3.546 2.494-14.729C290.74 278.887 286.99 274 286.955 274l1.866.848c.161.204 3.588 3.801-2.045 15.102-5.131 10.181-2.422 13.846-2.387 13.863l-1.381.187z"/>
            <path fill="#FEBA85" d="M284 304.316l-.91.342-.982.342c-.122-.222-.227-.513-.35-.684-1.103-1.711-3.345-2.31-6.288-3.148a27.681 27.681 0 0 1-11.139-5.304c-4.098-3.421-4.378-15.722-4.326-20.855L262.09 274c-.175 5.458.28 17.519 3.503 20.393a25.444 25.444 0 0 0 10.386 4.859 21.14 21.14 0 0 1 5.885 2.36 5.837 5.837 0 0 1 2.137 2.704z"/>
            <path fill="url(#J)" d="M300.605 316L315 307.19 303.227 296 298 313.052z"/>
            <path fill="#FEBA85" d="M616.195 313.775s7.515 7.68 3.749 23.846c-3.766 16.166-19.09 35.779-25.475 33.138-6.387-2.64-24.469-29.418-24.469-29.418l4.616-8.229 17.978 10.286s9.65-28.08 15.011-30.463a7.693 7.693 0 0 1 8.59.84z"/>
            <path fill="#FFF" d="M605 305.805L600.079 303 577 335.723l3.665 4.277z"/>
            <path fill="#FEBA85" d="M602.38 304L578 336.677l1.08 1.323L604 304.67z"/>
        </g>
        <path fill="#FEBA85" d="M111.235 465.028c.135-26.325 5.623-52.301 7.888-78.519 51.33 40.997 86.198 99.145 98.2 163.767 1.644 9.049 2.835 18.317 1.459 27.38-2.01 13.318-15.103 37.34-30.857 38.536-14.046 1.051-32.369-26.42-40.195-37.444a196.551 196.551 0 0 1-36.495-113.72z"/>
        <path fill="url(#K)" d="M139.418 80.321c9.13-24.69 23.186-47.205 34.279-71.084 34.205 56.086 47.079 122.657 36.26 187.491-1.55 9.048-3.618 18.164-8.01 26.228-6.443 11.81-26.958 29.921-42.15 25.64-13.574-3.816-21.395-35.88-24.978-48.932a196.58 196.58 0 0 1 4.6-119.343z" transform="rotate(-20 1219.049 352.1)"/>
        <path fill="#FEBA85" d="M77.45 626.428c-5.389-19.832-7.664-41.163-19.338-58.157-15.243-22.527-44.776-34.45-54.282-59.962-4.626-12.71-3.46-26.797-.506-39.996a26.27 26.27 0 0 1 3.669-9.576c3.938-5.517 11.614-7.45 18.215-5.952 6.601 1.498 12.201 5.924 16.704 11.007 15.606 17.743 19.685 43.728 36.183 60.707 17.226 17.72 44.46 21.965 63.102 38.2a63.277 63.277 0 0 1 19.323 62.136c-5.007 19.422-23.45 41.134-44.11 45.247-21.704 4.31-34.275-26.46-38.96-43.654z"/>
        <path fill="url(#L)" d="M66.5 247.994c1.719-20.479 6.877-41.301 1.719-61.264-6.62-26.381-30.294-47.686-30.5-74.91 0-13.527 5.914-26.365 13.204-37.758a26.27 26.27 0 0 1 6.722-7.744c5.588-3.837 13.462-3.028 19.153.637 5.69 3.666 9.439 9.74 11.932 16.056 8.596 22.01 3.541 47.824 13.238 69.421 10.127 22.544 34.265 35.847 46.231 57.479a63.277 63.277 0 0 1-3.094 64.998C133.757 291.447 109 305.541 88.18 302.34c-21.87-3.373-23.159-36.586-21.68-54.346z" transform="rotate(-20 1145.077 406.16)"/>
        <path fill="#FEBA85" d="M974.185 466.108A300.994 300.994 0 0 1 1008 450l-5.328 52.523c-2.414 23.715-4.95 47.894-14.795 69.595-9.846 21.701-28.487 40.872-52.007 44.968-47.524 8.295-37.177-41.922-28.297-68.373 11.579-34.606 35.215-63.917 66.612-82.605z"/>
        <path fill="#FEBA85" d="M954.854 613.58c7.826-22.726 18.456-47.144 40.076-57.505 9.253-4.42 19.625-5.768 29.824-6.649a392.954 392.954 0 0 1 69.246.208c-10.784 15.956-21.81 32.171-36.825 44.19-11.025 8.825-23.873 15.11-35.018 23.78-10.681 8.306-19.9 18.857-32.164 24.556-7.516 3.454-31.406 10.258-38.957 4.783-9.58-6.959.464-23.606 3.818-33.363zM75.78 551.006a765.995 765.995 0 0 0 24.388 36.725c10.282 14.623 21.377 29.207 36.293 39.15 25.86 17.401 59.85 18.381 90.131 11.033a1068 1068 0 0 1-25.106-60.65c-5.353-14.103-8.069-23.785-22.331-29.962-15.688-6.816-34.245-9.3-51.222-8.905-4.532.217-53.872 9.856-52.154 12.61z"/>
    </g>
</svg>
