<svg xmlns="http://www.w3.org/2000/svg" width="513" height="435" viewBox="0 0 513 435">
    <defs>
        <linearGradient id="a" x1="-.07%" x2="100.01%" y1="49.948%" y2="49.948%">
            <stop offset="0%" stop-opacity="0"/>
            <stop offset="99%"/>
        </linearGradient>
        <linearGradient id="b" x1="0%" y1="49.998%" y2="49.998%">
            <stop offset="0%" stop-opacity="0"/>
            <stop offset="99%"/>
        </linearGradient>
        <linearGradient id="c" x1="37.849%" x2="167.875%" y1="61.949%" y2="-18.945%">
            <stop offset="0%" stop-opacity="0"/>
            <stop offset="99%"/>
        </linearGradient>
        <linearGradient id="d" x1="152.375%" x2="-13.443%" y1="-62.691%" y2="119.837%">
            <stop offset="0%" stop-color="#FFF" stop-opacity="0"/>
            <stop offset="99%" stop-color="#FFF"/>
        </linearGradient>
        <linearGradient id="e" x1="41.538%" x2="54.483%" y1="-12822.493%" y2="6887.473%">
            <stop offset="0%" stop-opacity="0"/>
            <stop offset="99%"/>
        </linearGradient>
        <linearGradient id="f" x1="-.491%" x2="99.295%" y1="49.758%" y2="49.758%">
            <stop offset="0%" stop-color="#ECC4D7"/>
            <stop offset="42%" stop-color="#EFD4D1"/>
            <stop offset="100%" stop-color="#F2EAC9"/>
        </linearGradient>
        <linearGradient id="g" x1="47.043%" x2="208.18%" y1="60.697%" y2="-299.884%">
            <stop offset="0%" stop-opacity="0"/>
            <stop offset="99%"/>
        </linearGradient>
        <linearGradient id="h" x1="-.151%" x2="99.858%" y1="49.866%" y2="49.866%">
            <stop offset="0%" stop-color="#ECC4D7"/>
            <stop offset="42%" stop-color="#EFD4D1"/>
            <stop offset="100%" stop-color="#F2EAC9"/>
        </linearGradient>
        <linearGradient id="i" x1="52.746%" x2="59.318%" y1="45.479%" y2="41.576%">
            <stop offset="0%" stop-opacity="0"/>
            <stop offset="99%"/>
        </linearGradient>
        <linearGradient id="j" x1=".04%" x2="99.887%" y1="50.081%" y2="50.081%">
            <stop offset="0%" stop-color="#ECC4D7"/>
            <stop offset="42%" stop-color="#EFD4D1"/>
            <stop offset="100%" stop-color="#F2EAC9"/>
        </linearGradient>
        <linearGradient id="k" x1=".013%" x2="100.036%" y1="50.071%" y2="50.071%">
            <stop offset="0%" stop-color="#ECC4D7"/>
            <stop offset="42%" stop-color="#EFD4D1"/>
            <stop offset="100%" stop-color="#F2EAC9"/>
        </linearGradient>
        <linearGradient id="l" x1="62.577%" x2="-91.863%" y1="68.388%" y2="-219.772%">
            <stop offset="0%" stop-opacity="0"/>
            <stop offset="99%"/>
        </linearGradient>
        <linearGradient id="m" x1="50.002%" x2="50.002%" y1="208.092%" y2="-98.947%">
            <stop offset="0%" stop-color="#FFF" stop-opacity="0"/>
            <stop offset="99%" stop-color="#FFF"/>
        </linearGradient>
        <linearGradient id="n" x1="99.424%" x2="-189.945%" y1="37.505%" y2="112.233%">
            <stop offset="0%" stop-opacity="0"/>
            <stop offset="99%"/>
        </linearGradient>
        <linearGradient id="o" x1="58.702%" x2="161.575%" y1="51.514%" y2="114.654%">
            <stop offset="0%" stop-opacity="0"/>
            <stop offset="99%"/>
        </linearGradient>
        <linearGradient id="p" x1="74.508%" x2="26.125%" y1="-61.705%" y2="148.38%">
            <stop offset="0%" stop-color="#FFF" stop-opacity="0"/>
            <stop offset="99%" stop-color="#FFF"/>
        </linearGradient>
        <linearGradient id="q" x1="77.332%" x2="-95.496%" y1="39.995%" y2="103.521%">
            <stop offset="0%" stop-opacity="0"/>
            <stop offset="99%"/>
        </linearGradient>
    </defs>
    <g fill="none" fill-rule="nonzero">
        <path fill="#FE7891" d="M32.04 202.97C15.72 222.46-1.56 244.71.11 270.09c1.33 20.12 14.62 38.22 14.42 58.35-.2 20.13-14 39-11 59 3.34 22.7 26.89 36.74 49.2 42.13 47.1 11.38 96.19-1 144.49-4.8 37.08-2.91 74.35-.69 111.47 1.53l104.29 6.2c14 .84 28.5 1.61 41.59-3.41 12-4.59 21.69-13.64 30-23.35 18.21-21.16 31.88-48.71 27.61-76.29-6.89-44.46-56.94-74.14-59.81-119-.94-14.68 3.15-30.86-4.86-43.19-3.15-4.85-7.86-8.46-12.75-11.53-30.48-19.1-68.64-19.56-104.61-19.42l-176.08.66c-19.43.07-52.14-6.34-69.21 3.54-8.64 4.99-52.82 52.99-52.82 62.46z" opacity=".18"/>
        <path fill="url(#a)" d="M477.42 342.47c.75 8.45-1.11 15.66-4.24 19.57s-7.81 6.35-12.65 7.65c-4.84 1.3-20.55 5.24-25.55 5.52 4.86-1.51 23.56-7.16 26-11.63a57.72 57.72 0 0 0 2.68-6.33c1.65-4.15 3.81-23.57 7-26.76 3.71-3.68 6.4 7.88 6.76 11.98z" opacity=".1" transform="translate(-1)"/>
        <path fill="url(#b)" d="M268.7 365.91a1205.8 1205.8 0 0 0-134.26-4.64c-12.72.28-27.64-.29-34.94-10.71 8.15-6.35 19.23-7 29.55-7.35 101.43-3.62 195.51-6.69 296.94-10.31-4.65-3.37 0-11.6-.94-17.27 10-3.06 31.16 1.69 37.73 8.64-6.15-4.41-19.27-6-24.87-3.71-5.6 2.29-10.14 7.33-7.09 12.54.9 1.54 2.35 2.85 2.59 4.62.4 2.95-2.69 5.09-5.44 6.23-24.23 10-53.69.43-77.1 12.26a8.92 8.92 0 0 0-3.56 2.75c-3.48 5.29 4.68 10.48 10.92 11.53a447.07 447.07 0 0 0 67.54 6.22l-76.69 3.56c2.19 2.62 1.08 6.86-1.47 9.13-2.55 2.27-6.06 3-9.42 3.6-28.38 4.85-68.58 2.92-92.36-16 7.23-4.24 15.25-7.51 22.87-11.09z" opacity=".1" transform="translate(-1)"/>
        <path fill="#FE7891" d="M83.45 111.77l-11 12.54c-1.92 2.18-4 4.76-3.56 7.64a9 9 0 0 0 2.32 4.31 39.89 39.89 0 0 0 7.07 6.61c3.7-10.08 6.56-20.43 5.17-31.1z"/>
        <path fill="url(#c)" d="M84.59 111.72l-11 12.54c-1.92 2.18-4 4.77-3.56 7.64a9 9 0 0 0 2.27 4.31 39.92 39.92 0 0 0 7.08 6.6c3.78-10.07 6.6-20.41 5.21-31.09z" transform="translate(-1)"/>
        <path fill="#FE7891" d="M94.25 0h331.11v331.96H94.25z"/>
        <path fill="url(#d)" d="M95.25 0h331.11v331.96H95.25z" transform="translate(-1)"/>
        <path fill="#FE7891" d="M41.609 385.457l60.064-296.018 2.058.418-60.064 296.018zM73.152 386.917l60.593-296.768 2.058.42-60.594 296.768z"/>
        <path fill="#FE7891" d="M98.47 108.76h32.1v2.1h-32.1zM93.41 133.82h32.1v2.1h-32.1zM88.34 158.87h32.1v2.1h-32.1zM83.27 183.93h32.1v2.1h-32.1zM78.2 208.99h32.1v2.1H78.2zM73.13 234.05h32.1v2.1h-32.1zM68.07 259.11h32.1v2.1h-32.1zM63 284.17h32.1v2.1H63zM57.93 309.23h32.1v2.1h-32.1zM52.86 334.29h32.1v2.1h-32.1zM47.79 359.34h32.1v2.1h-32.1z"/>
        <path fill="url(#e)" d="M139.82 331.68L137.2 93.54l-2.19-.42.2 18.13h-5.85c-.09-3.12-.52-6.14-1.62-8.18-3.09-5.75-7 0-8.12 3.85-.5 1.68-1.28 3.45-2.79 4.3h-5.9a10.09 10.09 0 0 0-2.1-.2 6.92 6.92 0 0 0-1.29.19h-3l-.23-18.45-2.19-.41.28 22.86c-.15.24-.3.49-.43.75-1.34 2.63-1.68 5.63-2 8.57-2.8 29.43-1.32 59.07.17 88.59.26 5.11.53 10.31 2.28 15.12a19 19 0 0 0 1.39 3l1.26 100.52 34.75-.08zm-2.19-.49l-30.33-.07-.27-22.39 30.35.07.25 22.39zm-.27-24.44l-30.38-.07-.28-22.39 30.39.08.27 22.38zm-.27-24.43l-30.39-.11-.28-22.39 30.42.08.25 22.42zm-.27-24.44l-30.43-.08-.28-22.39h2c.279.15.566.283.86.4a6.79 6.79 0 0 0 5.3-.38h22.32l.23 22.45zm-.27-24.44h-20.08a4.14 4.14 0 0 0 .54-1.56c.28-2.09-.88-4.05-1.67-6-1.89-4.68-1.7-9.84-.58-14.83l21.55.05.24 22.34zm-.27-24.44h-21c.36-1.31.78-2.6 1.23-3.86 2.24-6.18 5.28-12.12 6.76-18.5h12.77l.24 22.36zm-.3-24.44h-12.31c1.26-7.35.27-15 .74-22.39h11.33l.24 22.39zm-.27-24.44h-11.12a37 37 0 0 1 .93-5.3c.66-2.52 1.64-5 2.05-7.55a39 39 0 0 0-.18-9.53h8.08l.24 22.38zm-.51-46.82l.25 22.39h-8.22a31.86 31.86 0 0 1-.08-3.24c.14-3.86 1.21-7.63 1.66-11.47a73.59 73.59 0 0 0 .54-7.67l5.85-.01z" opacity=".1" transform="translate(-1)"/>
        <g fill="#FE7891" opacity=".74">
            <path d="M130.85 13.8h64.76v6.76h-64.76zM130.85 26.89h39.53v6.36h-39.53z"/>
            <path d="M186.32 26.89h124.39v6.4H186.32z" opacity=".54"/>
            <path d="M322.35 26.89h70.02v6.4h-70.02zM151.41 39.98h54.35v6.71h-54.35z"/>
            <path d="M151.41 90.29h35.28v7.55h-35.28z" opacity=".48"/>
            <path d="M248.83 113.37h14.9v7.52h-14.9zM151.41 101.55h35.28v7.55h-35.28zM151.41 237.82h35.28v7.55h-35.28zM171.49 175.46h35.28v7.55h-35.28z"/>
            <path d="M171.49 187.85h35.28v7.55h-35.28z" opacity=".48"/>
            <path d="M171.49 211.5h35.28v7.55h-35.28zM171.49 223.89h35.28v7.55h-35.28zM215.42 187.85h35.28v7.55h-35.28z"/>
            <path d="M215.42 223.51h35.28v7.55h-35.28z" opacity=".48"/>
            <path d="M198.15 237.82h114.53v7.55H198.15zM168.86 53.07h64.76v6.76h-64.76z"/>
            <path d="M237.85 53.07h54.28v7.51h-54.28z" opacity=".52"/>
            <path d="M168.77 66.17h50.01v6.36h-50.01z"/>
            <path d="M168.77 114.22h73.12v5.93h-73.12z" opacity=".48"/>
            <path d="M363.23 66.17h50.01v6.36h-50.01zM223.58 66.17h103.2v7.05h-103.2zM336.58 66.17h22.75v7.17h-22.75z"/>
            <path d="M168.58 79.26h112.76v6.31H168.58z" opacity=".48"/>
            <path d="M168.58 251.01h74.37v6.59h-74.37zM188.57 128.53h64.76v6.76h-64.76z"/>
            <path d="M188.57 162.69h64.76v6.76h-64.76z" opacity=".48"/>
            <path d="M188.57 298.97h39.33v6.54h-39.33zM170.84 311.64h26.64v6.04h-26.64zM188.57 261.8h39.93v6.76h-39.93zM236.72 261.8h39.93v6.76h-39.93zM206.88 274.19h39.93v6.76h-39.93zM255.02 274.19h39.93v6.76h-39.93zM206.88 286.86h54.78v6.76h-54.78zM270.23 286.86h14.63v6.76h-14.63zM188.57 199.86h32.39v6.46h-32.39zM208.26 150.68h45.08v6.02h-45.08zM265.32 150.68h45.08v6.02h-45.08zM265.32 187.1h45.08v6.02h-45.08zM319.38 150.68h45.08v6.02h-45.08zM290.18 287.14h74.28v6.02h-74.28z"/>
            <path d="M265.16 128.53h64.76v6.76h-64.76z" opacity=".48"/>
            <path d="M209.6 138.67h64.76v6.76H209.6z"/>
            <path d="M286.18 138.67h64.76v6.76h-64.76z" opacity=".48"/>
            <path d="M338.08 128.53h64.76v6.76h-64.76z"/>
        </g>
        <path fill="url(#f)" d="M122.05 87.21a5.11 5.11 0 0 1-.25-1.82 2.67 2.67 0 0 0 0-.8 3 3 0 0 0-.65-1 3.23 3.23 0 0 1-.46-3c.69-.14.93-.68 1.17-1.33a6.24 6.24 0 0 1 .83-1.9.52.52 0 0 1 .37-.23.47.47 0 0 1 .38.27c.29.58-.09 1.37.3 1.88.23.28.63.37.91.59.6.45.63 1.37 1.16 1.88.125.097.24.208.34.33.11.201.153.433.12.66a4.78 4.78 0 0 1-.89 2.47 4.12 4.12 0 0 0-1.06 1.83 2.29 2.29 0 0 1-.08.64.86.86 0 0 1-1 .43c-.37-.09-.88-.71-1.19-.9z" transform="translate(-1)"/>
        <path fill="#FE7891" d="M101.54 111.37a4.52 4.52 0 0 0-1-1 3.37 3.37 0 0 0-2.11-.52 16.51 16.51 0 0 0-2.18.36c-3.14.58-6.36-.15-9.55 0-3.58.21-4.92 4-5.55 5.52a32 32 0 0 0-2.34 9.19c-.15 1.5-.19 3-.23 4.52-.18 6.13-.59 12.2-.35 18.33l.4 10.06a2.72 2.72 0 0 0 .45 1.71 2.6 2.6 0 0 0 1.35.71c5.65 1.63 11.61 1.67 17.49 1.67 3 0 6.42-.18 8.4-2.44 2.18-2.5 1.61-6.27 1.15-9.55-1.69-12.58 1.73-28.44-5.93-38.56z"/>
        <path fill="url(#g)" d="M102.54 111.37a4.52 4.52 0 0 0-1-1 3.37 3.37 0 0 0-2.11-.52 16.51 16.51 0 0 0-2.18.36c-3.14.58-6.36-.15-9.55 0-3.58.21-4.92 4-5.55 5.52a32 32 0 0 0-2.34 9.19c-.15 1.5-.19 3-.23 4.52-.18 6.13-.59 12.2-.35 18.33l.4 10.06a2.72 2.72 0 0 0 .45 1.71 2.6 2.6 0 0 0 1.35.71c5.65 1.63 11.61 1.67 17.49 1.67 3 0 6.42-.18 8.4-2.44 2.18-2.5 1.61-6.27 1.15-9.55-1.69-12.58 1.73-28.44-5.93-38.56z" transform="translate(-1)"/>
        <path fill="url(#h)" d="M98.6 106.77a6 6 0 0 0 1.78-2 5.08 5.08 0 0 0 .29-2.39 8.65 8.65 0 0 0-1-3.67 4.62 4.62 0 0 0-2.94-2.29c-2-.41-4.06 1-5 2.78a13.28 13.28 0 0 0-1.19 6c-.07 2.59-2.06 6.55.37 7.46 2.81 1.05 5-2 5.47-3.34a5.83 5.83 0 0 1 2.22-2.55z" transform="translate(-1)"/>
        <path fill="#3F3D56" d="M98.5 93.51a4.74 4.74 0 0 1-.75 2.5 13 13 0 0 1-1.5 2.3 5.37 5.37 0 0 0-1 1.36 4.07 4.07 0 0 0 .22 2.61c-.43.22-.84-.76-1.24-.49a.5.5 0 0 0-.15.25 1.79 1.79 0 0 0 .43 1.79 1.2 1.2 0 0 1 .32.39c.12.31-.14.63-.26.94-.3.76.23 1.69-.17 2.4a2 2 0 0 1-1.74.76c-1.17.08-2.34.11-3.51.08a1.34 1.34 0 0 1-.69-.14 1.44 1.44 0 0 1-.53-1 37.16 37.16 0 0 1-1-8.79 4.2 4.2 0 0 1 .58-2.5c.35-.47.86-.78 1.23-1.21.37-.43.73-1.25 1.22-1.79a5.45 5.45 0 0 1 2.61-1.32c1.93-.51 5.71-1.24 5.93 1.86zM78.45 184.64a24 24 0 0 1 .11 4.56 22.21 22.21 0 0 1-.82 3.59 103.1 103.1 0 0 1-4.76 13.93c-1.38 3-3.07 6-4.17 9.12a53.38 53.38 0 0 0-2.19 11.37 4.71 4.71 0 0 0 2.46-1.59 124.88 124.88 0 0 0 22.13-30.41 31.63 31.63 0 0 0 3-7.51 36.31 36.31 0 0 0 .63-6.75 108.48 108.48 0 0 0-.22-14.65c-.18-1.7-.58-3.61-2-4.51a5.37 5.37 0 0 0-2.34-.63c-2.73-.25-5.52 0-8.21-.6-1-.2-2.55-1.16-3.29-.52-.74.64-.33 3.78-.37 4.64a161.62 161.62 0 0 0 .04 19.96z"/>
        <path fill="url(#i)" d="M79.45 184.64a24 24 0 0 1 .11 4.56 22.21 22.21 0 0 1-.82 3.59 103.1 103.1 0 0 1-4.76 13.93c-1.38 3-3.07 6-4.17 9.12a53.38 53.38 0 0 0-2.19 11.37 4.71 4.71 0 0 0 2.46-1.59 124.88 124.88 0 0 0 22.13-30.41 31.63 31.63 0 0 0 3-7.51 36.31 36.31 0 0 0 .63-6.75 108.48 108.48 0 0 0-.22-14.65c-.18-1.7-.58-3.61-2-4.51a5.37 5.37 0 0 0-2.34-.63c-2.73-.25-5.52 0-8.21-.6-1-.2-2.55-1.16-3.29-.52-.74.64-.33 3.78-.37 4.64a161.62 161.62 0 0 0 .04 19.96z" transform="translate(-1)"/>
        <path fill="#3F3D56" d="M99.21 198.76a49 49 0 0 1-.64 11.46l-2.59 19.42a2 2 0 0 0 2.85.67 5.86 5.86 0 0 0 2-2.58c3.93-7.72 7.91-15.59 9.37-24.12a67.26 67.26 0 0 0 .75-12.12 149.48 149.48 0 0 0-3.48-30.28 2 2 0 0 0-.61-1.25 2.08 2.08 0 0 0-1.46-.18l-8.91 1.12c-2.13.27-12.52-.05-12.52-.05s3.61 8.88 4.64 11.63c3.13 8.36 10.6 17.04 10.6 26.28z"/>
        <path fill="url(#j)" d="M65.6 228.72c.164.385.414.727.73 1a13.24 13.24 0 0 0 7.3 3.64 2.17 2.17 0 0 0 2.09-.5 1.6 1.6 0 0 0-.25-2 5.5 5.5 0 0 0-1.79-1.15 5.23 5.23 0 0 1-2.92-2.86c-1.43-4.76-6.39-2.04-5.16 1.87z" transform="translate(-1)"/>
        <path fill="url(#k)" d="M96.03 233.9a4.25 4.25 0 0 0 2.15 1.75c2.16 1 4.59 1.86 6.93 1.32a2.92 2.92 0 0 0 1.75-1 1.44 1.44 0 0 0-.06-1.87c-.54-.49-1.39-.34-2.12-.42a3 3 0 0 1-2.11-1.28c-.27-.4-.44-.86-.69-1.27-2.15-3.62-7.7-1.04-5.85 2.77z" transform="translate(-1)"/>
        <path fill="#3F3D56" d="M64.43 225.5a1.74 1.74 0 0 1 1.59-.56c.84.2 1.28 1.19 2.08 1.53.36.15.76.16 1.13.29a5.49 5.49 0 0 1 1.8 1.39c1.42 1.3 3.47 2 4.41 3.65.238.332.287.763.13 1.14a1.12 1.12 0 0 1-.78.45c-1.07.21-2.48.59-3.49.17a37.4 37.4 0 0 1-5.06-2.44c-.89-.54-1.53-2-2.17-2.87-.78-1.04-.53-1.83.36-2.75zM95.17 230.83c-.27-.11-.6-.25-.81-.05a.46.46 0 0 0-.11.16 3.22 3.22 0 0 0 .91 3.63 11.63 11.63 0 0 0 3.47 2 14.74 14.74 0 0 0 4 1.4 3.88 3.88 0 0 0 3.75-1.4 2 2 0 0 0 .35-1.43c-.21-1.1-1.46-1.58-2.5-2-1.32-.52-2.47-1.47-3.83-1.89-1.74-.57-3.6.25-5.23-.42z"/>
        <path fill="#FE7891" d="M101.46 110.73l7.86-3.91a14.27 14.27 0 0 0 2.79-1.66c4.67-3.8 4.41-10.82 6.83-16.33a1.7 1.7 0 0 1 .69-.9 1.78 1.78 0 0 1 .89-.06l3.17.38-2.53 18.61a17.7 17.7 0 0 1-.88 4 14.68 14.68 0 0 1-1.44 2.6 44 44 0 0 1-11.39 11.65 4.16 4.16 0 0 1-1.6.8 3.07 3.07 0 0 1-2-.37c-2.17-1.13-3.07-3.75-3.49-6.16a12.92 12.92 0 0 1 1.1-8.65z"/>
        <path fill="url(#l)" d="M102.46 110.73l7.86-3.91a14.27 14.27 0 0 0 2.79-1.66c4.67-3.8 4.41-10.82 6.83-16.33a1.7 1.7 0 0 1 .69-.9 1.78 1.78 0 0 1 .89-.06l3.17.38-2.53 18.61a17.7 17.7 0 0 1-.88 4 14.68 14.68 0 0 1-1.44 2.6 44 44 0 0 1-11.39 11.65 4.16 4.16 0 0 1-1.6.8 3.07 3.07 0 0 1-2-.37c-2.17-1.13-3.07-3.75-3.49-6.16a12.92 12.92 0 0 1 1.1-8.65z" transform="translate(-1)"/>
        <path fill="#FE7891" d="M94.25 331.96h331.11v18.58H94.25z"/>
        <path fill="url(#m)" d="M95.25 335.34h331.11v15.2H95.25z" transform="translate(-1)"/>
        <path fill="#FE7891" d="M473.36 343.64c-1.46 6.8-5.45 14.1-12.83 20.3-13.54 11.38-31.05 14.33-43.36 14.81-1.52.06-3 .09-4.54.09-11 0-22-1.45-32.64-2.86l-7.54-1c-12.75-1.59-27.44-2.9-40.4 1.67l-1.14-3.24-1.19-3.36c14.39-5.08 30.05-3.7 43.59-2 2.53.31 5.06.65 7.6 1 11.82 1.56 24.05 3.18 36 2.72 11.21-.44 27.11-3.08 39.13-13.18 4.79-4 9-9.88 10.49-16.1a18.09 18.09 0 0 0-.25-9.92 16.76 16.76 0 0 0-1.79-3.8c-3.4-5.37-9.51-8.82-14.74-10.36-7.77-2.29-16.25-2-24.47-1.71h-.3l-.11-3.08-.14-3.91c8.44-.31 18-.66 27 2 10.47 3.08 18.4 10.08 21.2 18.71a25.73 25.73 0 0 1 .43 13.22z"/>
        <path fill="url(#n)" d="M474.5 339.84c-.6 7.83-4.57 16.83-13.39 24.25-13.54 11.37-31.06 14.33-43.37 14.8-1.51.06-3 .09-4.54.09-11 0-22-1.45-32.63-2.86l-7.55-1c-12.75-1.59-27.44-2.9-40.39 1.67l-2.33-6.6c.58-.2 1.16-.4 1.75-.58l1.14 3.24c13-4.57 27.65-3.26 40.4-1.67l7.54 1c10.65 1.41 21.62 2.86 32.64 2.86 1.51 0 3 0 4.54-.09 12.31-.48 29.82-3.43 43.36-14.81 7.38-6.2 11.37-13.5 12.83-20.3z" transform="translate(-1)"/>
        <path fill="#FE7891" d="M303.17 337.21l47.3 10.8-9.01 41.39-31.3 15.01-42.89-18.67 28.77-12.86z"/>
        <path fill="url(#o)" d="M304.17 337.21l47.3 10.8-9.01 41.39-31.3 15.01-42.89-18.67 28.77-12.86z" transform="translate(-1)"/>
        <path fill="#FE7891" d="M300.07 336.37l47.3 10.79-9.01 41.39-30.69 14.93-42.89-18.68 28.16-12.77z"/>
        <path fill="#FE7891" d="M298.94 372.22l36.61 11.55 7.6-33.51-38.01-8.16z"/>
        <path fill="url(#p)" d="M299.94 372.22l36.61 11.55 7.6-33.51-38.01-8.16z" transform="translate(-1)"/>
        <path fill="url(#q)" d="M466.54 328.96l-1.06-.2c-3.4-5.37-9.51-8.82-14.74-10.36-7.77-2.29-16.52-2-24.74-1.7l-.09-3.36s18-1 28.66 4.12c6.76 3.26 11.97 11.5 11.97 11.5z" transform="translate(-1)"/>
    </g>
</svg>
