<svg xmlns="http://www.w3.org/2000/svg" width="504" height="358" viewBox="0 0 504 358">
    <defs>
        <linearGradient id="a" x1="44.92%" x2="149.124%" y1="49.546%" y2="58.609%">
            <stop offset="0%" stop-color="#010101" stop-opacity="0"/>
            <stop offset="95%" stop-color="#010101"/>
        </linearGradient>
        <linearGradient id="b" x1="50.066%" x2="48.514%" y1="49.932%" y2="57.11%">
            <stop offset="0%" stop-color="#010101" stop-opacity="0"/>
            <stop offset="95%" stop-color="#010101"/>
        </linearGradient>
        <linearGradient id="c" x1="49.971%" x2="50.49%" y1="48.464%" y2="61.973%">
            <stop offset="0%" stop-color="#010101" stop-opacity="0"/>
            <stop offset="95%" stop-color="#010101"/>
        </linearGradient>
        <linearGradient id="d" x1="-.023%" x2="99.977%" y1="49.978%" y2="49.978%">
            <stop offset="0%" stop-color="#010101" stop-opacity="0"/>
            <stop offset="95%" stop-color="#010101"/>
        </linearGradient>
        <linearGradient id="e" x1="0%" y1="50.027%" y2="50.027%">
            <stop offset="0%" stop-color="#010101" stop-opacity="0"/>
            <stop offset="95%" stop-color="#010101"/>
        </linearGradient>
        <linearGradient id="f" x1="55.858%" x2="46.376%" y1="62.93%" y2="41.454%">
            <stop offset="0%" stop-color="#E5C6D6"/>
            <stop offset="42%" stop-color="#EAD4D0"/>
            <stop offset="100%" stop-color="#F0E9CB"/>
        </linearGradient>
        <linearGradient id="g" x1="47.6%" x2="18.994%" y1="55.73%" y2="29.415%">
            <stop offset="0%" stop-color="#010101" stop-opacity="0"/>
            <stop offset="95%" stop-color="#010101"/>
        </linearGradient>
        <linearGradient id="h" x1=".333%" x2="100.268%" y1="49.983%" y2="49.983%">
            <stop offset="0%" stop-color="#E5C6D6"/>
            <stop offset="42%" stop-color="#EAD4D0"/>
            <stop offset="100%" stop-color="#F0E9CB"/>
        </linearGradient>
        <linearGradient id="i" x1="49.018%" x2="54.328%" y1="74.461%" y2="-240.454%">
            <stop offset="0%" stop-color="#010101" stop-opacity="0"/>
            <stop offset="95%" stop-color="#010101"/>
        </linearGradient>
        <linearGradient id="j" x1=".015%" y1="49.97%" y2="49.97%">
            <stop offset="0%" stop-color="#E5C6D6"/>
            <stop offset="42%" stop-color="#EAD4D0"/>
            <stop offset="100%" stop-color="#F0E9CB"/>
        </linearGradient>
        <linearGradient id="k" x1="59.598%" x2="8.959%" y1="68.074%" y2="14.062%">
            <stop offset="0%" stop-color="#010101" stop-opacity="0"/>
            <stop offset="95%" stop-color="#010101"/>
        </linearGradient>
        <linearGradient id="l" x1=".22%" x2="99.728%" y1="49.851%" y2="49.851%">
            <stop offset="0%" stop-color="#E5C6D6"/>
            <stop offset="42%" stop-color="#EAD4D0"/>
            <stop offset="100%" stop-color="#F0E9CB"/>
        </linearGradient>
        <linearGradient id="m" x1="53.248%" x2="-.279%" y1="55.437%" y2="-25.511%">
            <stop offset="0%" stop-color="#FFF" stop-opacity="0"/>
            <stop offset="95%" stop-color="#FFF"/>
        </linearGradient>
        <linearGradient id="n" x1="123.495%" x2="-502.024%" y1="119.496%" y2="-687.731%">
            <stop offset="0%" stop-color="#010101" stop-opacity="0"/>
            <stop offset="95%" stop-color="#010101"/>
        </linearGradient>
        <linearGradient id="o" x1=".089%" x2="99.771%" y1="50.231%" y2="50.231%">
            <stop offset="0%" stop-color="#E5C6D6"/>
            <stop offset="42%" stop-color="#EAD4D0"/>
            <stop offset="100%" stop-color="#F0E9CB"/>
        </linearGradient>
        <linearGradient id="p" x1="49.982%" x2="50.152%" y1="49.991%" y2="50.091%">
            <stop offset="0%" stop-color="#010101" stop-opacity="0"/>
            <stop offset="95%" stop-color="#010101"/>
        </linearGradient>
        <linearGradient id="q" x1=".099%" x2="100.133%" y1="49.185%" y2="49.185%">
            <stop offset="0%" stop-color="#010101" stop-opacity="0"/>
            <stop offset="95%" stop-color="#010101"/>
        </linearGradient>
        <linearGradient id="r" x1="35.832%" x2="164.026%" y1="50.986%" y2="44.988%">
            <stop offset="0%" stop-color="#010101" stop-opacity="0"/>
            <stop offset="95%" stop-color="#010101"/>
        </linearGradient>
        <linearGradient id="s" x1="73.426%" x2="133.016%" y1="49.159%" y2="47.025%">
            <stop offset="0%" stop-color="#010101" stop-opacity="0"/>
            <stop offset="95%" stop-color="#010101"/>
        </linearGradient>
        <linearGradient id="t" x1="50.331%" x2="44.371%" y1="30.348%" y2="451.815%">
            <stop offset="0%" stop-color="#010101" stop-opacity="0"/>
            <stop offset="95%" stop-color="#010101"/>
        </linearGradient>
        <linearGradient id="u" x1="15.481%" x2="262.888%" y1="21.032%" y2="205.586%">
            <stop offset="0%" stop-color="#010101" stop-opacity="0"/>
            <stop offset="95%" stop-color="#010101"/>
        </linearGradient>
        <linearGradient id="v" x1="-51.882%" x2="300.859%" y1="45.824%" y2="60.854%">
            <stop offset="0%" stop-color="#010101" stop-opacity="0"/>
            <stop offset="95%" stop-color="#010101"/>
        </linearGradient>
    </defs>
    <g fill="none" fill-rule="nonzero" transform="translate(-1)">
        <path fill="#FE7891" d="M486.48 222.76a146.83 146.83 0 0 1-10.54 11.63c-10.37 10.39-21.91 19.7-32.21 30.18-17.16 17.43-30.81 38-47.7 55.68-16.89 17.68-38.3 32.83-62.65 34.86-18.88 1.57-37.4-4.9-56.16-7.71-62.62-9.36-127.9 22-188.74 4.29-36.56-10.6-67.34-39.39-80.36-75.21-13.02-35.82-7.94-77.6 13.23-109.23 12.27-18.34 29.28-33 43.17-50.06 31.24-38.48 50.54-92.5 97.3-109 14.47-5.11 30.09-5.8 45.44-6.47 35.83-1.54 74-2.5 104.64 16.13 22.6 13.81 38 36.53 56.52 55.41 21.63 22 44.29 34.77 72.56 44.22 25 8.37 55 21.6 61.93 49.88.398 1.6.701 3.224.91 4.86 2.39 17.95-5.86 36.31-17.34 50.54z" opacity=".24"/>
        <path fill="#FE7891" d="M227.1 131.87c-25.15-7.94-53.5-12.66-77.15-1-30.55 15.12-43.38 52.32-70.42 73.09-6.47 5-13.85 9.08-18.68 15.66-3.58 4.93-5.49 10.86-6.49 16.86-3.27 19.68 3.38 40.63 17 55.24 13.62 14.61 33.71 22.72 53.65 22.22 19.94-.5 38.56-8.92 57.93-13.34 60.09-13.73 121.82 11.54 183.44 13.11 14.6.37 30.71-1.23 40.89-11.72 11.93-12.3 11.4-32.3 21.05-46.46 5.33-7.82 13.37-13.28 20.22-19.81 6.85-6.53 12.91-15.15 12.2-24.59-.77-10.15-9.3-18.24-18.65-22.3-9.35-4.06-19.67-5.09-29.55-7.55-19.62-4.87-37.33-15.29-56-23-21.72-8.8-39.72-6.88-62.06-7.8-23.08-.91-45.66-11.75-67.38-18.61z" opacity=".24"/>
        <rect width="32.53" height="4.78" x="349.107" y="170.48" fill="#FE7891" rx="1.79" transform="rotate(3.16 365.372 172.87)"/>
        <rect width="32.53" height="4.78" x="349.107" y="170.48" fill="url(#a)" rx="1.79" transform="rotate(3.16 365.372 172.87)"/>
        <rect width="32.53" height="4.78" x="348.993" y="165.481" fill="#FE7891" rx="1.79" transform="rotate(3.16 365.258 167.871)"/>
        <rect width="32.53" height="4.78" x="348.993" y="165.481" fill="url(#b)" rx="1.79" transform="rotate(3.16 365.258 167.871)"/>
        <rect width="32.53" height="4.78" x="350.49" y="160.591" fill="#FE7891" rx="1.79" transform="rotate(3.16 366.755 162.98)"/>
        <rect width="32.53" height="4.78" x="350.49" y="160.591" fill="url(#c)" rx="1.79" transform="rotate(3.16 366.755 162.98)"/>
        <path fill="url(#d)" d="M360.82 174.41c-17.84-1.7-36.39-2.49-53.13 3.9l7.66 3.63a6.68 6.68 0 0 0 2.73.84 7.57 7.57 0 0 0 2.93-.84c6.27-2.59 13.28-2.61 20.07-2.34 27.94 1.11 55.73 6.39 83.66 5.15 5-.23 10.1-.69 14.62-2.81-6.78-2.07-13.75-4.91-20.7-6.29-5.23-1-10.32.81-15.65 1.13-14.27.85-28.11-2.37-42.19-2.37z"/>
        <path fill="#FE7891" d="M363.59 175.6c-17.84-1.7-36.39-2.49-53.13 3.9l7.66 3.63a6.68 6.68 0 0 0 2.73.84 7.74 7.74 0 0 0 2.93-.84c6.27-2.6 13.28-2.61 20.07-2.34 27.94 1.11 55.73 6.39 83.66 5.14 5-.22 10.1-.68 14.62-2.81-6.78-2.06-13.75-4.91-20.7-6.28-5.23-1-10.32.81-15.65 1.13-14.24.84-28.08-2.37-42.19-2.37z"/>
        <path fill="#FE7891" d="M359.19 177.71c-17.84-1.71-36.38-2.49-53.12 3.9l7.65 3.63a6.73 6.73 0 0 0 2.73.84 7.64 7.64 0 0 0 2.93-.84c6.28-2.6 13.29-2.61 20.08-2.34 27.93 1.11 55.73 6.39 83.66 5.14 5-.22 10.1-.68 14.62-2.81-6.79-2.06-13.75-4.91-20.71-6.28-5.22-1-10.31.81-15.65 1.12-14.24.85-28.07-2.36-42.19-2.36z"/>
        <path fill="url(#e)" d="M359.19 177.71c-17.84-1.71-36.38-2.49-53.12 3.9l7.65 3.63a6.73 6.73 0 0 0 2.73.84 7.64 7.64 0 0 0 2.93-.84c6.28-2.6 13.29-2.61 20.08-2.34 27.93 1.11 55.73 6.39 83.66 5.14 5-.22 10.1-.68 14.62-2.81-6.79-2.06-13.75-4.91-20.71-6.28-5.22-1-10.31.81-15.65 1.12-14.24.85-28.07-2.36-42.19-2.36z"/>
        <path fill="#FE7891" d="M361.99 178.9c-17.84-1.71-36.38-2.5-53.12 3.9l7.65 3.68a6.73 6.73 0 0 0 2.73.84 7.64 7.64 0 0 0 2.93-.84c6.28-2.6 13.29-2.62 20.08-2.35 27.93 1.12 55.73 6.39 83.66 5.15 5-.22 10.1-.69 14.62-2.81-6.79-2.11-13.72-4.99-20.72-6.34-5.23-1-10.31.81-15.65 1.13-14.23.85-28.06-2.36-42.18-2.36z"/>
        <path fill="url(#f)" d="M454.28 182.12a66.33 66.33 0 0 1-8-4.74 105.76 105.76 0 0 0-47.28-16 3.35 3.35 0 0 0-1.86.19c-1.17.61-1.23 2.28-.83 3.54 2.2 6.87 11.54 8 16.58 13.19a2.89 2.89 0 0 1 1 2c-.05 1.44-1.81 2.08-3.23 2.35-17.34 3.28-35.31 6.54-52.45 2.36-7.51-1.83-14.72-5.07-22.41-5.85a4.92 4.92 0 0 0-2.56.24 3.48 3.48 0 0 0-1.45 4.17 8.76 8.76 0 0 0 2.9 3.77c9 7.77 20.69 11.47 32 15 14.73 4.56 29.71 9.17 45.12 9.36 4.75.06 9.49-.31 14.22-.67l33.94-2.6a7 7 0 0 0 2.68-.57 6.3 6.3 0 0 0 2.43-2.81 33.72 33.72 0 0 0 4-16.84c-.15-5.85-10.37-4.08-14.8-6.09z"/>
        <path fill="#FFF" d="M465.15 173.99a1.55 1.55 0 0 0-1 0 1.38 1.38 0 0 0-.56.63c-2.28 4-2.74 8.7-4.32 13-.81 2.22-1.92 4.32-2.68 6.56a43.32 43.32 0 0 0-1.56 7.25 78 78 0 0 0-1.21 11.28 2.12 2.12 0 0 0 .28 1.34 2.1 2.1 0 0 0 1 .64 30.45 30.45 0 0 0 11.87 2 1.33 1.33 0 0 0 .79-.2 1.37 1.37 0 0 0 .38-.7c2-6.707 3.703-13.5 5.11-20.38.667-3.46 1.27-6.94 1.81-10.44.26-1.75.63-3.56.73-5.33.1-1.77-.56-2.19-2.19-3a48.22 48.22 0 0 0-8.45-2.65z"/>
        <path fill="#606161" d="M137.47 144.48l-.16-2.81a4.37 4.37 0 0 1 3.89-4.27l6.49-.68a4.32 4.32 0 0 1 4.71 3.48l.5 2.73-2.23.41-.5-2.71a2.06 2.06 0 0 0-2.25-1.66l-6.49.68a2.08 2.08 0 0 0-1.85 2l.16 2.7-2.27.13zM156.55 190.48c-1.88 6.62-5 12.82-7 19.43-2.23 7.67-2.74 15.71-3.24 23.68.81 1.36 2.84 1.5 4.22.71a9.1 9.1 0 0 0 3-3.57 475.15 475.15 0 0 0 34.92-73.87l27.71 4.62a2.69 2.69 0 0 1 2.89 3.29l-.45 29.13 6.74.15a1.9 1.9 0 0 0 2.48-1.89l6.45-39.55c.36-2.19.69-4.57-.4-6.51a9.42 9.42 0 0 0-3.47-3.12 79.52 79.52 0 0 0-43.79-11.74c-4.4.12-8.87.61-13.14-.45-6.8-1.7-9.71-6.16-12 2.45-1.67 6.25-2 12.8-2.2 19.24-.3 12.66.8 25.66-2.72 38z"/>
        <path fill="url(#g)" d="M156.55 190.48c-1.88 6.62-5 12.82-7 19.43-2.23 7.67-2.74 15.71-3.24 23.68.81 1.36 2.84 1.5 4.22.71a9.1 9.1 0 0 0 3-3.57 475.15 475.15 0 0 0 34.92-73.87l27.71 4.62a2.69 2.69 0 0 1 2.89 3.29l-.45 29.13 6.74.15a1.9 1.9 0 0 0 2.48-1.89l6.45-39.55c.36-2.19.69-4.57-.4-6.51a9.42 9.42 0 0 0-3.47-3.12 79.52 79.52 0 0 0-43.79-11.74c-4.4.12-8.87.61-13.14-.45-6.8-1.7-9.71-6.16-12 2.45-1.67 6.25-2 12.8-2.2 19.24-.3 12.66.8 25.66-2.72 38z"/>
        <path fill="#FE7891" d="M237.62 106.06v3.96L222 114.1c-3.08.79-6.37 1.57-9.36.57a15.87 15.87 0 0 1-5.08-3.2 60.61 60.61 0 0 1-8.67-8.28c-.48-.57-.94-1.17-1.39-1.81a29.64 29.64 0 0 1-4.68-10.06c-.3-1.24-1.09-2.11-.3-3.11.63-.78 2.47-.87 3.38-.78a11.73 11.73 0 0 1 4.41 1.63c6.65 3.71 12.11 9.12 17.91 14.07a6.46 6.46 0 0 0 1.55 1.06 7.56 7.56 0 0 0 2.56.49l14.59.72a.64.64 0 0 1 .52.18.58.58 0 0 1 .18.48z"/>
        <path fill="#FE7891" d="M191.19 132.92c-1.6 2.57-10.79 1.54-17.22-.21a19.51 19.51 0 0 1-5.83-2.3c-1.33-1-2.75-2.2-3-3.83a6.89 6.89 0 0 1 .21-2.6c1.54-7.46 3.11-14.92 4.65-22.39.36-1.69.7-3.41 1.06-5.1a25.48 25.48 0 0 1 1.51-5.23 22 22 0 0 1 2.72-4.35c1-1.33-.33-3.59 1.33-3.71 4.83-.37 7.22-.46 9.6.57 3 1.33 7.71 2.36 10.67 3.84.87.42.09 1.3.69 2.11a5.91 5.91 0 0 1 .82 2.27c2.3 10.6-1.53 31.66-7.21 40.93z"/>
        <path fill="#606161" d="M181.11 82.92l.71 10.95 5.14-2.69 3.23 2.48-.18-1.45-8.19-9.25z"/>
        <path fill="#FE7891" d="M189.73 84.84l.55 8.16-3.28-2.67z"/>
        <path fill="url(#h)" d="M182.29 84.02a3.25 3.25 0 0 0 .74 3.24 3.75 3.75 0 0 0 1.63.78c.68.17 1.63 2.28 2.34 2.29.36 0 .75-1.52 1.06-1.7.31-.18.32-1.11.52-1.47l1.35-2.39a1.76 1.76 0 0 0 .32-1.29 1.74 1.74 0 0 0-.87-.86l-2.5-1.47c-.93-.56-3.8-2.47-3.91-1.22a29 29 0 0 1-.68 4.09z"/>
        <path fill="url(#i)" d="M185.14 82.55s-.08 4.69 2.66 5.56a9 9 0 0 0 1.93-3.27c.9-2.36-4.59-2.29-4.59-2.29z"/>
        <path fill="#FE7891" d="M222.82 31.04c-5.91.71-11.69 3.56-17.56 2.58-2.92-.49-5.59-1.91-8.37-2.91a31.34 31.34 0 0 0-24.39 1.47c4.89 1.31 10 3.18 13.08 7.17 3.71 4.73 3.92 11.48 7.54 16.27 2.85 3.78 7.5 5.85 12.18 6.54 4.68.69 9.44.14 14.13-.43 1.9-.23 4-.44 5.61.57 1.61 1.01 2.33 2.79 3.3 4.35 3.13 5 10.52 7.35 16.35 6.31.35-8.84 4.48-24.57.77-32.19-3.52-7.29-15.29-10.61-22.64-9.73zM488.82 218.94a120.45 120.45 0 0 1-8.66 9.56c-3.3-.77-6.65-1.39-10-1.86a3.82 3.82 0 0 1-2.16-.8 3.58 3.58 0 0 1-.62-2.8 431.64 431.64 0 0 1 5.83-50.32l18.37 2.63c.89.15 8.41 1.14 11.49 2.09 1.91 14.72-4.86 29.81-14.25 41.5zM209.13 200.67h89.83v24.14h-89.83zM119.3 243.8h89.83v24.14H119.3zM38.02 280.75h89.83v24.14H38.02zM83.81 322.14h89.83v24.14H83.81z"/>
        <path fill="url(#j)" d="M197.02 77.19c.22.331.351.713.38 1.11 0 .62-.58 1.05-1.08 1.41a9 9 0 0 0-2.87 2.88c-.48.88-.74 2-1.55 2.53-1.1.79-2.62.29-3.86-.23-1.55-.65-5.27-4-5.35-4.74-.23-2 .82-4.29 1.54-6.15.85-2.17 2.22-4.31 4.36-5.25a5.93 5.93 0 0 1 4.86.06c4.07 1.93 1.94 5.18 3.57 8.38z"/>
        <path fill="#606161" d="M191.58 64.13a13.4 13.4 0 0 1 7 4c.364.368.605.84.69 1.35a2.14 2.14 0 0 1-.67 1.57 5.49 5.49 0 0 1-5.16 1.41 7.61 7.61 0 0 0-3-.44 4.15 4.15 0 0 0-2.36 1.87 13.89 13.89 0 0 0-1.82 3.58c-.24 0-.4-.26-.41-.5a1.44 1.44 0 0 0-.09-.72.61.61 0 0 0-.83-.12 1.23 1.23 0 0 0-.46.78 2.55 2.55 0 0 0 .57 2.17 2.41 2.41 0 0 0-2.07 1c-.07.1-.16.21-.27.18a.28.28 0 0 1-.13-.11 9.56 9.56 0 0 1-1.19-7.9 6.76 6.76 0 0 1 1-2.33 3.49 3.49 0 0 1 1.31-1.16c.44-.21 1.23-.16 1.55-.53.51-.58.25-2 .56-2.71.83-2.16 4.02-1.83 5.78-1.39z"/>
        <path fill="url(#k)" d="M191.58 64.13a13.4 13.4 0 0 1 7 4c.364.368.605.84.69 1.35a2.14 2.14 0 0 1-.67 1.57 5.49 5.49 0 0 1-5.16 1.41 7.61 7.61 0 0 0-3-.44 4.15 4.15 0 0 0-2.36 1.87 13.89 13.89 0 0 0-1.82 3.58c-.24 0-.4-.26-.41-.5a1.44 1.44 0 0 0-.09-.72.61.61 0 0 0-.83-.12 1.23 1.23 0 0 0-.46.78 2.55 2.55 0 0 0 .57 2.17 2.41 2.41 0 0 0-2.07 1c-.07.1-.16.21-.27.18a.28.28 0 0 1-.13-.11 9.56 9.56 0 0 1-1.19-7.9 6.76 6.76 0 0 1 1-2.33 3.49 3.49 0 0 1 1.31-1.16c.44-.21 1.23-.16 1.55-.53.51-.58.25-2 .56-2.71.83-2.16 4.02-1.83 5.78-1.39z"/>
        <path fill="url(#l)" d="M242.82 103.48a.94.94 0 0 1-.19.46 1 1 0 0 1-.45.19l-2.86.66a6.25 6.25 0 0 0-1.85.64 2 2 0 0 0-1.05 1.57 2.07 2.07 0 0 0 1.4 1.88 6.23 6.23 0 0 0 2.4.37 40.08 40.08 0 0 0 4.9-.11 6.74 6.74 0 0 0 3.25-1 4.06 4.06 0 0 0 1.63-3.74c-.17-1.41-1.63-3.64-3.09-4.08-2.18-.68-3.62 1.38-4.09 3.16z"/>
        <path fill="#FE7891" d="M180.31 86.13a39.44 39.44 0 0 0-1.24 4.56 11.35 11.35 0 0 1-2.65 6.49 12.37 12.37 0 0 1-3.27 3c-4.44 2.78-10.39 1.79-15 4.17a6.87 6.87 0 0 0-2.18 1.6c-1.26 1.45-1.6 3.45-1.93 5.35a247.504 247.504 0 0 1-3.72 17.34 5.45 5.45 0 0 1-1.05 2.45c-1.45 1.6-4 1.12-6 .51l.36-15.31a44.43 44.43 0 0 1 1.09-10.43c.93-3.41 3.26-6.1 5.71-8.61 3.35-3.44 12.23-10.66 22-13.29l1.87-.45a24.1 24.1 0 0 1 5.65-.58.59.59 0 0 1 .27.07c.6.29.46 1.62.09 3.13z"/>
        <path fill="url(#m)" d="M180.31 86.13c-1.6.27-4 .66-7.61 1.3-10.75 1.84-22.81 14.47-24.8 18.42-1.99 3.95-2.21 23.6-2.21 23.6l-2.5 2.17.36-15.31a44.43 44.43 0 0 1 1.09-10.43c.93-3.41 3.26-6.1 5.71-8.61 3.35-3.44 12.23-10.66 22-13.29l1.87-.45a24.1 24.1 0 0 1 5.65-.58.59.59 0 0 1 .27.07c.68.27.54 1.6.17 3.11z"/>
        <path fill="url(#n)" d="M186.69 95.28s-1.45 7.55-6.47 7.67a19.68 19.68 0 0 1-6.43-1.11c.21 3.14-6.35 24.37-4.62 26.52a28.66 28.66 0 0 0 4.8 4.35 19.51 19.51 0 0 1-5.83-2.3c-1.33-1-2.75-2.2-3-3.83a6.89 6.89 0 0 1 .21-2.6c1.54-7.46 3.11-14.92 4.65-22.39a7.32 7.32 0 0 1 1.36-.48 42.24 42.24 0 0 0-5.17-1.42 39.4 39.4 0 0 0-12.23 0l-2.45-3.29 2.93-2.57 25.92 6.31 6.33-4.86z"/>
        <path fill="url(#o)" d="M147.82 133.15a4.8 4.8 0 0 0 .16 3.14 2.8 2.8 0 0 1 .35.69.92.92 0 0 1-.31.93 1 1 0 0 1-1 .09 1.55 1.55 0 0 0-.52-.28c-.47-.1-.77.48-.88.95-.22.92-.47 2-1.33 2.37a2.18 2.18 0 0 1-2.55-1.2 4.13 4.13 0 0 1-.5-2.67c.36-2.38 2.65-4 3.63-6.18.23-.54.09-.28.51-.69a1.69 1.69 0 0 1 1.52-.43c1.92.43 1.13 2 .92 3.28z"/>
        <path fill="#606161" d="M218.82 199.65c6.56.44 13.133.647 19.72.62 0-1.1-1-1.89-2-2.44-2.33-1.37-4.72-2.65-6.95-4.18-1.69-1.16-3.93-4.07-6.09-4.1-3.55-.07-6.94 9.93-4.68 10.1zM139.82 240.07a2.12 2.12 0 0 0-.38 1.5 2 2 0 0 0 1.24 1.13 21.93 21.93 0 0 0 8.13 1.41c4.113.14 8.22.103 12.32-.11a2.31 2.31 0 0 0 1.93-.76 1.56 1.56 0 0 0-.24-1.76 4.83 4.83 0 0 0-1.58-1 37.67 37.67 0 0 1-6.57-3.8c-1.94-1.47-3.51-4-5.75-5-4.29-1.96-7.44 5.41-9.1 8.39z"/>
        <path fill="#FE7891" d="M240.83 200.23l2.6.1 4.89-158.97-2.82-.6z"/>
        <path fill="url(#p)" d="M240.83 200.23l2.6.1 4.89-158.97-2.82-.6z"/>
        <path fill="#FE7891" d="M182.35 82.74l4.65 7.59-4.43 2.62-1.81-9.89z"/>
        <path fill="#606161" d="M185.82 93.48a2.1 2.1 0 0 1-.24.63c-.81 1.58-1.7 3.25-3.24 4.13a6.06 6.06 0 0 1-3.93.58 15.74 15.74 0 0 1-3.82-1.27 79.87 79.87 0 0 1-7.29-3.64c-2.44-1.38-4.88-2.92-7.65-3.36a20.7 20.7 0 0 0-4.24-.1l-3 .14a1.44 1.44 0 0 0-.71.15 1.22 1.22 0 0 0-.32.32l-3.32 4 6.1 2.79a3.42 3.42 0 0 0 1 .33c.4.028.802-.009 1.19-.11a26.57 26.57 0 0 1 11.4.29c3.49.86 6.81 2.43 10.37 3a9.55 9.55 0 0 0 4-.12 6.51 6.51 0 0 0 4.55-5.83 2.52 2.52 0 0 1 .14-.91c.21-.44.69-.66 1-1a1.78 1.78 0 0 0 .39-1.8 1.8 1.8 0 0 0-1.45-1.15c-.48.32-1.32.63-1.41 1.27-.09.64.48 1.02.48 1.66z"/>
        <path fill="url(#q)" d="M185.82 93.48a2.1 2.1 0 0 1-.24.63c-.81 1.58-1.7 3.25-3.24 4.13a6.06 6.06 0 0 1-3.93.58 15.74 15.74 0 0 1-3.82-1.27 79.87 79.87 0 0 1-7.29-3.64c-2.44-1.38-4.88-2.92-7.65-3.36a20.7 20.7 0 0 0-4.24-.1l-3 .14a1.44 1.44 0 0 0-.71.15 1.22 1.22 0 0 0-.32.32l-3.32 4 6.1 2.79a3.42 3.42 0 0 0 1 .33c.4.028.802-.009 1.19-.11a26.57 26.57 0 0 1 11.4.29c3.49.86 6.81 2.43 10.37 3a9.55 9.55 0 0 0 4-.12 6.51 6.51 0 0 0 4.55-5.83 2.52 2.52 0 0 1 .14-.91c.21-.44.69-.66 1-1a1.78 1.78 0 0 0 .39-1.8 1.8 1.8 0 0 0-1.45-1.15c-.48.32-1.32.63-1.41 1.27-.09.64.48 1.02.48 1.66z"/>
        <path fill="url(#r)" d="M185.5 77.65c0-.14.11-.25.11-.39a.54.54 0 0 0-.21-.35.34.34 0 0 0-.18-.11.27.27 0 0 0-.17.06.63.63 0 0 0-.16.52c.005.344.077.683.21 1 .08.19.22.4.43.42a.53.53 0 0 0 .27-.06c.18-.08.44-.37.25-.57-.19-.2-.26-.09-.37-.17a.42.42 0 0 1-.18-.35z"/>
        <path fill="#606161" d="M237.82 108.87l-.21 1.15-15.62 4.08c-3.08.79-6.37 1.57-9.36.57a15.87 15.87 0 0 1-5.08-3.2 60.61 60.61 0 0 1-8.67-8.28l.33-2.17s11.81 10.84 16.07 10.63c4-.21 20.43-2.47 22.36-2.75l.18-.03z" opacity=".22"/>
        <rect width="46.32" height="33.09" x="129.21" y="141.402" fill="#606161" rx="2.76" transform="rotate(-5.39 152.37 157.947)"/>
        <rect width="46.32" height="33.09" x="128.253" y="141.492" fill="url(#s)" rx="2.76" transform="rotate(-5.39 151.413 158.037)"/>
        <rect width="46.32" height="33.09" x="121.588" y="142.195" fill="#606161" rx="2.76" transform="rotate(-5.39 144.748 158.74)"/>
        <path fill="#FE7891" d="M143.19 131.62l.78.72s2.45-3 4.2-.26l1.06-1s-3.41-4.33-6.04.54z"/>
        <path fill="url(#t)" d="M143.19 131.62l.78.72s2.45-3 4.2-.26l1.06-1s-3.41-4.33-6.04.54z"/>
        <path fill="#FE7891" d="M237.51 105.48l-1.12-.1s-.16 4.17.59 4.73l.58-.05.45-1a6.36 6.36 0 0 1-.5-3.58z"/>
        <path fill="#606161" d="M237.51 105.48l-1.12-.1s-.16 4.17.59 4.73l.58-.05.45-1a6.36 6.36 0 0 1-.5-3.58z" opacity=".22"/>
        <path fill="url(#u)" d="M471.63 206.6a1.77 1.77 0 0 0-2.38 1.8 78.43 78.43 0 0 0-.47 14.93 4 4 0 0 0 .46 1.94c.87 1.35 2.83 1.23 4.42 1.43 1.83.22 3.66 1 5.44.58a7.57 7.57 0 0 0 3.49-2.64c4.77-5.42 11.09-11.9 14-18.56-3.3-.95-8.79.59-12.4.71-4.187.14-8.373.077-12.56-.19z"/>
        <path fill="url(#v)" d="M244.16 58.65s-6.73-15-21.83-9.5c-15.1 5.5-32.89-8.93-32.89-8.93s3.12 17.58 14.18 19.26c11.06 1.68 20.91-3.32 24.81 3.83 5.95 10.91 15.73 7.51 15.73 7.51V58.65z"/>
    </g>
</svg>
