<svg xmlns="http://www.w3.org/2000/svg" width="1104" height="768" viewBox="0 0 1104 768">
    <defs>
        <linearGradient id="a" x1=".221%" x2="100.158%" y1="49.994%" y2="49.994%">
            <stop offset="0%" stop-color="#E5C5D5"/>
            <stop offset="42%" stop-color="#EAD4D1"/>
            <stop offset="100%" stop-color="#F0E9CB"/>
        </linearGradient>
        <linearGradient id="b" x1="-.016%" x2="99.999%" y1="49.991%" y2="49.991%">
            <stop offset="0%" stop-opacity="0"/>
            <stop offset="99%"/>
        </linearGradient>
        <linearGradient id="c" x1="-.101%" x2="100.162%" y1="50.013%" y2="50.013%">
            <stop offset="0%" stop-color="#E5C5D5"/>
            <stop offset="42%" stop-color="#EAD4D1"/>
            <stop offset="100%" stop-color="#F0E9CB"/>
        </linearGradient>
        <linearGradient id="d" x1="-.207%" x2="99.801%" y1="49.961%" y2="49.961%">
            <stop offset="0%" stop-color="#E5C5D5"/>
            <stop offset="42%" stop-color="#EAD4D1"/>
            <stop offset="100%" stop-color="#F0E9CB"/>
        </linearGradient>
        <linearGradient id="e" x1="34.032%" x2="69.334%" y1="26.552%" y2="80.023%">
            <stop offset="0%" stop-opacity="0"/>
            <stop offset="99%"/>
        </linearGradient>
        <linearGradient id="f" x1=".129%" x2="99.992%" y1="50.106%" y2="50.106%">
            <stop offset="0%" stop-color="#867580"/>
            <stop offset="57%" stop-color="#9B8F8E"/>
        </linearGradient>
        <linearGradient id="g" x1="60.272%" x2="9.737%" y1="94.803%" y2="-107.165%">
            <stop offset="0%" stop-opacity="0"/>
            <stop offset="99%"/>
        </linearGradient>
        <linearGradient id="h" x1="-.06%" x2="99.809%" y1="50.055%" y2="50.055%">
            <stop offset="0%" stop-color="#867580"/>
            <stop offset="57%" stop-color="#9B8F8E"/>
        </linearGradient>
        <linearGradient id="i" x1="-.168%" x2="100.137%" y1="49.982%" y2="49.982%">
            <stop offset="0%" stop-color="#867580"/>
            <stop offset="57%" stop-color="#9B8F8E"/>
        </linearGradient>
        <linearGradient id="j" x1="-.083%" y1="50.014%" y2="50.014%">
            <stop offset="0%" stop-opacity="0"/>
            <stop offset="99%"/>
        </linearGradient>
        <linearGradient id="k" x1="-.181%" x2="100.252%" y1="50.295%" y2="50.295%">
            <stop offset="0%" stop-color="#E5C5D5"/>
            <stop offset="42%" stop-color="#EAD4D1"/>
            <stop offset="100%" stop-color="#F0E9CB"/>
        </linearGradient>
        <linearGradient id="l" x1="-.134%" x2="99.974%" y1="49.992%" y2="49.992%">
            <stop offset="0%" stop-color="#E5C5D5"/>
            <stop offset="42%" stop-color="#EAD4D1"/>
            <stop offset="100%" stop-color="#F0E9CB"/>
        </linearGradient>
        <linearGradient id="m" x1=".158%" x2="99.891%" y1="50.044%" y2="50.044%">
            <stop offset="0%" stop-color="#E5C5D5"/>
            <stop offset="42%" stop-color="#EAD4D1"/>
            <stop offset="100%" stop-color="#F0E9CB"/>
        </linearGradient>
    </defs>
    <g fill="none" fill-rule="nonzero">
        <path fill="#FEBA85" d="M155.713 635.685c24.395 29.47 65.367 39.565 103.605 40.27a289.916 289.916 0 0 0 122.361-24.743c36.08-15.997 68.892-39.372 106.34-51.84 77.992-25.942 162.713-1.198 244.913-1.027 57.678.128 116.935-12.832 163.675-46.772 46.74-33.94 78.932-90.699 73.87-148.228-3.034-34.218-18.585-66.297-39.071-93.843-53.982-72.478-139.707-114.374-201.272-180.35-40.096-42.922-72.63-97.907-127.509-118.694C576.563.578 548.067-.235 520.232.043 493.53.406 466.23 1.925 441.62 12.254c-27.065 11.335-48.982 32.657-65.986 56.588-48.022 67.581-59.344 154.088-93.993 229.454-23.669 51.626-58.147 97.714-81.88 149.319-22.985 50.172-87.54 135.482-44.048 188.07z" opacity=".18"/>
        <path fill="url(#a)" d="M42.387 26.564a2.623 2.623 0 0 0-1.33-.559c-.48-.047-.937.22-1.142.668-.133.396 0 .873-.24 1.2-.26.25-.617.364-.97.314a14.294 14.294 0 0 1-4.533-.791 8.079 8.079 0 0 0-2.074-.559 1.987 1.987 0 0 0-1.861.845 2.79 2.79 0 0 0-.067 2.086c1.56 5.469 6.134 9.469 11.646 10.184 1.715.19 3.762-.15 4.586-1.704 1.914-3.613-1.13-9.666-4.015-11.684z" transform="translate(982 504)"/>
        <path fill="#FE7891" d="M1026.225 536c.38 2.768-2.55 4.913-3.116 7.655-.723 3.392 2.274 6.33 4.969 8.54 10.016 8.174 20.084 16.388 31.282 22.887 1.867 1.079 3.944 2.157 6.086 1.871 2.747-.364 4.68-2.794 6.06-5.198 1.735-3.003 7.058-12.997 5.047-16.494-1.577-2.729-10.515-2.95-13.683-3.899-12.723-3.795-24.684-9.591-36.645-15.362z"/>
        <path fill="url(#b)" d="M44.225 32c.38 2.768-2.55 4.913-3.116 7.655-.723 3.392 2.274 6.33 4.969 8.54 10.016 8.174 20.084 16.388 31.282 22.887 1.867 1.079 3.944 2.157 6.086 1.871 2.747-.364 4.68-2.794 6.06-5.198 1.735-3.003 7.058-12.997 5.047-16.494-1.577-2.729-10.515-2.95-13.683-3.899C68.147 43.567 56.186 37.771 44.225 32z" transform="translate(982 504)"/>
        <path fill="url(#c)" d="M81.713 24.06A8.928 8.928 0 0 0 81 27.716a13.836 13.836 0 0 0 1.597 3.59c1.114 2.525.819 5.773 2.912 7.588 1.543 1.315 3.878 1.315 5.904.986a2.024 2.024 0 0 1 1.248 0c.249.138.446.35.564.605.684 1.236.362 2.761.563 4.155.023.297.125.583.296.829a1.9 1.9 0 0 0 1.462.526 17.9 17.9 0 0 0 5.488-.96 7.306 7.306 0 0 0 3.865-2.025 6.197 6.197 0 0 0 1.047-3.34 44.088 44.088 0 0 0-1.02-11.836 29.09 29.09 0 0 0-2.684-8.6c-1.375-2.739-3.817-4.82-6.776-5.773a14.386 14.386 0 0 0-3.006-.42 35.883 35.883 0 0 0-5.824.197c-1.194.131-2.818.25-3.57 1.315-.75 1.065-.469 2.63-.509 3.84a22.972 22.972 0 0 1-.845 5.667z" transform="translate(982 504)"/>
        <path fill="#3E3E54" d="M1081.557 507.97a28.206 28.206 0 0 1-13.775-3.017 5.31 5.31 0 0 0-3.635-.92 3.29 3.29 0 0 0-2.147 3.135 9.295 9.295 0 0 0 1.022 3.885 29.344 29.344 0 0 0 3.7 6.838c2.276 2.875 5.574 5.05 6.867 8.47.182.466.427 1.035.919 1.061.491.026.853-.828 1.164-1.411a2.082 2.082 0 0 1 3.078-.57c.734.784.978 1.909.634 2.927a18.518 18.518 0 0 1-1.293 2.875 2.217 2.217 0 0 0-.272.932c0 .88.854 1.464 1.513 2.046a6.681 6.681 0 0 1 1.565 1.995 6.256 6.256 0 0 0 1.294 2.033 3.503 3.503 0 0 0 1.63.635c1.519.268 3.084.07 4.488-.57a8.637 8.637 0 0 0 4.384-6.087c.445-2.575.406-5.21-.116-7.77a81.193 81.193 0 0 0-.983-5.297c-.57-2.59-1.371-5.336-3.402-7.045-1.293-1.062-2.91-1.67-3.88-2.992-.957-.22-1.863-1.191-2.755-1.152z"/>
        <path fill="#FE7891" d="M1056.786 600.05c-10.089 10.866-26.843 14.323-40.787 19.324-3.751-5.342-3.072-6.01-5.999-11.783 5.607-.445 10.207-4.478 14.206-8.445 12.99-12.856 24.465-27.153 36.24-41.122a50.324 50.324 0 0 1 7.174-7.371c6.848-5.381 15.892-6.926 24.57-7.633 6.416-.51 7.841 8.955 8.913 15.318 3.345 19.952 3.032 40.324 2.705 60.564.009 6.023-.31 12.04-.954 18.028-.418 3.313-1.307 7.044-4.287 8.628a10.935 10.935 0 0 1-4.365.904 182.964 182.964 0 0 1-37.664-.995c-2.026-.262-4.208-.642-5.567-2.148a6.92 6.92 0 0 1-1.542-3.849c-.732-5.695 1.75-11.233 3.24-16.77 1.87-7.07 5.476-15.437 4.117-22.65z"/>
        <path fill="#3E3E54" d="M1098 641.357c-2.493 24.563-4.987 49.205-4.446 73.887.225 10.804 1.043 21.622.41 32.414-.159 2.81-.647 6.026-3.022 7.575-2.374 1.55-5.408.748-8.007-.21a74.152 74.152 0 0 1-11.873-5.619 2.633 2.633 0 0 1-1.319-1.234 2.096 2.096 0 0 1 .818-2.14c2.638-2.31 7.81-1.142 9.419-4.293a6.262 6.262 0 0 0 .514-2.626c.8-11.53.153-23.116-1.926-34.488-.804-3.939-1.873-7.956-2.704-11.947-.99-4.687-1.636-9.44-2.295-14.179l-1.966-14.179a416.697 416.697 0 0 1-19.18 34.817c-.133 20.192-2.31 41.827-2.718 62.006 0 1.943-.185 4.122-1.636 5.435a6.404 6.404 0 0 1-3.72 1.313c-7.44.788-16.108-2.626-18.126-9.833a3.137 3.137 0 0 1 0-2.324c1.32-2.363 5.21.184 7.572-1.13 1.32-.76 1.689-2.546 1.834-4.095a204.629 204.629 0 0 0-1.913-53.709c-.95-5.645-2.15-11.33-1.794-17.067.501-8.27 4.195-15.964 7.823-23.42l6.319-12.972a10.953 10.953 0 0 1 3.588-4.831 10.594 10.594 0 0 1 4.828-1.234c12.757-1.05 31.16 1.05 43.52 4.083z"/>
        <path fill="url(#d)" d="M18.958 102.476c-2.835-1.001-5.592-2.635-8.581-2.464a1.536 1.536 0 0 0 0 1.607c.23.514.616.949.847 1.463.089.145.112.323.064.487-.103.197-.36.237-.578.25L0 104.425c.484 3.472 2.533 6.508 5.528 8.193a19.034 19.034 0 0 0 9.723 2.371c1.83.065 3.66-.157 5.426-.659 2.565-.764 4.746-2.331 7.209-3.306a7.014 7.014 0 0 0 1.962-.961c2.078-1.66 1.142-5.454-1.193-6.376a12.072 12.072 0 0 0-3.848-.17 18.937 18.937 0 0 1-5.849-1.041z" transform="translate(982 504)"/>
        <g>
            <path fill="#3E3E54" d="M9.509 667.886c6.385 27.487 2.873 56.155 3.729 84.354.102 3.009.575 6.576 3.27 7.947 2.272 1.168 5.018.165 7.317-.952a81.195 81.195 0 0 0 11.199-6.615c1.2-.85 2.554-2.158 2.043-3.542-.383-1.155-1.788-1.561-3-1.752a43.437 43.437 0 0 0-8.416-.482l7.662-58.302c.74-5.586 1.481-11.3.383-16.822-.575-2.882-1.533-6.221.345-8.494C40.72 673.853 53.503 680.24 58.1 691.92c2.133 5.42 2.222 11.426 2.273 17.228l.536 54.036a5.36 5.36 0 0 0 1.099 3.923c1.277 1.27 3.333.952 5.031.47a40.504 40.504 0 0 0 14.226-7.263c1.15-.914 2.324-2.539 1.405-3.643a2.985 2.985 0 0 0-1.967-.8l-9.399-1.27c5.428-19.78 5.734-40.54 6.015-61.03.203-4.711.002-9.43-.6-14.106-1.022-6.59-3.614-12.824-6.22-18.969a1791.75 1791.75 0 0 0-12.463-28.795 4.51 4.51 0 0 0-1.75-2.348 4.455 4.455 0 0 0-2.387-.305l-25.464 1.27c-5.888.317-14.252-.737-19.475 2.653-10.42 6.881-1.507 26.027.549 34.915z"/>
            <path fill="#FE7891" d="M16.62 509.319c3.386-5.1 8.1-9.232 12.813-13.172 5.75-4.781 11.929-9.6 19.27-10.901 4.22-.753 9.275.14 11.373 3.825 2.388 4.17-.177 9.678-4.006 12.572-3.828 2.894-8.618 4.067-12.914 6.171a23.134 23.134 0 0 0-9.869 8.581 47.398 47.398 0 0 0-3.222 7.447 30.499 30.499 0 0 1-5.775 9.958 14.051 14.051 0 0 1-10.11 4.781c-2.792 0-10.108 17.57-11.751 15.199-2.022-2.92 3.677-23.474 5.206-26.292 3.286-5.89 5.257-12.495 8.985-18.17z"/>
            <path fill="url(#e)" d="M53.342 17c1.292 0 2.869.261 3.45 1.405.698 1.355-.49 2.896-1.667 3.878a34.861 34.861 0 0 1-8.774 5.172c-1.667.721-3.373 1.343-5.092 1.94-1.085.372-3.876 1.864-5.014 1.566-2.752-.746-.206-5.98.646-7.46a9.234 9.234 0 0 1 4.355-3.63A26.948 26.948 0 0 1 53.342 17z" transform="translate(0 479)"/>
            <path fill="url(#f)" d="M42.84 19.673c.838.457 1.828.914 2.094 1.828.419 1.434-1.269 2.538-1.98 3.808-.862 1.51-.456 3.389-.583 5.077a8.352 8.352 0 0 1-4.568 6.74c-1.46.71-3.147 1.003-4.416 2.018-2.766 2.196-2.423 6.83-5.075 9.114a7.46 7.46 0 0 1-3.262 1.46 7.307 7.307 0 0 1-4.91-.318 7.501 7.501 0 0 1-3.312-3.985 32.555 32.555 0 0 1-1.776-10.954c-.267-8.213.355-17.035 5.367-23.546a10.673 10.673 0 0 1 3.083-2.856c3.553-2.018 10-1.04 12.829 1.993a12.454 12.454 0 0 1 1.941 4.125 10.687 10.687 0 0 0 4.568 5.496z" transform="translate(0 479)"/>
            <path fill="#3E3E54" d="M34.197 496.583a8.073 8.073 0 0 1-4.507 2.567c-1.51.167-3.252-.334-4.455.616a3.447 3.447 0 0 0-.73 3.761c.436 1.284 1.28 2.44 1.69 3.723 1.063 3.068-.09 6.418-1.28 9.435a6.715 6.715 0 0 1-2.279 3.53 5.672 5.672 0 0 1-2.906.745 10.117 10.117 0 0 1-5.697-1.168 10.522 10.522 0 0 1-3.994-5.135c-2.049-4.891-2.151-10.36-1.985-15.661a31.84 31.84 0 0 1 .64-6.239 17.264 17.264 0 0 1 13.52-12.695c3.597-.642 7.246-.129 10.869-.372 2.074-.142 5.825-1.746 7.336.487 1.51 2.234-.308 6.509-1.114 8.562a23.202 23.202 0 0 1-5.108 7.844z"/>
            <path fill="#FE7891" d="M9.068 531.089a26.122 26.122 0 0 0-4.986 9.696C-.38 554.854-.15 569.901.13 584.643l.689 36.855c.102 5.426.395 11.361 4.03 15.403 3.634 4.041 9.601 4.969 15.047 5.083a78.532 78.532 0 0 0 30.783-5.617c3.302-1.27 6.656-2.987 8.786-5.833 3.825-5.173 2.55-12.391 1.16-18.682-3.749-16.318-7.502-32.632-11.26-48.941-2.55-11.247-6.057-23.397-14.741-31.67-6.682-6.329-18.924-7.562-25.555-.152z"/>
            <path fill="url(#g)" d="M50.807 90.472s-10.012-12.149-16.751-7.35C27.317 87.92 55.368 139.4 46.94 157.955c0 0 9.187 1.021 12.988-6.687s3.48-9.303 2.19-12.506c-1.288-3.203-11.312-48.29-11.312-48.29z" transform="translate(0 479)"/>
            <path fill="#FE7891" d="M37.355 537.594a10.039 10.039 0 0 0-3.811.484 8.809 8.809 0 0 0-4.676 5.604c-2.986 8.777 2.097 18.712 9.643 24.062 7.547 5.35 10.304 2.726 19.478 3.974 1.771.376 3.602.376 5.374 0 2.935-.866 4.866-3.605 6.48-6.216 4.65-7.579 17.71-29.106 17.139-31.972-.775-3.961-1.64-2.955-4.917-5.311a3.527 3.527 0 0 0-5.845.777L59.805 548.28c-.635.751-1.448 1.567-2.426 1.452a3.098 3.098 0 0 1-1.487-.828c-5.857-4.955-10.52-11.311-18.537-11.311z"/>
            <path fill="url(#h)" d="M73.388 42.466a1.136 1.136 0 0 1-.385-.939c.077-.431.564-.634 1-.761.885-.241 1.798-.369 2.716-.38a3.724 3.724 0 0 0 1.794-.292c.55-.38.933-.951 1.077-1.599 1.076-3.412.102-7.104 0-10.681 0-.748.179-1.738.922-1.814a31.872 31.872 0 0 1 2.935 8.157c.114.707.316 1.397.602 2.055a8.236 8.236 0 0 0 1.922 2.131 9.026 9.026 0 0 1 2.78 3.73c.692 2.194-.166 4.566-1.28 6.57a2.55 2.55 0 0 1-1.282 1.27 2.38 2.38 0 0 1-1.282 0 10.08 10.08 0 0 1-5.702-3.312c-1.64-1.712-4.177-2.334-5.817-4.135z" transform="translate(0 479)"/>
            <path fill="url(#i)" d="M62.98 23.936c.67.608 1.523 1.242 2.414 1.018 1.149-.273 1.458-1.75 1.123-2.843a24.603 24.603 0 0 1-1.291-3.165 1.198 1.198 0 0 1 .103-.856c.184-.237.435-.418.723-.522a23.374 23.374 0 0 1 8.262-1.738c.775 0 1.847-.422 1.666-1.154-.18-.733-.904-.67-1.498-.67H69.46a1.518 1.518 0 0 1-.968-.224 1.631 1.631 0 0 1-.4-.906c-.722-2.055-2.603-3.531-4.841-3.799a16.63 16.63 0 0 0-6.455.646 5.392 5.392 0 0 0-3.331 1.763c-.994 1.464-.22 3.413.697 4.965 1.188 1.936 2.362 1.887 4.105 2.843 1.743.955 3.202 3.29 4.712 4.642z" transform="translate(0 479)"/>
        </g>
        <g>
            <path fill="#3E3E54" d="M127.32 173.707a285.514 285.514 0 0 1-1.994 63.805c-.292 1.99-.479 4.333 1.003 5.68a4.115 4.115 0 0 0 4.898 0 11.12 11.12 0 0 0 3.219-4.134c4.747-8.843 8.012-18.388 11.254-27.874 3.756-11.02 7.558-22.357 7.103-33.964-.315-8.069-2.682-15.998-2.333-24.067a12.572 12.572 0 0 1 3.22 3.572c4.105 5.926 8.303 12.063 9.738 19.137.589 3.457.823 6.965.7 10.47a560.564 560.564 0 0 1-2.181 46.401c-.222 2.518-.432 5.188.758 7.414 1.19 2.225 4.373 3.513 6.286 1.885a6.257 6.257 0 0 0 1.47-2.26c6.822-15.225 9.33-31.984 11.254-48.545 1.225-10.458 2.216-21.162-.175-31.398a97.07 97.07 0 0 0-4.922-14.253l-8.723-21.526a9.674 9.674 0 0 0-1.645-2.987c-1.773-1.932-4.723-2.084-7.336-2.061a260.99 260.99 0 0 0-22.905 1.171c-2.111.211-6.567-.199-8.304 1.347-1.738 1.546-1.796 6.383-2.076 8.702-1.726 14.452.525 29.033 1.69 43.485z"/>
            <path fill="#FE7891" d="M132.704 37.295l-5.543 2.496a17.217 17.217 0 0 0-4.193 2.332 10.552 10.552 0 0 0-3.23 5.282c-.506 2.031-.68 4.13-.517 6.215 1.034 17.2-.834 33.724 0 50.947.141 3.265.306 6.635 1.633 9.632 2.56 5.83 9.078 9.118 15.444 9.69 6.366.571 12.696-1.166 18.862-2.799 4.886-1.317 10.136-2.88 13.225-6.868 4.592-5.924 2.513-14.355.74-21.62a160.766 160.766 0 0 1-4.522-32.953 3.48 3.48 0 0 1 .646-2.6 3.539 3.539 0 0 1 2.067-.747l47.45-6.133c3.405-4.035 2.818-8.361-1.081-11.93-3.9-3.568-46.815-5.911-62.13-2.763-6.014 1.271-13.307-.665-18.85 1.82z"/>
            <path fill="url(#j)" d="M57.612 90.76L58 95.82s-30.647-3.114-35.751-8.957c-5.104-5.844-1.576 35.853-1.576 35.853s-8.232 3.114-17.64-11.302c-9.408-14.416 6.01-61.652 6.738-63.367.73-1.714 47.84 42.711 47.84 42.711z" transform="translate(110)"/>
            <path fill="url(#k)" d="M104.197 40.16c-1.544.353-2.761 1.475-3.174 2.927-.176 1.662.658 3.275 2.151 4.164a19.684 19.684 0 0 0 4.755 1.924c3.256 1.126 6.43 2.712 9.889 2.825 1.188 0 2.638-.259 3.102-1.317.253-1.06-.104-2.169-.94-2.914a17.069 17.069 0 0 0-4.42-3.636 1.643 1.643 0 0 1-.654-.528c-.464-.777.689-1.666.523-2.544-.218-.633-.885-1.027-1.581-.934a9.166 9.166 0 0 0-1.961.529c-2.687.822-4.826-1.227-7.69-.495z" transform="translate(110)"/>
            <path fill="#3E3E54" d="M123.926 242.924a7.871 7.871 0 0 0-.799 5.11 8.642 8.642 0 0 0 2.55 4.319 19.673 19.673 0 0 0 4.241 2.956c2.835 1.558 5.957 2.876 9.269 2.67.49-.014.972-.123 1.417-.321 1.131-.696 1.65-2.026 1.275-3.266a8.517 8.517 0 0 0-1.978-3.23 24.812 24.812 0 0 1-3.836-5.5c-.595-1.306-.94-2.693-1.525-3.999a6.51 6.51 0 0 0-2.752-3.242c-3.276-1.673-6.564 2.016-7.862 4.503zM160.066 247.23c.034.591.216 1.165.529 1.666a4.088 4.088 0 0 0 1.794 1.165c5.622 2.412 11.302 4.847 17.328 5.826 1.586.268 3.668.152 4.208-1.386a3.354 3.354 0 0 0-.655-2.797c-2.22-3.496-5.853-5.733-8.429-8.926a38.358 38.358 0 0 0-4.013-4.999c-6.473-5.674-11.464 3.52-10.762 9.45z"/>
            <path fill="#FE7891" d="M179.62 85.126a2.27 2.27 0 0 1 1.112.754c.173.317.262.672.257 1.032.07 1.721-.2 3.44-.796 5.057-.08.323-.27.61-.538.812-.227.12-.48.183-.737.185-17.842.58-35.098-6.367-50.81-14.693-1.99-1.056-4.072-2.227-5.148-4.187a10.357 10.357 0 0 1-.925-5.207 91.797 91.797 0 0 1 2.34-16.7c.351-1.705 1.369-4.013 3.51-2.876 1.533.846 3.112 3.34 4.387 4.639a159.332 159.332 0 0 0 10.366 9.277 149.518 149.518 0 0 0 22.709 15.135 147.014 147.014 0 0 0 14.273 6.772z"/>
            <path fill="url(#l)" d="M77.774 84.483c.638-.38 1.549-.772 1.986-.178.438.593-.153 1.34-.71 1.792-.555.45-1.182 1.187-.839 1.768.2.282.494.48.828.558 3.867 1.318 8.1.333 12.169.641.335.003.666.08.97.226.563.409.873 1.084.815 1.78a5.644 5.644 0 0 1-2.235 4.202 12.1 12.1 0 0 1-4.423 2.053 12.886 12.886 0 0 1-11.825-1.887c-2.14-1.33-4.115-2.92-6.268-4.214a2.51 2.51 0 0 1-1.088-.95 1.822 1.822 0 0 1-.153-.782 3.163 3.163 0 0 1 1.013-2.386 3.138 3.138 0 0 1 2.452-.82 13.701 13.701 0 0 0 7.308-1.803z" transform="translate(110)"/>
            <path fill="url(#m)" d="M42.974 26.585c.125 2.224-.2 4.45-.955 6.542a6.398 6.398 0 0 1-4.764 4.058 3.368 3.368 0 0 0-1.421.308 2.555 2.555 0 0 0-.769 2.224l-.14 4.176a3.153 3.153 0 0 1-.326 1.68 2.7 2.7 0 0 1-1.42.97 5.958 5.958 0 0 1-4.02.2 6.86 6.86 0 0 1-2.876-2.365 17.616 17.616 0 0 1-3.623-8.73c-.326-2.757-.093-5.798-1.77-7.974a11.098 11.098 0 0 1-1.747-2.272c-.373-.887 0-2.2.943-2.283.944-.083 1.526.864 2.388.84a28.487 28.487 0 0 1-.548-6.199A9.71 9.71 0 0 1 23.988 12a9.605 9.605 0 0 1 7.082-2.993c3.296-.106 8.014 1.183 9.796 4.353 2.108 3.668 2.096 9.157 2.108 13.226z" transform="translate(110)"/>
            <path fill="#B7A451" d="M152.215 15.981a11.65 11.65 0 0 0 .77-4.79V5.363a6.722 6.722 0 0 0-.571-3.193c-1.166-2.063-3.977-2.425-6.285-2.028a32.263 32.263 0 0 0-9.003 3.496 28.909 28.909 0 0 0-6.6 4.22 10.034 10.034 0 0 0-3.498 6.83c.036.697 0 1.396-.105 2.086a13.774 13.774 0 0 1-1.364 2.634c-1.26 2.564-.222 5.7 1.434 8.018 1.656 2.32 3.907 4.196 5.48 6.574a1.84 1.84 0 0 0 .479-1.935 6.491 6.491 0 0 0-1.038-1.83 10.406 10.406 0 0 1-2.006-4.429c-.121-.639-.022-1.3.28-1.876a1.388 1.388 0 0 1 1.656-.618c.27.165.507.378.7.63a8.08 8.08 0 0 0 1.83 1.503.455.455 0 0 0 .339.093c.186 0 .245-.268.268-.454.245-2.576-1.166-5.163-.63-7.693.04-.258.158-.498.338-.687.194-.144.424-.23.665-.245 3.498-.478 7.3 2.331 10.623.793a9.408 9.408 0 0 0 2.752-2.553c.49-.571 1.026-1.632 1.796-1.329.666.8 1.234 1.676 1.69 2.611z"/>
        </g>
    </g>
</svg>
