<?xml version="1.0" encoding="UTF-8"?>
<svg width="200px" height="174px" viewBox="0 0 200 174" version="1.1" xmlns="http://www.w3.org/2000/svg" xmlns:xlink="http://www.w3.org/1999/xlink">
    <!-- Generator: Sketch 55 (78076) - https://sketchapp.com -->
    <title>grid</title>
    <desc>Created with Sketch.</desc>
    <g id="Symbols" stroke="none" stroke-width="1" fill="none" fill-rule="evenodd">
        <g id="pencil">
            <g id="grid">
                <path d="M188.947586,157.218274 L9.29029942,157.218274 C6.79349944,157.215672 4.50827352,155.803195 3.3720752,153.560275 C2.23587688,151.317354 2.43995072,148.621517 3.90058082,146.57866 L25.0269469,120.298477 L46.5858213,93.4477157 L60.525896,76.0954112 C61.7785005,74.3519187 63.7811855,73.3167974 65.9156146,73.3096447 L132.322271,73.3096447 C134.4567,73.3167974 136.459385,74.3519187 137.711989,76.0954112 L151.652064,93.4477157 L173.210939,120.298477 L194.337305,146.57866 C195.797935,148.621517 196.002009,151.317354 194.86581,153.560275 C193.729612,155.803195 191.444386,157.215672 188.947586,157.218274 Z" id="Shape" fill="#FF6C9E" fill-rule="nonzero"></path>
                <path d="M179.245445,157.218274 L9.30081049,157.218274 C6.80006233,157.215672 4.5112228,155.803195 3.37322781,153.560275 C2.23523282,151.317354 2.43962937,148.621517 3.90256916,146.57866 L25.0623423,120.298477 L46.6553076,93.4477157 L60.6174256,76.0954112 C61.8720109,74.3519187 63.8778627,73.3167974 66.0156669,73.3096447 L122.530589,73.3096447 C124.668393,73.3167974 126.674245,74.3519187 127.92883,76.0954112 L141.890948,93.4477157 L163.483913,120.298477 L184.643686,146.57866 C186.106626,148.621517 186.311023,151.317354 185.173028,153.560275 C184.035033,155.803195 181.746193,157.215672 179.245445,157.218274 Z" id="Shape" fill="#FCE8F4" fill-rule="nonzero"></path>
                <polygon id="Shape" fill="#FF6C9E" fill-rule="nonzero" points="173.568282 121.005076 123.785176 121.005076 117.180617 93.6243655 152.06198 93.6243655"></polygon>
                <g id="Rectangle" transform="translate(26.000000, 73.000000)" fill-rule="nonzero">
                    <g id="Mask">
                        <polygon id="Shape" fill="#FE918D" points="56.3876652 20.3147208 49.7831064 47.6954315 0 47.6954315 21.506302 20.3147208"></polygon>
                        <polygon id="Shape" fill="#FEA189" points="140.088106 47.6954315 97.4236113 47.6954315 90.7488987 20.3147208 118.353363 20.3147208"></polygon>
                        <polygon id="Shape" fill="#FE988B" points="91.6299559 20.3147208 56.3876652 20.3147208 61.360299 0 86.6573221 0"></polygon>
                        <polygon id="Shape" fill="#FE998B" points="105.726872 83.9086294 39.6475771 83.9086294 48.6674009 47.6954315 96.7070485 47.6954315"></polygon>
                    </g>
                </g>
                <path d="M131.168376,87.9295886 L116.432108,93.6243655 C115.569986,91.4770996 110.353815,93.3094778 108.783283,91.6780917 C107.072406,89.9026613 108.943678,84.7204143 106.60793,83.7757513 L112.288577,69.0028301 L133.039648,67.1269036 L131.168376,87.9295886 Z" id="Shape" fill="#FF6699" fill-rule="nonzero"></path>
                <path d="M116.299559,93.9190792 L103.63361,98.808537 C103.006391,99.0525455 102.294645,98.9021837 101.818923,98.4251705 C101.343201,97.9481569 101.193247,97.2344796 101.436595,96.6055571 L106.316211,83.9086294 C110.863766,85.7443621 114.468797,89.3591791 116.299559,93.9190792 Z" id="Shape" fill="#FE8D8D" fill-rule="nonzero"></path>
                <path d="M187.455328,23.1109775 C186.135095,29.0873793 183.531183,34.7082098 179.822568,39.5871244 C179.822568,39.6206125 179.822568,39.6206125 179.788943,39.6541006 L179.587196,39.8550292 L131.773168,87.4416244 L122.291062,77.9979792 L112.77533,68.5208459 L160.555734,20.9007626 L160.757481,20.699834 C160.791105,20.6663459 160.791105,20.6663459 160.82473,20.6663459 C163.279318,18.3221787 170.374086,9.71573604 174.005531,9.71573604 C177.704225,9.71573604 185.00074,10.6534029 187.455328,13.0645464 C189.909915,15.4756899 187.455328,19.4272861 187.455328,23.1109775 Z" id="Shape" fill="#FF6C9E" fill-rule="nonzero"></path>
                <path d="M178.854626,21.5673334 L166.601731,33.8907676 L155.710269,44.8783281 L122.172537,78.6091371 L112.77533,69.1578312 L159.960596,21.667524 L160.15983,21.4671429 C160.193036,21.4337461 160.193036,21.4337461 160.226241,21.4337461 C165.431175,16.3571802 173.722196,16.4166365 178.854626,21.5673334 Z" id="Shape" fill="#FF6C9E" fill-rule="nonzero"></path>
                <path d="M191.878624,26.4077782 L178.854626,39.7461929 C183.305044,35.0605758 183.659167,26.3113331 179.680538,21.1979695 L187.681501,13.3628739 C189.15392,11.8507842 191.264909,9.19298396 191.878624,7.14981917 C196.83341,12.2512981 196.83341,21.3062993 191.878624,26.4077782 Z" id="Shape" fill="#FE8D8D" fill-rule="nonzero"></path>
                <path d="M192.070485,6.66152996 C191.424522,8.81308145 190.276773,10.7700464 188.726985,12.3623501 L179.231447,22.0812183 C178.925051,21.6568134 178.589868,21.255155 178.228397,20.8792381 C173.060523,15.5827273 164.712245,15.5215878 159.471366,20.741869 L173.146278,6.66152996 C173.346888,6.45547622 173.547498,6.28376477 173.748108,6.11205332 C179.036721,1.29153072 187.064701,1.53228487 192.070485,6.66152996 Z" id="Shape" fill="#FE8D8D" fill-rule="nonzero"></path>
                <path d="M179.735683,22.3500331 L175.330396,26.4974619 C176.879256,25.0061866 178.029644,23.1898187 178.686805,21.1979695 C179.064791,21.5582751 179.415288,21.9432532 179.735683,22.3500331 Z" id="Shape" fill="#CAD9FC" fill-rule="nonzero"></path>
                <path d="M8.41293867,157.218267 L18.3745165,157.218267 C15.8825652,157.215665 13.601777,155.803188 12.4677852,153.560268 C11.3337933,151.317347 11.5374708,148.621511 12.9952645,146.578654 L34.0806041,120.298473 L55.5976122,93.447714 L69.5106158,76.0954109 C70.7607879,74.3519186 72.7595838,73.3167974 74.8898678,73.3096447 L64.92829,73.3096447 C62.798006,73.3167974 60.7992101,74.3519186 59.549038,76.0954109 L45.6360344,93.447714 L24.1190263,120.298473 L3.01708403,146.578654 C1.55754119,148.623959 1.35525658,151.323566 2.49338394,153.56774 C3.63151129,155.811914 5.91800091,157.221968 8.41293867,157.218267 Z" id="Shape" fill="#FFFFFF" fill-rule="nonzero"></path>
                <path d="M190.028312,160.751269 L9.99577824,160.751269 C6.24272796,160.74899 2.80681339,158.644101 1.09754492,155.300087 C-0.611723549,151.956074 -0.306638161,147.935808 1.88764634,144.888517 L58.7479217,74.6639728 C60.6333367,72.1392005 63.5999842,70.6546395 66.7493676,70.6599125 L96.4880751,70.6599125 C98.3293568,70.6599125 99.8220109,72.1538117 99.8220109,73.9966294 C99.8220109,75.8394471 98.3293568,77.3333463 96.4880751,77.3333463 L66.7393658,77.3333463 C65.6653004,77.3416244 64.659621,77.8622373 64.0322099,78.7347674 L7.18527035,148.939291 C6.52655682,149.966842 6.48114851,151.272402 7.06687629,152.343308 C7.65260407,153.414213 8.77594147,154.079466 9.99577824,154.077835 L190.028312,154.077835 C191.25561,154.069853 192.37928,153.387646 192.953369,152.301962 C193.527459,151.216279 193.45912,149.902707 192.775475,148.882567 L147.777344,90.0128706 C147.028318,89.0692377 146.845922,87.7946926 147.300182,86.6785734 C147.754442,85.5624546 148.774757,84.7782297 149.969396,84.626988 C151.164035,84.475746 152.347326,84.9809933 153.064966,85.9487494 L198.176451,144.978608 C200.32305,148.030172 200.595281,152.023483 198.882709,155.338572 C197.170138,158.653662 193.757157,160.740019 190.028312,160.751269 Z" id="Shape" fill="#FFFFFF" fill-rule="nonzero"></path>
                <path d="M133.237163,160.751268 L66.7615145,160.751268 C65.738651,160.751755 64.7725298,160.279426 64.142218,159.470712 C63.5119063,158.661998 63.2876114,157.60698 63.5341217,156.610402 L84.1748106,73.1924673 C84.5429923,71.7040004 85.8744773,70.6591705 87.4022034,70.6598989 L96.4761294,70.6598989 C98.3118036,70.6598989 99.7999119,72.1537983 99.7999119,73.9966162 C99.7999119,75.8394342 98.3118036,77.3333336 96.4761294,77.3333336 L90.0014012,77.3333336 L71.0093084,154.077833 L129.04255,154.077833 L118.074068,107.030118 C117.766864,105.855778 118.11933,104.606604 118.994377,103.768449 C119.869424,102.930293 121.128924,102.635461 122.283008,102.998624 C123.437091,103.361787 124.303584,104.325619 124.545472,105.515248 L136.477851,156.660452 C136.707038,157.652158 136.472705,158.694645 135.841495,159.49144 C135.210284,160.288235 134.251261,160.752156 133.237163,160.751268 Z" id="Shape" fill="#FFFFFF" fill-rule="nonzero"></path>
                <path d="M154.490003,97.1573604 L144.188411,97.1573604 C142.410469,97.1573604 140.969163,95.5755845 140.969163,93.6243655 C140.969163,91.6731464 142.410469,90.0913706 144.188411,90.0913706 L154.490003,90.0913706 C156.267945,90.0913706 157.709251,91.6731464 157.709251,93.6243655 C157.709251,95.5755845 156.267945,97.1573604 154.490003,97.1573604 Z" id="Shape" fill="#FFFFFF" fill-rule="nonzero"></path>
                <path d="M89.1528601,97.1573604 L47.4110166,97.1573604 C45.55636,97.1573604 44.0528634,95.5755845 44.0528634,93.6243655 C44.0528634,91.6731464 45.55636,90.0913706 47.4110166,90.0913706 L89.1528601,90.0913706 C91.0075167,90.0913706 92.5110132,91.6731464 92.5110132,93.6243655 C92.5110132,95.5755845 91.0075167,97.1573604 89.1528601,97.1573604 Z" id="Shape" fill="#FFFFFF" fill-rule="nonzero"></path>
                <path d="M174.648469,123.654822 L25.3515306,123.654822 C23.5151292,123.654822 22.0264317,122.073046 22.0264317,120.121827 C22.0264317,118.170608 23.5151292,116.588832 25.3515306,116.588832 L174.648469,116.588832 C176.484871,116.588832 177.973568,118.170608 177.973568,120.121827 C177.973568,122.073046 176.484871,123.654822 174.648469,123.654822 Z" id="Shape" fill="#FFFFFF" fill-rule="nonzero"></path>
                <polygon id="Shape" fill="#FFFFFF" fill-rule="nonzero" points="109.251101 66.8121745 139.929463 36.0575064 170.607824 5.29949239 175.330396 10.0338109 144.648697 40.788479 113.970336 71.5431472"></polygon>
                <path d="M125.024143,57.4973702 C123.734359,56.2047683 121.643619,56.2047683 120.353834,57.4973702 L111.013216,66.8612215 L115.683525,71.5431472 L125.024143,62.1792959 C126.313538,60.8863033 126.313538,58.7903628 125.024143,57.4973702 Z" id="Shape" fill="#FFFFFF" fill-rule="nonzero"></path>
                <path d="M128.808462,46.9509433 C128.155119,47.6194435 127.778198,48.5107459 127.753304,49.4460676 L127.827165,50.1156631 C127.871159,50.3499543 127.945657,50.5774458 128.048748,50.792307 C128.119745,51.0040229 128.220405,51.2045562 128.34771,51.3878946 C128.485523,51.5808918 128.635918,51.7645499 128.797911,51.9376678 C129.463808,52.5920843 130.352176,52.9697932 131.284567,52.9949239 C133.200776,52.9327628 134.739724,51.3907545 134.801762,49.4707369 C134.787689,49.0071203 134.686253,48.5503504 134.502801,48.1244975 C134.33016,47.6971261 134.077003,47.3070631 133.757155,46.9756126 C133.102262,46.3061619 132.206059,45.928934 131.270499,45.928934 C130.334939,45.928934 129.438736,46.3061619 128.783842,46.9756126 L128.808462,46.9509433 Z" id="Shape" fill="#FFFFFF" fill-rule="nonzero"></path>
                <path d="M131.419113,90.0913585 C130.53386,90.0937371 129.684472,89.7444362 129.060427,89.1213762 L110.18761,70.3937654 C108.923287,69.0947872 108.941368,67.0299965 110.228249,65.7530171 C111.51513,64.4760377 113.59593,64.4580953 114.90498,65.7126903 L131.419113,82.0997636 L190.396251,23.5797042 C194.306091,19.6999462 194.306091,13.409616 190.396251,9.52985826 C186.486411,5.65010051 180.147308,5.65010035 176.237467,9.52985793 C174.928418,10.784453 172.847617,10.7665105 171.560737,9.4895311 C170.273856,8.2125517 170.255774,6.14776097 171.520097,4.84878286 C178.035269,-1.61626109 188.59845,-1.61626094 195.113621,4.84878323 C201.628793,11.3138274 201.628793,21.7957349 195.113621,28.2607792 L133.777798,89.1213762 C133.153753,89.7444362 132.304365,90.0937371 131.419113,90.0913585 Z" id="Shape" fill="#FFFFFF" fill-rule="nonzero"></path>
                <path d="M101.102337,102.456852 C100.013284,102.456484 98.9942683,101.918341 98.3778774,101.018063 C97.7614862,100.117785 97.6267956,98.9708681 98.0177658,97.9516428 L109.704753,67.4859496 C110.128785,66.380342 111.108838,65.5855533 112.275735,65.4009733 C113.442632,65.2163933 114.619094,65.6700637 115.361959,66.5910913 C116.104824,67.5121189 116.301233,68.7605778 115.877201,69.8661855 L106.858219,93.3801313 L130.308233,84.336561 C131.410835,83.9113729 132.6559,84.1083172 133.574423,84.8532077 C134.492946,85.5980979 134.945383,86.7777673 134.761305,87.9478459 C134.577227,89.1179244 133.784599,90.1006492 132.681998,90.5258373 L102.289219,102.234741 C101.910688,102.381718 101.508256,102.457028 101.102337,102.456852 Z" id="Shape" fill="#FFFFFF" fill-rule="nonzero"></path>
                <path d="M116.618212,96.2740873 C115.312227,96.2751179 114.135903,95.4819566 113.643547,94.2683565 C112.21222,90.7781165 109.446395,88.0089904 105.964612,86.5802585 C104.322636,85.9090389 103.533899,84.0294448 104.202917,82.3820676 C104.871936,80.7346904 106.745368,79.9433581 108.387343,80.6145777 C113.468383,82.7085632 117.502548,86.7559988 119.589667,91.8537529 C120.25103,93.4975432 119.463515,95.3684667 117.827973,96.0390659 C117.443873,96.1958722 117.032889,96.2757144 116.618212,96.2740873 Z" id="Shape" fill="#FFFFFF" fill-rule="nonzero"></path>
                <path d="M73.3480176,174 L13.876652,174 C12.0519226,174 10.5726872,172.418224 10.5726872,170.467005 C10.5726872,168.515786 12.0519226,166.93401 13.876652,166.93401 L73.3480176,166.93401 C75.1727468,166.93401 76.6519824,168.515786 76.6519824,170.467005 C76.6519824,172.418224 75.1727468,174 73.3480176,174 Z" id="Shape" fill="#FFFFFF" fill-rule="nonzero"></path>
                <path d="M99.7356828,174 L89.69163,174 C87.842571,174 86.3436123,172.418224 86.3436123,170.467005 C86.3436123,168.515786 87.842571,166.93401 89.69163,166.93401 L99.7356828,166.93401 C101.584742,166.93401 103.0837,168.515786 103.0837,170.467005 C103.0837,172.418224 101.584742,174 99.7356828,174 Z" id="Shape" fill="#FFFFFF" fill-rule="nonzero"></path>
                <path d="M121.410323,81.2588701 C120.055894,81.2585803 118.834958,80.4404426 118.316679,79.1858481 C117.798401,77.9312533 118.08481,76.4871879 119.042392,75.5268301 L152.869985,41.6114202 C153.717761,40.7632435 154.952462,40.432953 156.108991,40.7449654 C157.265519,41.0569781 158.168169,41.963892 158.476922,43.124081 C158.785675,44.2842705 158.453624,45.5214747 157.605848,46.3696515 L123.778255,80.2850613 C123.14865,80.9111522 122.297092,81.2613547 121.410323,81.2588701 Z" id="Shape" fill="#FFFFFF" fill-rule="nonzero"></path>
                <path d="M178.555728,44.1624365 C177.233524,44.1621456 176.041638,43.3408049 175.53569,42.0812989 C175.029743,40.8217924 175.309338,39.3720736 176.244136,38.4079561 L176.440311,38.2056896 C180.176472,34.2258201 180.125532,27.891688 176.325876,23.9762449 C172.450366,20.2099927 166.404828,20.1922929 162.508636,23.9357917 C161.205439,25.2487157 159.127546,25.2606429 157.810252,23.9627605 C157.195961,23.3621451 156.84213,22.5317805 156.828597,21.6590281 C156.815063,20.7862758 157.142967,19.9446729 157.738321,19.3241166 L157.98354,19.0712836 C162.115137,14.811389 168.137072,13.1477108 173.78094,14.7069404 C179.424807,16.2661701 183.833169,20.8114234 185.345439,26.6305476 C186.857709,32.4496719 185.244136,38.6586033 181.112539,42.9184979 L180.86732,43.1713309 C180.254834,43.8048167 179.423273,44.1613521 178.555728,44.1624365 Z" id="Shape" fill="#FFFFFF" fill-rule="nonzero"></path>
                <path d="M166.40017,37.0964335 C165.02312,37.0961388 163.781793,36.2642359 163.254859,34.9885328 C162.727925,33.7128294 163.019117,32.2444675 163.992691,31.2679516 L176.557889,18.6685972 C177.417998,17.8043201 178.672608,17.4658053 179.849119,17.7805679 C181.025631,18.0953306 181.945303,19.0155509 182.261705,20.1945907 C182.578108,21.3736304 182.24317,22.6323654 181.383061,23.4966425 L168.817863,36.0959969 C168.176912,36.7388921 167.306751,37.0989629 166.40017,37.0964335 Z" id="Shape" fill="#FFFFFF" fill-rule="nonzero"></path>
                <path d="" id="Path-2" stroke="#979797"></path>
            </g>
        </g>
    </g>
</svg>